<?xml version="1.0" standalone="no"?>
<!DOCTYPE svg PUBLIC "-//W3C//DTD SVG 1.1//EN" "http://www.w3.org/Graphics/SVG/1.1/DTD/svg11.dtd" >
<svg xmlns="http://www.w3.org/2000/svg" xmlns:xlink="http://www.w3.org/1999/xlink" version="1.1">
<metadata>
Created by FontForge 20170924 at Wed Jan 18 19:55:47 2017
 By www-data
Copyright (c) 2016 by Ianmikraz. All rights reserved.
</metadata>
<defs>
<font id="FrutillaScript-Regular" horiz-adv-x="344" >
  <font-face 
    font-family="Frutilla Script"
    font-weight="400"
    font-stretch="normal"
    units-per-em="1000"
    panose-1="2 0 5 8 2 0 0 2 0 4"
    ascent="800"
    descent="-200"
    x-height="332"
    cap-height="653"
    bbox="-559.778 -203 1213.5 870.067"
    underline-thickness="50"
    underline-position="-100"
    unicode-range="U+000D-FB00"
  />
<missing-glyph horiz-adv-x="300" 
 />
    <glyph glyph-name="f_f" unicode="ff" horiz-adv-x="383" 
d="M401 617q20 7 28 -2q11 -13 -5 -48q-11 -24 -32 -56t-45.5 -63.5t-49.5 -58.5t-44 -41v-1l-7 -5q0 -2 -1 -3q7 -5 12 -18q4 -11 5.5 -28t0.5 -37q15 -3 34 0q18 3 36.5 15t33.5 25t24.5 23.5l9.5 10.5q2 4 7 1q3 -4 0 -7q-1 -1 -10.5 -12t-25 -24.5t-35 -26t-39.5 -15.5
q-11 -2 -19.5 -2t-16.5 2q-2 -30 -8 -63t-15 -63t-20 -54t-24 -35q-14 -15 -22 -15h-4l-1 1h-1q-5 0 -8 2q-18 9 -14 64q3 42 18 100.5t37 121.5q-25 -19 -54 -37t-51 -22q-17 -3 -32 -1q-3 -22 -8.5 -45t-13 -44t-17 -37.5t-19.5 -25.5l-5 -4q-17 -12 -27 -12q-3 0 -9 2
q-20 10 -15 63q2 30 12 71t25.5 85t36.5 88.5t44.5 81.5t50 63.5t54.5 35.5q24 6 31 -3q10 -10 -3 -38q-9 -21 -28.5 -49t-43 -55t-47 -49t-40.5 -32q10 -5 17 -22q5 -12 6 -28.5t0 -35.5q14 -2 29 1q12 2 26.5 9t29.5 16.5t30 20.5t28 21q6 17 13 33.5t14 33.5q12 28 30 64
t40 69.5t46.5 59.5t50.5 34zM415 572q9 20 8.5 27t-1.5 9q-2 2 -6 2q-2 0 -12 -2q-18 -9 -38 -33t-39.5 -57t-38 -74t-35.5 -84q18 15 41.5 41t47 56t43 60.5t30.5 54.5zM188 38q11 9 21.5 32t19.5 52.5t15.5 62.5t8.5 63q-11 4 -17.5 9.5t-11.5 11.5l-2 4q-13 -39 -23 -75
t-17.5 -67t-11 -55t-2.5 -37l3 -12q3 2 7.5 4t9.5 7zM176 557q-20 -10 -38.5 -30.5t-36.5 -48t-34 -60.5t-30 -68q15 9 37.5 30t45 47.5t42.5 54t29 48.5q7 15 6.5 20.5t-1.5 7.5q-2 2 -6 2q-7 0 -14 -3zM-2 101q10 8 19 24t16.5 36t12.5 42.5t7 43.5q-12 3 -20 9.5
t-13 12.5l-7 14q-17 -51 -26.5 -95t-9.5 -70q1 -15 3.5 -19t3.5 -5q5 -2 14 7zM54 257q1 17 0 32t-5 26q-6 17 -18 20q-4 -9 -7 -18l-6 -18q2 -6 4 -12.5t6 -11.5q11 -13 26 -18zM242 329q-5 -11 -8.5 -21.5t-7.5 -21.5l6 -11q10 -12 22 -16q2 36 -6 59z" />
    <glyph glyph-name="l_l" unicode="ll" horiz-adv-x="459" 
d="M492 706q9 -2 17 -10t6 -30q-3 -29 -25 -73t-56 -95t-77 -104.5t-89 -101.5q-9 -39 -15 -75.5t-8 -66.5t0 -52.5t8 -34.5q3 -6 8 -8h5q11 0 36.5 28t56.5 69.5t63.5 89.5t57.5 88q4 4 7 1q4 -1 2 -7q-5 -7 -20 -30t-36 -54t-45.5 -65t-47.5 -62.5t-42.5 -47.5t-30.5 -20
h-2q-4 0 -6 1q-16 2 -27 23q-12 25 -12 73.5t10 109.5q-56 -55 -107 -90t-84 -35h-2q-6 0 -8 1q-20 5 -31 28q-9 20 -11 52.5t2 72t14.5 83t26 85.5t35.5 80t44 66q59 66 117 50q27 -8 32 -35q3 -24 -14 -59t-48.5 -73.5t-74.5 -77t-92 -69.5q-14 -62 -16.5 -112t8.5 -72
q4 -6 11 -10h6q16 0 38 10t47 27.5t53 42t57 53.5q9 49 23 101t33 101.5t41.5 93.5t47.5 77q58 75 113 63h1zM505 667q2 17 -4 22.5t-11 6.5q-38 9 -84 -53q-20 -27 -39 -65t-36.5 -81.5t-32 -90.5t-25.5 -93q43 47 83.5 98.5t72.5 99.5t52.5 89t23.5 67zM223 635
q-45 9 -93 -56q-32 -44 -57 -107t-41 -127q49 33 90 70.5t70 74t44 68t12 51.5t-25 26z" />
    <glyph glyph-name="o_o" unicode="oo" horiz-adv-x="418" 
d="M216 163q-1 0 -1.5 -0.5t-1.5 -0.5q-22 0 -27 54q-2 21 0.5 48.5t8.5 54.5q-17 -13 -32 -17.5t-27.5 -4.5t-22 3.5t-16.5 7.5q-6 -21 -14.5 -40.5t-17.5 -35.5t-18 -25.5t-18 -9.5h-3q-25 5 -30 57q-2 16 0 35t9 36.5t19 30.5t30 18q-2 8 -1.5 14t2.5 12q6 24 32 24
q5 0 10 -2t9 -10t4 -27q0 -28 -11 -67q1 0 3 -2q22 -14 47 -9t51 28q8 26 21.5 46t33.5 25q0 8 0.5 14.5t2.5 12.5q8 23 30 23q4 0 9 -2t8 -10q4 -8 4 -27q0 -16 -3.5 -37.5t-9.5 -45.5q10 -11 19 -18q9 -6 21.5 -10.5t27.5 -4.5t32.5 6.5t38.5 22.5q4 2 7 -1q4 -4 -1 -7
q-24 -18 -44 -24.5t-36.5 -6t-29.5 5.5t-21 11q-9 6 -17 14q-7 -28 -16.5 -55.5t-20 -50t-21 -37.5t-19.5 -16zM222 316q-6 -24 -9.5 -48.5t-4 -45t1 -34t4.5 -15.5q6 0 15 14t19 36.5t20 50.5t17 57q-17 23 -25 50q-22 -7 -38 -65zM29 207q6 0 14 9t16 24t15.5 34.5
t13.5 39.5q-9 8 -15 16.5t-11 18.5q-12 -2 -20.5 -12.5t-13.5 -25.5t-7 -33t-1 -33q1 -22 4.5 -30t4.5 -8zM267 430q-4 -14 -1 -26v-2q2 -14 7.5 -29t15.5 -29q5 20 7.5 39t2.5 34t-3 23q-2 5 -4 5.5t-4 0.5q-15 0 -21 -16zM91 325q9 33 9 60q0 14 -3 22q-4 7 -10 7
q-17 0 -23 -17q-2 -5 -1.5 -11.5t1.5 -13.5l1 -1q5 -25 26 -46z" />
    <glyph glyph-name="p_p" unicode="pp" horiz-adv-x="613" 
d="M636 331q4 -2 2 -6q-27 -45 -53 -75t-50.5 -49.5t-47.5 -29.5t-43 -15q-12 -15 -24 -28.5t-23 -24.5q-30 -25 -46 -25q-4 0 -8 2h-4q-4 0 -6 2q-10 6 -4 40q5 22 22.5 27.5t41.5 8.5q3 0 6.5 0.5t7.5 0.5q15 21 29.5 45t25 45.5t15.5 39.5t2 27q-2 4 -5 5q-2 1 -5 1
q-11 0 -30.5 -21.5t-47.5 -54.5q-13 -16 -28 -33t-32 -37l-2 -1q-5 -37 -11 -68.5t-14 -60.5q35 1 71 -0.5t71 -3.5q4 0 4 -5t-5 -5q-40 3 -76 4t-68 1q-22 -76 -51 -123t-61 -73t-63.5 -35t-57.5 -9q-3 0 -3 3q-14 -3 -25 -3q-31 0 -59 13q-32 16 -46.5 44t-6.5 58
q8 26 28 46.5t50 35.5q-26 7 -48 12q-2 -5 -5 -10.5t-6 -10.5q-77 -138 -187 -140h-5q-19 0 -36 10q-24 14 -31 42.5t7 57.5q19 38 76.5 59.5t158.5 6.5q26 48 41 94t22 86t9 71t2 48v4q2 12 14 12q5 0 7 -3t4 -5q0 -2 1 -2q6 -11 3 -53t-16 -99q13 21 30 44.5t34 43
t32 32.5t23 13q2 0 3.5 -0.5t3.5 -0.5q16 -2 23.5 -9.5t10.5 -15.5q7 -20 -1 -46t-23 -52q16 3 34.5 10.5t39 24t43.5 43t47 67.5q3 8 12 8q6 0 10 -4q3 -3 3 -9v-4q-2 -35 -4.5 -66.5t-5.5 -60.5l51 60q32 39 52 59.5t34 20.5q4 0 5 -1q14 -2 21 -8.5t9 -13.5
q4 -12 1.5 -28t-10 -35t-18.5 -38.5t-24 -38.5q19 6 40 16.5t43 29t45.5 46.5t47.5 69q4 4 7 1zM20 1q49 21 114 32t139 13q14 40 22.5 79t13 73.5t6 62.5t1.5 46q-25 -40 -48.5 -65.5t-45 -40.5t-41 -21.5t-35.5 -7.5q-9 -14 -19 -26t-19 -20q-21 -18 -35 -18q-5 0 -8 2
q-17 8 -14 45v3q6 21 20.5 24t32.5 1q3 -1 10 -1q19 28 31 59t6 47q-2 7 -11 8q-1 0 -2 0.5t-2 0.5q-7 0 -26.5 -19.5t-40.5 -46.5t-39.5 -55t-24.5 -46v-1q0 -2 -0.5 -2.5t-0.5 -1.5l-1 -1q-8 -28 -18 -55.5t-22 -53.5zM-14 -181q19 -9 43.5 -11t52.5 6t57 29t56 58
q25 32 43 66t31 69q-78 -2 -135.5 -12.5t-98.5 -27.5q45 -14 96 -33q5 -3 2 -6q0 -5 -6 -3q-60 23 -106 36q-37 -17 -57 -38t-26 -43q-8 -26 5.5 -51t42.5 -39zM-239 -145q23 2 53.5 22t64.5 65q14 17 25 35t21 35q-19 2 -35.5 3.5t-31.5 1.5q-42 0 -70 -8.5t-46 -19.5
t-26.5 -22t-11.5 -17q-12 -24 -6.5 -49t26.5 -38q14 -8 33 -8h4zM344 91q2 2 4.5 3t5.5 4q9 8 21 20.5t24 29.5h-5q-26 -3 -38.5 -7.5t-16.5 -20.5q0 -23 5 -29zM85 145q6 5 11.5 12t11.5 15q-2 0 -2.5 0.5t-2.5 0.5q-5 0 -9.5 0.5t-8.5 0.5q-11 0 -16.5 -4t-7.5 -15v-5
q0 -14 4 -16q7 -2 20 11z" />
    <glyph glyph-name="r_r" unicode="rr" horiz-adv-x="369" 
d="M386 330q3 5 7 1q3 -4 0 -7q-1 -1 -13 -14t-31 -32t-42 -41.5t-45.5 -41.5t-41.5 -32t-29 -13q-3 0 -4 1q-1 -1 -4 -1q-8 0 -13 8q-6 10 -0.5 33t15 48.5t20.5 48.5t17 34q-7 1 -13.5 1.5t-14.5 0.5q-9 -10 -33 -33t-52.5 -47t-55.5 -42t-41 -18h-3q-1 0 -1.5 -0.5
t-1.5 -0.5q-14 2 -19 14q-6 11 -2.5 29.5t10.5 37t15 35t13 24.5q-5 0 -10.5 0.5t-10.5 0.5q-17 0 -31 2t-19 13q-8 16 17 49q5 8 18 21t27.5 25.5t28 21.5t20.5 8q3 0 6 -3l1 -1q0 -1 1 -1q1 -2 1 -6.5t-6 -17.5t-21 -37t-44 -64h1q17 -1 32 -3t21 -13q9 -17 -13 -52
q-15 -24 -22 -38.5t-9 -22t-1 -9.5l1 -2q4 -4 23.5 7.5t45 31.5t53 44.5t48.5 47.5q-20 0 -37 3t-23 14q-8 17 14 47q13 19 32.5 39.5t39.5 37t38 27t29 9.5q8 -2 11 -8q1 -2 1.5 -8.5t-6.5 -23.5t-25.5 -47.5t-54.5 -80.5q17 -1 32 -4.5t20 -14.5q10 -15 -10 -49
q-23 -37 -33.5 -57.5t-14.5 -31.5q-4 -12 -3 -17q4 -3 21.5 8.5t44 34.5t60 55.5t69.5 71.5zM188 334q34 47 52.5 76.5t26.5 46.5t9 24t0 9l-3 2h-2v-1q-14 -11 -35.5 -30.5t-41 -42t-31.5 -44.5t-7 -38l29 -2h3zM60 447q-9 -7 -23 -20t-26.5 -28.5t-19.5 -32.5t-2 -32
q38 53 53 78t18 35z" />
    <glyph glyph-name="s_s" unicode="ss" horiz-adv-x="521" 
d="M544 331q4 -4 1 -7q-48 -63 -90 -97.5t-80 -56.5q16 -39 18.5 -72.5t-23.5 -56.5q-35 -30 -65.5 -46t-54.5 -16q-5 0 -10.5 1t-10.5 3q-24 10 -27 35q-2 19 11.5 46.5t51.5 54.5q15 11 30.5 19.5t32.5 17.5q4 2 5 2l-8 16q-16 31 -31.5 64t-25.5 66q-45 -52 -84.5 -75
t-76.5 -35q14 -32 16.5 -60.5t-23.5 -51.5q-34 -30 -64.5 -46t-54.5 -16q-6 0 -11 1t-10 3q-24 10 -27 35q-2 19 11.5 46.5t51.5 54.5q15 11 31 17.5t33 11.5q0 2 -1 3q-17 27 -33 56.5t-22.5 59.5t0.5 60.5t37 58.5q18 18 30 13q8 -2 11 -18q1 -9 -1.5 -22.5t-8.5 -27.5
t-15 -26.5t-21 -21.5q8 -18 18 -36.5t21 -37.5q8 -12 14.5 -24t12.5 -23q37 12 77.5 35.5t85.5 77.5q-8 38 -2.5 74t36.5 65q36 41 53 36q3 -2 6 -5t5 -11q1 -12 -3.5 -32.5t-13.5 -42t-20.5 -41.5t-23.5 -31q8 -21 18.5 -42.5t21.5 -44.5l29 -62q37 22 78 55.5t88 95.5
q4 4 7 1zM362 48q11 14 1.5 40.5t-26.5 61.5l-4 -3q-17 -9 -32.5 -17.5t-29.5 -18.5q-36 -25 -48.5 -50.5t-10.5 -41.5q3 -20 21 -27q22 -8 56.5 6.5t72.5 49.5zM93 89q11 15 1 39t-28 53q-17 -6 -33.5 -12.5t-30.5 -16.5q-36 -25 -48.5 -50t-10.5 -42q1 -19 21 -27
q22 -8 56 6.5t73 49.5zM307 448q-19 -21 -19 -49t11 -60q10 11 20.5 29.5t18.5 38t12 38t3 29.5q0 2 -1 4t-3 3h-1q-3 0 -12 -5t-29 -28zM48 420q-19 -18 -21 -40t6 -46q10 7 17.5 18.5t12.5 24t7.5 24.5t1.5 20q-2 9 -5 10h-1q-2 0 -6 -2t-12 -9z" />
    <glyph glyph-name="t_t" unicode="tt" horiz-adv-x="506" 
d="M514 494q-35 0 -73.5 6.5t-80.5 16.5q-12 -38 -24.5 -82.5t-24 -90t-20.5 -89t-13.5 -81t-2.5 -66t13 -42.5q7 -9 16 -10q2 -1 7 -1q11 0 36.5 28t56.5 69.5t63.5 89.5t57.5 88q4 4 7 1q4 -1 2 -7q-5 -7 -20 -30.5t-36 -54.5t-46 -65t-48 -63t-42.5 -47.5t-30.5 -18.5
q-42 0 -56 62q-7 35 -4 86t12 108q-17 -20 -43.5 -51t-54.5 -60t-53.5 -49.5t-38.5 -20.5q-43 2 -55 61q-7 33 -4.5 82t12 103.5t24 111t30.5 105.5q-51 8 -92 5t-67 -23q-3 -3 -7 1q-3 3 1 7q29 23 72 25.5t96 -5.5q19 56 37.5 93.5t32.5 43.5q8 5 15 -4v-4q-3 -13 -10 -36
t-17 -55l-15 -46q32 -7 65.5 -15.5t68.5 -17.5q15 -4 30.5 -7.5t31.5 -8.5q17 51 33.5 84.5t28.5 39.5q9 3 15 -4v-1l1 -1v-2q-3 -12 -9.5 -33.5t-15.5 -50.5l-13 -42q40 -9 78.5 -15.5t71.5 -6.5t60 7.5t46 24.5q4 2 7 -1q3 -4 0 -7q-20 -18 -48.5 -26t-62.5 -8zM73 130
q10 0 32.5 18.5t50 47t57 62t54.5 63.5q10 54 23.5 107t28.5 99q-16 4 -31 7.5t-30 8.5q-35 9 -69 17.5t-66 14.5q-18 -58 -37.5 -125t-32.5 -128.5t-15.5 -110t12.5 -69.5q5 -8 16 -11q2 0 3.5 -0.5t3.5 -0.5z" />
    <glyph glyph-name=".notdef" horiz-adv-x="300" 
 />
    <glyph glyph-name="NULL" horiz-adv-x="0" 
 />
    <glyph glyph-name="NULL" horiz-adv-x="0" 
 />
    <glyph glyph-name="nonmarkingreturn" unicode="&#xd;" horiz-adv-x="300" 
 />
    <glyph glyph-name="space" unicode=" " horiz-adv-x="300" 
 />
    <glyph glyph-name="h" unicode="h" horiz-adv-x="330" 
d="M353 331q5 -2 1 -6q-8 -12 -25.5 -39t-40 -60t-47.5 -68t-48 -64t-42 -47.5t-28 -18.5h-1q-6 0 -9 4q-9 13 2.5 62.5t33.5 124.5q9 29 16.5 56.5t8.5 36.5q-12 -2 -26.5 -19.5t-38.5 -49.5q-14 -19 -31.5 -42.5t-40.5 -52.5q0 -2 -3 -2q-2 0 -4 2q-19 20 -21.5 71
t8.5 115t33.5 132t54.5 124q76 134 163 116q33 -6 38 -37q5 -28 -15.5 -71t-57 -90.5t-86 -94.5t-101.5 -81q-9 -48 -9.5 -89.5t9.5 -67.5l55 74q28 38 43.5 56t32.5 18h1q10 -3 15 -11q6 -12 4 -34t-9.5 -49.5t-18 -58.5t-20.5 -59q-8 -21 -15 -42t-9 -30q8 3 23 18.5
t33.5 39t40 53t43.5 60.5t42.5 62t38.5 58q2 4 7 1zM267 696q-18 0 -35 -9t-32 -23t-28.5 -31.5t-23.5 -33.5q-35 -54 -60 -121.5t-39 -131.5q49 34 95.5 78.5t82 90t55 86.5t15.5 67q-5 24 -30 28z" />
    <glyph glyph-name="i" unicode="i" horiz-adv-x="163" 
d="M-19 145q-8 10 -0.5 39.5t21.5 74.5q6 19 11.5 38.5t5.5 25.5q-4 3 -3 5.5t5 3.5q8 2 12.5 -1.5t6.5 -5.5q5 -8 4 -22t-6 -32.5t-14 -40.5t-19 -45l-14 -33q8 3 27.5 19.5t45.5 41t56 55.5t60 63q3 3 7 0q3 -4 0 -7q-7 -8 -22.5 -24.5t-35 -37t-41.5 -42t-42 -39
t-35.5 -29t-22.5 -11.5h-1q-1 0 -5 2q0 1 -0.5 1t-0.5 1zM74 430q-6 0 -9 5q-5 7 -2 18q2 8 8 14t13 6q6 0 9 -5q5 -7 2 -18q-2 -8 -8 -14t-13 -6z" />
    <glyph glyph-name="j" unicode="j" horiz-adv-x="126" 
d="M147 42q6 0 4 -5q0 -5 -5 -5q-39 3 -75 4.5t-69 0.5q-22 -76 -51 -122.5t-60.5 -72.5t-63 -35t-57.5 -9h-29q-17 0 -31.5 3.5t-26.5 8.5q-32 16 -47 44t-7 58q9 34 40.5 58.5t78 40.5t104.5 24.5t122 10.5q15 42 23.5 83t12.5 76.5t5.5 63.5t1.5 45v10q2 13 13 13
q4 0 10 -4q4 -6 3 -10v-4q-4 -85 -14 -152t-24 -120q35 0 71 -1.5t71 -3.5zM-313 -181q19 -9 44 -11t52.5 6t56.5 29t57 58q25 32 43 66.5t31 69.5q-82 -3 -141.5 -14.5t-100 -29t-62.5 -39.5t-28 -45q-7 -26 6 -51t42 -39zM47 430q-7 0 -10 5q-5 7 -2 18q3 8 8.5 14t12.5 6
q6 0 9 -5q5 -7 2 -18q-2 -8 -8 -14t-12 -6z" />
    <glyph glyph-name="k" unicode="k" horiz-adv-x="299" 
d="M318 332q6 3 6.5 -2t-1.5 -7q-3 -2 -24.5 -19.5t-52.5 -37t-66 -35.5t-63 -16q-9 0 -18 3q-11 3 -21 11q-12 -22 -23 -43t-20 -41q-1 -2 -2.5 -3.5t-5.5 2.5q-19 20 -21 72t9 117t33.5 134.5t53.5 124.5q69 119 145 116h7l9 -2h1q33 -6 38 -37q5 -28 -15.5 -71t-57 -90.5
t-85.5 -94t-101 -80.5q-9 -49 -11.5 -89t3.5 -63q7 23 19.5 54.5t30.5 60.5t41.5 49.5t53.5 20.5q5 0 5 -5t-5 -5q-16 0 -40 -31.5t-50 -74.5q8 -8 19 -11q17 -5 39 0t45 15t45 23.5t39.5 25t28 20t11.5 8.5zM159 639q-20 -27 -37 -61.5t-31 -73t-25.5 -79t-19.5 -78.5
q49 34 95.5 78.5t81.5 90t54 86t15 66.5q-5 24 -30 28l-9 2h-5q-45 0 -89 -59z" />
    <glyph glyph-name="l" unicode="l" horiz-adv-x="226" 
d="M254 331q4 -1 2 -6q-4 -7 -19.5 -30.5t-36.5 -54.5t-45.5 -65t-47.5 -62.5t-42.5 -47.5t-30.5 -20h-2q-4 0 -6 1q-7 2 -14 7t-13 16q-11 22 -12 63t5.5 92.5t21 110t34 115t44.5 107t53 86.5q57 75 113 63h1q33 -6 38 -37q5 -27 -14.5 -69t-54.5 -88.5t-82.5 -92
t-98.5 -80.5q-12 -47 -21 -90.5t-12.5 -80.5t-2.5 -64.5t9 -40.5q5 -6 8 -8h5q11 0 36.5 28t56.5 69.5t63.5 89.5t57.5 88q4 4 7 1zM257 696q-39 9 -84 -53q-18 -24 -35 -57t-32.5 -70.5t-29.5 -79t-25 -82.5q48 34 92.5 78t78 88t51.5 83.5t14 64.5q-3 24 -30 28z" />
    <glyph glyph-name="m" unicode="m" horiz-adv-x="384" 
d="M406 331q6 -2 2 -6q-8 -13 -25 -39.5t-38.5 -59t-45.5 -67.5t-46.5 -64t-41 -47.5t-28.5 -19.5h-1q-5 0 -8 4q-5 6 -1.5 25.5t12.5 50t23 70t31 86.5q7 18 13.5 36.5t12.5 34.5t9.5 28t4.5 18q-13 -4 -34 -29.5t-43 -57.5t-42 -64.5t-31 -50.5h-1v-1h-1v-1h-4l-6 3
q-7 8 -3.5 36.5t11.5 78.5q3 20 6.5 42t6 41t2 32.5t-4.5 18.5l-1 1q-4 -3 -14 -18.5t-24 -39.5t-30.5 -54.5t-33.5 -62.5l-7 -26q-5 -18 -11 -34t-13 -27q-14 -26 -28 -26h-5q0 1 -1 1l-1 1v1q-1 0 -1 1v3q3 11 8.5 27t11.5 34q5 14 11.5 32t11.5 34.5t8.5 29t2.5 17.5
q-5 0 -5 5t11 3q8 -5 10.5 -17.5t0.5 -28.5q15 29 29.5 55t27.5 47t23 34.5t16 18.5q16 3 25 -6t10.5 -28.5t-1.5 -46t-10 -58t-16 -65.5l-7 -32q62 100 97 144t53 44q6 0 11 -6q6 -9 2 -33.5t-15 -59.5t-27.5 -80t-35.5 -94q-10 -25 -18.5 -47t-11.5 -33q12 7 37.5 38.5
t56 74t62 90.5t56.5 88q2 5 6 1z" />
    <glyph glyph-name="n" unicode="n" horiz-adv-x="239" 
d="M262 332q4 -4 1 -7q-4 -8 -19 -33t-35.5 -58t-44.5 -69t-46.5 -66.5t-41.5 -50.5t-30 -20h-1q-7 0 -10 5q-11 15 7 69.5t50 140.5q8 21 16.5 43.5t15 42t10.5 33.5t3 19q-6 -3 -24.5 -25t-43.5 -55.5t-54 -74t-57 -81.5l-2 -2h-5v1h-1l-1 1v5l35 76q7 15 14.5 31
t13.5 29.5t9 23t2 12.5q-5 0 -4.5 5t5.5 5q8 -1 12 -4.5t6 -7.5q7 -14 -10 -53q17 23 33.5 44.5t30.5 38.5t24.5 28.5t16.5 13.5h1q11 0 16 -8q7 -10 4 -31t-12.5 -51.5t-24 -69t-32.5 -81.5q-8 -18 -15.5 -36t-13.5 -33.5t-9.5 -27t-3.5 -16.5q12 3 37 33t55 74t61 93.5
t55 91.5q2 4 7 2z" />
    <glyph glyph-name="o" unicode="o" horiz-adv-x="228" 
d="M23 163q-22 0 -27 53q-2 23 1 53.5t11 59t22 50.5t35 28q0 7 0.5 13.5t2.5 12.5q8 23 30 23q5 0 9.5 -2t7.5 -10q4 -8 4 -27q0 -15 -3.5 -37t-9.5 -46l9.5 -9.5t9.5 -8.5q9 -6 21 -10.5t27 -4.5t33 6.5t39 22.5q3 3 7 -1q3 -3 -1 -7q-24 -18 -44 -24.5t-36.5 -6
t-29.5 5.5t-21 11q-10 7 -17 15q-7 -28 -16.5 -56t-20 -50.5t-21.5 -37.5t-20 -16h-2zM70 381q-23 -8 -38 -65q-7 -24 -10 -48.5t-3.5 -44.5t1 -33.5t4.5 -16.5q6 0 15 14.5t19 37t20 50.5t17 57q-17 22 -25 49zM77 430q-2 -6 -2.5 -12t1.5 -14v-2q2 -14 7.5 -29t15.5 -29
q5 20 7.5 39t2.5 34t-3 23q-4 7 -8 7q-15 0 -21 -17z" />
    <glyph glyph-name="p" unicode="p" horiz-adv-x="308" 
d="M331 332q4 -4 2 -7q-27 -45 -53 -75t-51 -49.5t-48 -29.5t-43 -15q-11 -15 -23 -28.5t-24 -23.5q-26 -25 -45 -25q-2 0 -9 1t-9 2q-11 6 -4 40q5 23 22.5 28t40.5 8q5 0 15 2q15 21 29.5 44.5t25 45.5t15.5 39.5t2 26.5q-2 4 -6 5q-1 1 -4 1q-11 0 -31 -21.5t-48 -54.5
q-13 -15 -27.5 -32.5t-31.5 -36.5l-2 -2q-5 -36 -11 -68t-14 -60q35 0 70.5 -1.5t70.5 -3.5q5 0 5 -5t-5 -5q-40 3 -76 4.5t-68 0.5q-22 -76 -51.5 -122.5t-61 -72.5t-63 -35t-57.5 -9h-28q-17 0 -31.5 3.5t-27.5 8.5q-32 16 -46.5 44t-6.5 58q9 34 40 58.5t77.5 40.5
t105 24.5t122.5 10.5q15 42 23 83t12 76.5t5.5 63.5t1.5 45l1 10q0 13 13 13q5 0 9 -4t4 -10v-4q-2 -35 -4.5 -66.5t-6.5 -60.5q15 17 28 32t24 29q32 38 52 58.5t34 20.5h5q14 -2 21 -9t9 -13q4 -12 1.5 -28.5t-10 -35.5t-19 -38.5t-24.5 -38.5q19 6 40 16.5t43.5 29
t46 46.5t47.5 69q2 4 7 2zM-319 -181q19 -9 43.5 -11t52 6t56.5 29t57 58q25 32 43 66.5t31 69.5q-82 -3 -141.5 -14.5t-99.5 -29t-62 -39.5t-28 -45q-8 -26 5.5 -51t42.5 -39zM48 98q19 15 46 51q-2 -1 -6 -1q-25 -3 -37.5 -7t-16.5 -21q-2 -21 5 -28z" />
    <glyph glyph-name="q" unicode="q" horiz-adv-x="273" 
d="M296 331q4 -4 1 -7q-5 -7 -19 -27.5t-34 -48.5t-44 -60.5t-48 -61.5t-46.5 -52.5t-39.5 -34.5q0 -2 -2 -8q15 -12 23.5 -28t12 -34.5t2 -37.5t-5.5 -37q-5 -16 -12.5 -29.5t-18.5 -13.5h-1q-18 1 -25 46q-24 109 52 312q11 31 22.5 58.5t22.5 50.5q-11 -15 -24 -30.5
t-26 -28t-26 -20.5t-25 -8q-20 0 -29 22q-8 20 -3.5 48.5t24.5 50.5q7 7 17.5 14t25.5 10.5t34.5 2.5t44.5 -8l9 -3l13 22l2 2h5v-1q1 0 3 -3q3 -6 -4.5 -28t-27.5 -75q-18 -47 -40 -108t-39 -124q19 15 47 46.5t58 70.5t60 81t54 79q1 3 7 1zM34 241q13 0 28.5 11.5
t31.5 29t31 38.5t27 39l-8 3q-32 8 -53 -1.5t-34 -23.5q-11 -12 -17.5 -25.5t-10.5 -26.5t-4 -24t3 -17l3 -3h3zM86 -103q3 11 4.5 27t0 33.5t-8.5 34t-20 28.5q-8 -33 -11.5 -64t-1.5 -57q3 -21 7.5 -29t8.5 -9q4 0 10 9.5t11 26.5z" />
    <glyph glyph-name="r" unicode="r" horiz-adv-x="201" 
d="M225 331q3 -4 0 -7q0 -1 -12.5 -14t-31.5 -32t-42 -41.5t-45.5 -41.5t-41.5 -32t-29 -13q-2 0 -2.5 0.5t-1.5 0.5q-1 -1 -4 -1q-8 0 -13 8q-6 11 -0.5 34t15 48t20.5 48t17 34q-8 2 -18 2t-20 1q-23 0 -29 10.5t-1 21.5t17 17.5t25 -2.5q5 -3 10 -13t-6 -25
q17 -1 32 -4.5t20 -14.5q9 -17 -11 -49q-23 -37 -33.5 -57.5t-14.5 -31.5q-4 -12 -2 -17q4 -3 21.5 8.5t44 35t60 56t69.5 71.5q2 5 7 0zM20 365q-9 3 -15 -1t-7 -10.5t4 -12.5t18 -7q7 9 8 15t-0.5 9t-4 4.5t-3.5 2.5z" />
    <glyph glyph-name="s" unicode="s" horiz-adv-x="252" 
d="M276 324q-48 -63 -90 -97.5t-80 -56.5q16 -39 18 -72.5t-23 -56.5q-35 -30 -65.5 -46t-54.5 -16q-5 0 -10.5 1t-10.5 3q-22 9 -27 35q-2 19 11.5 46.5t51.5 54.5q15 11 30.5 19.5t32.5 17.5l5 3l-8 15q-18 34 -35.5 72t-25.5 75t-1.5 71.5t36.5 62.5q36 41 53 36
q3 -1 6.5 -4.5t4.5 -11.5q2 -12 -3 -32.5t-14 -42t-20.5 -41.5t-23.5 -31q8 -21 18 -42.5t21 -43.5l30 -63q37 22 78 55.5t88 95.5q4 4 7 1q4 -4 1 -7zM93 49q11 14 1.5 40t-26.5 61l-4 -3q-17 -9 -32.5 -17.5t-29.5 -18.5q-36 -25 -48.5 -50t-10.5 -42q3 -20 21 -27
q22 -8 56.5 7t72.5 50zM38 448q-19 -21 -19 -49t11 -60q10 11 20.5 29.5t18.5 38t12 38t3 29.5q0 2 -1 4.5t-3 2.5h-1q-3 0 -12 -5t-29 -28z" />
    <glyph glyph-name="t" unicode="t" horiz-adv-x="243" 
d="M269 331q5 -2 1 -6q-5 -7 -20 -30.5t-36 -55t-45.5 -65.5t-47.5 -63t-42.5 -47.5t-30.5 -18.5h-1q-43 0 -55 62q-8 39 -4 98.5t16 125t30 129t36 111.5q-35 8 -68 13t-62 5.5t-53 -5.5t-41 -19q-4 -4 -7 1q-4 3 0 7q38 29 99 26.5t136 -19.5q13 33 25 54t21 26
q10 3 15 -4l1 -1v-3q-3 -12 -9 -32.5t-15 -48.5l73 -19q54 -14 107 -27t100.5 -18t86.5 0.5t64 28.5q4 2 7 -1q3 -4 0 -7q-20 -18 -48.5 -25.5t-63.5 -7.5q-55 0 -121.5 15t-134.5 33l-72 19q-11 -36 -25 -82.5t-27.5 -96.5t-24.5 -99.5t-17 -92.5t-5 -75.5t13 -48.5
q6 -9 16 -11q3 -1 8 -1q7 0 21 13t32 34.5t39 50t42.5 59t42 61t37.5 57.5q2 4 7 1z" />
    <glyph glyph-name="u" unicode="u" horiz-adv-x="237" 
d="M259 332q5 -4 2 -7q-4 -8 -18.5 -32.5t-34.5 -57t-43.5 -68.5t-45.5 -66.5t-40.5 -50t-29.5 -19.5q-6 0 -9 5q-3 3 -4.5 11t1 25.5t9.5 47t22 76.5l26 82q-14 -25 -28 -48t-26 -41.5t-21.5 -30.5t-15.5 -15h-3q-6 0 -11 5q-8 11 -3 40.5t16 71.5q5 17 10 37t3 26
q-1 0 -2 1q-2 2 -0.5 4.5t4.5 3.5q13 0 17 -8q6 -8 6 -22t-3.5 -31t-9 -36t-11.5 -37q-4 -12 -7 -23.5t-5 -18.5q6 6 17.5 23t26.5 40.5t31.5 51.5t32.5 57q0 2 3 4h3q4 0 7 -3q8 -11 -5 -60.5t-39 -129.5q-5 -15 -9.5 -30t-8.5 -28t-6.5 -23.5t-3.5 -15.5q13 6 37 36.5
t52.5 73t57.5 90.5t52 88q4 4 7 2z" />
    <glyph glyph-name="v" unicode="v" horiz-adv-x="263" 
d="M280 330q3 3 7 -1t-1 -7q-38 -26 -75 -26t-66 14q-7 -27 -20 -56t-28 -53.5t-29.5 -40.5t-25.5 -17q-5 0 -8 3q-6 7 -5.5 26t2.5 51q1 14 2 29.5t1 29t-1.5 24t-5.5 14.5q-2 2 -5 2q-5 2 -4.5 6t8.5 4q13 0 23 -12q9 -12 11.5 -31.5t1 -42t-5.5 -44t-7 -36.5q0 -5 -2 -11
q9 5 23 23t30 48q11 19 20.5 42t15.5 46q-5 3 -9 5.5t-9 6.5q-20 14 -29.5 30.5t-5.5 27.5q2 6 8 11t21 5q39 0 39 -48q0 -16 -4 -32q28 -14 63 -14.5t70 24.5zM138 324q3 15 3 28q0 38 -29 38q-6 0 -11.5 -2t-7.5 -7q-2 -7 5 -20t26 -27q3 -3 6.5 -5.5t7.5 -4.5z" />
    <glyph glyph-name="w" unicode="w" horiz-adv-x="337" 
d="M362 329q3 -5 -1 -7q-35 -24 -69 -26t-63 9q-2 -37 -12 -85t-23.5 -90.5t-29 -72t-28.5 -29.5q-6 0 -11 5q-8 9 -15 32t-11.5 53t-7 64t-1.5 65q-9 -20 -22.5 -46.5t-28 -50.5t-29 -41t-26.5 -17h-1q-8 0 -10 5q-8 11 0 38t25 71q6 17 12.5 35t11 33.5t6 28t-1.5 17.5
q-2 2 -5 2h-1q-3 0 -4 5t5 5q19 0 27 -11q7 -11 5.5 -30.5t-8.5 -42.5t-17.5 -48t-19.5 -47q-7 -14 -13 -29t-8 -21q10 3 23.5 21.5t28 44t28.5 54.5t25 53v1q2 2 5.5 6t8.5 3q8 -2 10.5 -25.5t3.5 -80.5q1 -20 2 -43t2.5 -43.5t4.5 -36t8 -19.5q8 2 21.5 29t26.5 67t23 87
t12 89q-8 3 -14.5 7t-12.5 9q-20 14 -29.5 30.5t-5.5 27.5q2 6 8 11t21 5q21 0 34 -24q9 -20 9 -56v-4q27 -11 59.5 -10t65.5 24q3 3 7 -1zM199 334q7 -6 21 -13q0 32 -8 51q-9 18 -25 18q-6 0 -11.5 -2t-7.5 -7q-3 -7 4.5 -20t26.5 -27z" />
    <glyph glyph-name="x" unicode="x" horiz-adv-x="298" 
d="M322 325q-5 -8 -21 -33t-38 -58t-48 -69t-50 -66.5t-44 -50.5t-31 -20h-1q-20 0 -31.5 18t-17.5 45.5t-7.5 61.5t-2.5 67q-14 -23 -28.5 -43t-29.5 -35.5t-31 -24.5t-34 -9q-5 0 -5 5t5 5q17 0 33 10.5t31.5 27.5t30 38.5t28.5 44.5q0 13 -1 27.5t-2 26.5t-2.5 20t-3.5 9
q-2 2 -3.5 5t3.5 5q9 1 16 -4q13 -12 18 -45q13 22 26 41.5t25.5 34.5t25.5 24t26 9q5 0 5 -5t-5 -5q-12 0 -24 -9.5t-25 -25.5t-26 -37t-26 -43q2 -19 3 -40t2 -44q0 -25 1 -50t4 -46t8.5 -34.5t14.5 -14.5q11 0 37.5 30t59 74t66.5 95t61 93q3 5 7 1q5 -2 1 -6z" />
    <glyph glyph-name="y" unicode="y" horiz-adv-x="182" 
d="M235 37q-2 -5 -6 -5q-39 3 -75 4.5t-69 0.5q-22 -76 -51 -122.5t-60.5 -72.5t-63 -35t-57.5 -9h-29q-17 0 -31.5 3.5t-26.5 8.5q-32 16 -46.5 44t-6.5 58q9 34 40 58.5t77.5 40.5t104.5 24.5t122 10.5q13 36 21 71t12.5 67t6.5 59.5t3 47.5q-9 -20 -20.5 -45.5
t-24.5 -48.5t-26 -39.5t-23 -18.5h-4q-6 0 -10 4l-3 2q-5 5 -1.5 26.5t14.5 66.5q3 12 6 25.5t5 25.5t3.5 21.5t0.5 12.5q-3 0 -3 4.5t6 4.5q16 0 22 -17q4 -14 0.5 -37.5t-10.5 -49t-15.5 -47.5t-14.5 -32h2q9 1 21 18.5t25.5 42.5t26.5 54t23 54v6q0 13 13 13q4 0 10 -4
q4 -6 3 -10v-4q-4 -85 -13.5 -152t-24.5 -120q35 0 71 -1.5t71 -3.5q5 0 5 -5zM-230 -181q19 -9 44 -11t52.5 6t56.5 29t57 58q25 32 43 66.5t31 69.5q-82 -3 -141.5 -14.5t-100 -29t-62.5 -39.5t-28 -45q-7 -26 6 -51t42 -39z" />
    <glyph glyph-name="z" unicode="z" horiz-adv-x="134" 
d="M183 42q5 0 5 -5t-6 -5q-44 3 -83 4.5t-74 0.5q-13 -46 -84 -142q-41 -54 -83.5 -75.5t-80.5 -21.5q-16 0 -30.5 3.5t-27.5 8.5q-32 16 -46.5 44t-6.5 58q9 33 37.5 56.5t72 39.5t98.5 25t116 12q1 5 1 9v9q0 21 -12 32q-15 13 -42 13q-8 0 -10 5q-5 9 9 28.5t43 55.5
q12 15 25.5 32t25 32.5t19.5 30t11 25.5q-8 2 -18.5 3t-20.5 1q-23 2 -42.5 5t-25.5 16q-9 16 13 48q13 18 32 38t38.5 36.5t37 27.5t28.5 11h2q6 0 10 -7q1 -3 1.5 -9.5t-6.5 -23.5t-25.5 -48.5t-54.5 -83.5q14 0 32 -2t26 -17q7 -16 -15 -46q-20 -28 -37 -48.5t-30 -35.5
q-19 -22 -29 -35t-8 -21q1 -8 22 -18q11 -5 22 -13.5t15 -23.5q1 -5 1.5 -11t-1.5 -14q39 1 78 0t78 -4zM-277 -181q14 -6 30.5 -9.5t35.5 -1.5q20 1 50.5 24t60.5 57t54.5 73.5t33.5 73.5q-77 -4 -133 -16t-94 -29t-59 -38.5t-27 -43.5q-7 -26 6 -51t42 -39zM17 332
q31 43 49 72t27 47t11 27t2 12q-15 -12 -36.5 -32t-41 -42.5t-30.5 -44.5t-5 -37v-1q6 0 12 -0.5t12 -0.5z" />
    <glyph glyph-name="d" unicode="d" horiz-adv-x="355" 
d="M381 331q4 -2 2 -6q-5 -7 -20.5 -30.5t-36.5 -55t-45.5 -65.5t-47.5 -63t-42.5 -47.5t-30.5 -18.5q-8 0 -17 4.5t-17 19.5q-14 29 -12 89t17 134q-11 -16 -26.5 -36t-32.5 -37.5t-34 -29.5t-32 -12h-2q-5 0 -11.5 5t-10.5 20t-3 36t7 42.5t17 39.5t28 27q15 9 41 6.5
t62 -38.5l3 4q10 45 24 90.5t31 88t37 79.5t42 66q58 75 115 63q33 -6 38 -37q4 -27 -15 -68.5t-53.5 -87.5t-81 -91.5t-97.5 -80.5q-17 -65 -26 -124t-9 -100q0 -30 5 -48q5 -14 13 -14q7 0 21 13t32 34.5t39 50t42.5 59t42 61t37.5 57.5q4 4 7 1zM384 696
q-31 0 -60.5 -29.5t-55.5 -77.5t-48.5 -109t-38.5 -124q47 34 91 78t77 87.5t51 82.5t14 64q-5 24 -30 28zM6 187q13 0 29.5 12t33.5 30t32.5 39t27.5 39q-38 37 -70 17q-15 -9 -27 -26.5t-19.5 -38t-10.5 -39t0 -28.5q1 -1 1.5 -3t2.5 -2z" />
    <glyph glyph-name="A" unicode="A" horiz-adv-x="465" 
d="M451 656q7 -11 6.5 -31.5t-7 -48.5t-18 -62.5t-24.5 -72.5q9 0 17.5 0.5t16.5 0.5q5 0 5 -6q0 -5 -5 -5h-37q-2 -5 -3.5 -9.5t-3.5 -9.5q-18 -49 -35 -99.5t-28 -95.5t-12.5 -80.5t11.5 -54.5q11 -17 38 -17q1 0 1 -1h2l1 -1q1 -1 1 -2v-3q0 -1 -1 -1v-1h-1l-1 -1h-2
q-42 0 -61 28q-16 23 -17 60.5t8.5 84t26 98.5t35.5 103q-25 -2 -50 -3.5t-51 -3.5q-6 0 -12 -0.5t-12 -1.5q-39 -54 -83 -111t-91 -111.5t-96.5 -103.5t-100 -85.5t-101.5 -58t-100 -21.5q-5 0 -5 5t5 5q72 0 146 45t146.5 115.5t140 155t126.5 164.5q-35 -2 -67.5 -4
t-60.5 -2q-40 0 -67 5.5t-35 19.5q-8 16 10 39q4 4 7 1q5 -3 1 -7q-14 -18 -9 -29q5 -10 26 -14t52.5 -4.5t70.5 1.5t80 5l41 57q63 85 98 130t54 50h2q6 0 8 -1q9 -1 14 -10zM262 432q26 2 52.5 3.5t52.5 3.5q5 13 9.5 25.5t9.5 24.5q10 29 20.5 57t17.5 51t10 39t0 20
l-1 1h-3q-9 -2 -23.5 -16.5t-33.5 -38.5t-42 -55.5t-48 -65.5l-36 -50q4 0 7.5 0.5t7.5 0.5z" />
    <glyph glyph-name="B" unicode="B" horiz-adv-x="527" 
d="M631 646q0 -23 -21.5 -54.5t-53.5 -62t-69 -55.5t-69 -35q52 -17 52 -83q0 -44 -22.5 -96t-60.5 -97q-45 -53 -97 -80.5t-106 -27.5q-20 0 -28 11q-9 9 -9 27q0 24 15.5 56.5t42.5 62t62.5 50t76.5 20.5q5 0 5 -5t-5 -5q-38 0 -71.5 -19.5t-59.5 -47.5t-41 -59t-15 -53
q0 -14 7 -21q6 -7 20 -7q34 0 65.5 15.5t59.5 41.5t51 58.5t40 67t26 67t9 57.5q0 31 -11 45q-12 16 -36 16q-5 0 -5 5t5 5q10 0 30 11.5t43.5 29.5t48 41.5t44.5 47t33 45.5t13 38q0 12 -8 18q-12 7 -31 7q-36 0 -69 -11t-63.5 -29t-57 -41t-48.5 -47q2 -8 2 -16v-17
q0 -46 -15.5 -100.5t-39.5 -101t-54 -78t-59 -31.5q-9 0 -14 8q-4 7 -4 19q0 19 10.5 51.5t30 72.5t47 84t61.5 85v8q0 51 -17 77q-19 29 -58 29q-33 0 -69 -24.5t-66 -59t-49 -72t-19 -64.5q0 -16 7 -23q9 -9 25 -9q5 0 5 -5t-5 -5q-22 0 -32 12q-10 10 -10 30q0 19 9 43.5
t25 50t36.5 50t44.5 43.5t49 31t49 12q58 0 87 -39q15 -20 21 -48q51 54 112 89t128 35q36 0 53 -11q17 -12 17 -33zM157 219q9 0 22 12.5t26.5 34.5t27 51t25 61.5t19 66.5t10.5 67l-15 -19q-29 -38 -51.5 -76.5t-38.5 -73t-24.5 -62.5t-8.5 -45q0 -8 2 -14q3 -3 6 -3z" />
    <glyph glyph-name="C" unicode="C" horiz-adv-x="246" 
d="M330 667q33 0 41 -24q5 -14 -2 -29.5t-24 -27.5q-26 -18 -47.5 -27t-40 -11.5t-35.5 -1t-32 4.5q-31 -40 -59.5 -88.5t-50.5 -97t-35 -94t-13 -79.5q0 -33 12 -49q13 -17 40 -17q24 0 46.5 15t42 37.5t35.5 48.5t28 48.5t18.5 37.5t6.5 16q2 5 7 3q4 -2 2 -6
q-1 -2 -8 -18.5t-19 -40t-28.5 -50.5t-37 -49.5t-44 -37.5t-49.5 -15q-41 0 -65 27q-19 23 -19 69q0 36 12.5 80.5t34 90.5t50 90.5t60.5 82.5q-23 2 -48 -5.5t-56 -35.5q-4 -4 -8 0q-2 4 1 7q36 32 64.5 39t54.5 5q41 45 84 73.5t81 28.5zM339 594q14 10 20 22.5t3 23.5
q-6 17 -32 17q-29 0 -63 -26.5t-69 -70.5q15 -2 30 -3.5t32 1.5t36.5 11t42.5 25z" />
    <glyph glyph-name="D" unicode="D" horiz-adv-x="537" 
d="M490 666q15 -10 21 -33.5t5.5 -55t-6.5 -67.5t-15 -71q-18 -65 -46.5 -127.5t-66.5 -114t-84.5 -86.5t-98.5 -43q-5 -1 -9.5 -1.5t-9.5 -0.5h-1q-23 0 -35 12q-11 11 -11 32q0 22 12.5 49t33 51t47 40.5t54.5 16.5q5 0 5 -5t-5 -5q-26 0 -50.5 -15.5t-43.5 -38t-31 -48
t-12 -45.5q0 -17 8 -25q9 -9 28 -9q7 0 17 2q30 6 61.5 31t62 61.5t58.5 82t50 92.5q25 53 42 103t24 91.5t4.5 72.5t-15.5 47q-18 22 -55 4q-28 -14 -60.5 -46t-63.5 -71q1 -5 1 -9.5v-9.5q0 -41 -11 -86.5t-31 -84.5q-21 -43 -46 -66.5t-50 -23.5q-13 0 -16 14
q-3 12 3.5 33.5t19.5 48.5t31 57t37 59q8 12 16 23.5t16 22.5v17q0 17 -2.5 35t-9 33t-18.5 24.5t-31 9.5q-34 0 -70 -24.5t-66 -59t-49 -72t-19 -64.5q0 -15 8 -23q7 -9 25 -9q5 0 5 -5t-5 -5q-22 0 -32 12q-10 10 -10 30q0 19 9 43.5t25 50t36.5 50t44.5 43.5t49 31t49 12
q37 0 60 -23.5t30 -68.5q34 42 65 70.5t56 40.5q27 14 42.5 8.5t23.5 -14.5zM167 276q16 0 35 24t36 66q13 32 22 68.5t12 69.5l-22 -32q-22 -32 -39.5 -62t-29 -55.5t-17 -44.5t-3.5 -28q0 -6 6 -6z" />
    <glyph glyph-name="E" unicode="E" horiz-adv-x="280" 
d="M301 332q4 0 4 -6q-11 -49 -32 -88t-49 -66.5t-60 -42t-65 -14.5q-50 0 -76 23q-23 21 -23 58q0 32 17 67.5t44.5 66t63 51.5t73.5 24q-46 62 -23 130l9 20q-2 0 -3 1q-35 2 -60 0t-38 -25q-4 -4 -7 -1q-4 1 -2 7q16 26 44.5 28.5t63.5 0.5q2 -1 8 -1q22 37 62.5 64
t91.5 38q26 6 42.5 2t21.5 -16q6 -14 -7.5 -32.5t-41.5 -34.5q-35 -21 -69.5 -27t-66.5 -5q-7 -11 -12.5 -23t-9.5 -24q-8 -22 -9 -50t19 -54q5 -5 1 -7q-2 -1 -4 -1q-29 0 -59 -21.5t-55.5 -54t-41.5 -69t-16 -66.5q0 -27 15 -42q15 -16 48 -16q34 0 61.5 15t49.5 37t38 48
t26.5 49t15.5 38t5 16q0 5 6 3zM346 657q-13 -3 -28 -11t-30.5 -20.5t-30.5 -28.5t-27 -34q29 0 60.5 6t63.5 25q28 17 38 32t7 23q-5 11 -28 11q-12 0 -25 -3z" />
    <glyph glyph-name="F" unicode="F" horiz-adv-x="487" 
d="M427 428q11 -8 9.5 -18.5t-10.5 -20.5t-22.5 -17.5t-25.5 -9.5q-8 -2 -9 -2q-14 -25 -11 -46q1 -4 -4 -6h-1q-3 0 -5 5q-2 10 0 21t7 22q-18 -3 -36.5 -6t-36.5 -4q-20 -52 -43.5 -101t-50 -87t-57 -61.5t-65.5 -23.5q-32 0 -49 15.5t-17 43.5q0 23 12 51t32 54
q23 27 47 42.5t47 15.5q2 0 3.5 -2t1.5 -4q0 -5 -5 -5q-22 0 -44.5 -15.5t-41 -38.5t-30 -49.5t-11.5 -48.5q0 -47 55 -47q26 0 50 22t46 59t42 83.5t39 96.5q-26 2 -37 9q-5 4 -2 7q3 5 8 2q3 -3 12.5 -4.5t23.5 -2.5l18 47q23 63 44.5 116t43.5 85h-14t-14 1
q-35 1 -67 1.5t-58.5 -2.5t-46 -10t-29.5 -22q-2 -3 -4 -3t-2.5 0.5t-1.5 0.5q-4 4 -2 8q11 16 32 24.5t48.5 12t61 2.5t70.5 -2q8 -1 17 -1h18q12 14 20 19q4 3 7.5 -1t0.5 -7q-5 -3 -8 -12q34 -1 68 0.5t66 6.5t60 16t51 29q3 3 8 -1q3 -4 -1 -8q-24 -19 -54 -30
t-63.5 -16.5t-69 -7t-71.5 -0.5q-11 -21 -23 -54.5t-25 -72.5q-10 -28 -20.5 -58t-22.5 -60q19 1 38.5 3.5t36.5 7.5q2 4 9 16.5t16 24.5t20 19t22 -1zM376 373q10 2 21 7t18.5 12t10 14t-4.5 13q-6 4 -12.5 -1t-13 -14t-12 -18t-7.5 -13z" />
    <glyph glyph-name="G" unicode="G" horiz-adv-x="294" 
d="M346 637q5 -15 -1.5 -29t-23.5 -22q-32 -17 -62 -18t-58 1q-40 -51 -79.5 -118t-65.5 -138q-14 -38 -18 -64.5t4 -37.5l5 -3q8 -2 12 -2q29 0 55.5 14.5t49.5 37.5q14 32 22.5 61.5t14.5 50.5l4 18q11 36 25.5 56.5t27.5 15.5h1q16 -6 8 -43q-6 -27 -23.5 -63.5
t-43.5 -69.5q-12 -34 -27.5 -66.5t-35.5 -58t-44.5 -41t-55.5 -15.5q-4 0 -5 5t4 5q40 7 69.5 42.5t49.5 80.5q-22 -18 -45.5 -28.5t-49.5 -11.5h-3q-7 0 -14 3q-11 3 -17 10q-10 12 -13 32q-3 27 9.5 68t34.5 86.5t51.5 92t61.5 84.5q-29 3 -55 -1.5t-50 -27.5q-4 -2 -7 1
q-4 3 0 7q28 26 57.5 30t61.5 1q33 38 64 61.5t57 23.5h1q17 0 30 -8t17 -22zM316 594q13 8 19 18.5t2 21.5q-8 23 -37 23q-15 -1 -39.5 -22.5t-52.5 -56.5q26 -2 52.5 0t55.5 16zM258 448q-6 -10 -13.5 -31t-15.5 -47l-16 -51q17 27 28.5 53.5t15.5 47.5q5 20 1 28z" />
    <glyph glyph-name="H" unicode="H" horiz-adv-x="442" 
d="M507 753q3 -3 2.5 -10t-6 -23t-17 -42.5t-30.5 -68.5q-17 -37 -36 -81t-40 -93q20 3 40.5 5t40.5 2q5 0 5 -6q0 -5 -5 -5q-22 0 -43.5 -2t-41.5 -5q-34 -82 -67 -174.5t-59 -191.5q0 -4 -5.5 -4t-3.5 7q30 168 104 356q-34 -8 -65 -18.5t-59 -21.5l-24 -68
q-14 -38 -25.5 -68.5t-14.5 -50.5q-1 -5 -5.5 -6t-4.5 7q0 27 11 72.5t28 98.5l-8 -3q-29 -12 -51 -20.5t-36 -8.5q-6 0 -14 4q-4 4 -1 7q4 4 7 2q8 -6 33.5 3t58.5 23l15 6l3 9q12 37 23.5 76t19 73t8.5 60.5t-8 39.5q-4 7 -14 9q-3 1 -9 1q-34 0 -70 -24.5t-65.5 -59
t-48.5 -72t-19 -64.5q0 -16 7 -23q7 -9 25 -9q5 0 5 -5t-5 -5q-22 0 -32 12q-10 10 -10 30q0 19 9 43.5t25 50t36.5 50t44.5 43.5t49 31t49 12h8q1 -1 3 -1q22 -4 34 -22q11 -17 12 -42.5t-4.5 -57.5t-16 -68t-23.5 -73q28 11 58.5 21t64.5 18q57 145 138 300l12 23q0 5 8 2
z" />
    <glyph glyph-name="I" unicode="I" horiz-adv-x="284" 
d="M255 634q16 -23 12.5 -67t-17.5 -98t-35 -113t-40 -111q-9 -24 -17 -46t-14 -41q24 7 47 10t41 -2q4 -1 4 -6q-1 -4 -6 -4q-19 5 -42 1.5t-48 -10.5l-8 -28q0 -5 -5 -5.5t-5 6.5v10.5t1 11.5l-32 -11q-23 -8 -38.5 -12.5t-25.5 -4.5q-5 0 -11 2q-4 4 -1 7q3 4 7 2
q5 -4 25 2t40 13q9 3 18.5 6.5t19.5 5.5q5 35 20 83t32 102q15 46 29.5 92.5t24 87.5t11 72t-8.5 45q-6 9 -20 9q-33 0 -69 -24.5t-66 -59t-49 -72t-19 -64.5q0 -16 7 -23q9 -9 25 -9q5 0 5 -5t-5 -5q-22 0 -32 12q-10 10 -10 30q0 19 9 43.5t25 50t36.5 50t44.5 43.5t49 31
t49 12q29 0 42 -19z" />
    <glyph glyph-name="J" unicode="J" horiz-adv-x="377" 
d="M378 685q7 -2 9 -9t3 -15q2 -25 -4.5 -73.5t-21.5 -108t-39 -123.5t-56.5 -119.5t-74 -95.5t-92.5 -52q-22 -7 -42 -7q-29 0 -44 16q-29 30 -6 104q13 43 36 81.5t50 68.5t54 49.5t50 24.5q4 1 6 -4q0 -4 -4 -6q-26 -5 -53.5 -27t-52.5 -53t-45.5 -67.5t-30.5 -69.5
q-22 -68 3 -94q22 -22 76 -7q47 13 84.5 55.5t67 100.5t51 124t36 125.5t22 105t10.5 63.5q-62 -29 -120 -36t-103 -8q-45 -2 -67 -6t-22 -24q0 -5 -5 -5t-5 5q0 13 7.5 21t20.5 12t31 5t40 2t49 2.5t56 6t60 13.5t62 25h1q1 0 1 1h1v-1h1v0z" />
    <glyph glyph-name="K" unicode="K" horiz-adv-x="444" 
d="M546 686q5 0 5 -5q2 -10 -16 -35t-47.5 -58.5t-68 -72t-78 -75t-77 -67.5t-65.5 -50q-2 -6 -4 -11q22 -1 48.5 -7t51.5 -19.5t47 -36t35 -56.5q2 -5 -3 -7h-2q-4 0 -5 3q-13 34 -34 56t-46 34.5t-50 17t-46 5.5q-10 -26 -19.5 -51.5t-19.5 -49.5q-18 -47 -32 -84.5
t-19 -57.5q-2 -5 -6.5 -6.5t-3.5 6.5q-1 15 4 40.5t14.5 57.5t22 68.5t25.5 75.5q-1 0 -2 -1q-16 -3 -18 3q0 4 4 6q4 1 19 3h1q18 51 34.5 102.5t28 95.5t14.5 77.5t-7 47.5q-5 7 -12 8h-6q-33 0 -69 -24.5t-66 -59t-49 -72t-19 -64.5q0 -15 8 -23q7 -9 24 -9q5 0 5 -5
t-5 -5q-22 0 -32 12t-10 30q0 19 9 43.5t25 50t36.5 50t44.5 43.5t49 31t49 12q28 0 40 -19q12 -18 12.5 -48.5t-7.5 -70t-22 -85t-31 -91.5q32 23 75 60t94 85q84 81 126.5 133t40.5 63q0 4 5 6z" />
    <glyph glyph-name="L" unicode="L" horiz-adv-x="463" 
d="M453 173q5 -2 3 -7q-2 -3 -6 -3q-33 13 -70.5 17.5t-76 2.5t-76.5 -10t-72 -19q-67 -99 -128 -99h-5q-18 2 -21 11q-4 10 11 25q14 13 43.5 30t70.5 33q3 5 6 9.5t5 9.5q22 39 41.5 84.5t35 92t26.5 91.5t15.5 83.5t3 66.5t-11.5 42q-9 13 -25 10q-32 -5 -68.5 -30.5
t-70.5 -65.5q-31 -37 -49 -73t-16 -58q1 -25 32 -25q5 0 5 -5t-5 -5q-39 0 -42 34q-2 26 17.5 64.5t51 75t70 64.5t73.5 34q2 1 7 1q28 1 45 -23q18 -27 17.5 -78.5t-15 -113.5t-39.5 -127t-56 -119l-15 -26q33 10 69.5 17.5t74 9.5t74.5 -3t71 -18zM29 65q39 3 88 75
q-34 -14 -59 -28.5t-39 -27.5q-11 -11 -9 -15q0 -4 13 -4q2 -1 3 -0.5t3 0.5z" />
    <glyph glyph-name="M" unicode="M" horiz-adv-x="446" 
d="M457 682q10 0 14 -7q13 -18 -2 -74t-45 -150q-17 -51 -34.5 -106.5t-29.5 -108t-16.5 -98.5t4.5 -77q-1 -5 -4.5 -5t-5.5 2q-18 40 -14.5 99.5t18.5 126t36.5 134.5t40.5 125q7 22 14.5 43t12.5 39t8 30.5t2 16.5q-8 -2 -28.5 -24.5t-48 -58.5t-59 -80.5t-61.5 -89.5
q-2 -48 -15.5 -86t-45.5 -55q-6 -5 -11.5 -7.5t-10.5 1.5q-5 3 -4.5 8t2.5 10q5 14 19.5 41.5t37.5 62.5q1 42 -4.5 87.5t-13.5 84.5q-15 -46 -42 -103.5t-57 -114t-58 -105.5l-44 -77l-2 -2l-4 2l-3 -4q-3 2 -2 4.5t2 4.5q33 55 65 113.5t60 113.5t49 103.5t32 84.5
q-6 29 -11 48t-7 24v3q0 2 2 4h2v1h1q11 1 17 -2.5t8 -8.5q8 -13 4 -36q5 -12 8 -23t5 -17q9 -34 14.5 -70.5t6.5 -71.5q28 42 59 86t58.5 79t49 57.5t30.5 22.5h1zM193 286q17 11 25.5 34.5t10.5 53.5q-28 -46 -37.5 -67.5t-9.5 -26.5q1 1 3.5 2t7.5 4z" />
    <glyph glyph-name="N" unicode="N" horiz-adv-x="458" 
d="M441 685q14 -3 21 -13q10 -14 9 -40t-8.5 -61t-20 -77.5t-27.5 -88.5q-15 -48 -30 -97.5t-25 -95t-13 -85t6 -66.5q2 -4 -1.5 -6t-7.5 2q-17 34 -16.5 82.5t11.5 104.5t28.5 115.5t34.5 113.5q11 34 21 67t16.5 59.5t8.5 45.5t-4 27q-2 2 -8 4h-1q-19 0 -49.5 -33.5
t-66 -84.5t-72 -112t-68.5 -118q-9 -22 -19 -43.5t-19.5 -39t-17 -29t-12.5 -13.5q-4 -4 -7 -1.5t1 8.5q11 27 26.5 66.5t31.5 84.5t31 90.5t24.5 84.5t12.5 67t-4 37q-4 4 -9 3q-36 -6 -73.5 -33.5t-67.5 -63t-49 -72t-17 -58.5q1 -25 31 -25q5 0 5 -5t-5 -5q-38 0 -41 34
q-2 27 18 65t52 75t70.5 64.5t74.5 33.5q32 6 40 -26q5 -20 1 -49.5t-12 -62t-18.5 -64t-19.5 -54.5q29 50 61.5 101.5t63 93t57.5 68t46 26.5q1 0 1 -1h5v0z" />
    <glyph glyph-name="O" unicode="O" 
d="M381 536q5 0 5 -5t-5 -5q-14 1 -26.5 -1t-25.5 -5q1 -9 1.5 -18.5t0.5 -19.5q0 -63 -18 -134t-52.5 -132t-85.5 -101t-117 -40q-2 -1 -5 -1q-8 0 -18 5q-13 6 -22 20q-13 24 -13 60q0 32 8.5 72t23.5 81t35 80.5t43 70.5t47 49.5t48 18.5h1q23 0 36 -16q6 -10 9 -20
q32 21 67 32q-5 39 -19.5 61t-37.5 22q-28 0 -61.5 -9t-66 -24.5t-59.5 -37t-42 -45.5q-24 -40 -4 -78q2 -5 -2 -7q-5 -2 -7 2q-23 42 5 88q15 25 43.5 47t62 38.5t68 25.5t63.5 9q26 0 43.5 -23t23.5 -66q13 3 26 5t27 1zM58 85q63 0 112 39t82.5 98.5t51 129t17.5 130.5
q0 9 -0.5 18t-1.5 17q-17 -5 -33.5 -13.5t-32.5 -19.5v-9q0 -26 -11 -58t-28 -60t-37.5 -47.5t-38.5 -19.5q-8 0 -12.5 3.5t-6.5 6.5q-12 23 20 79q18 29 44.5 58t58.5 52q-1 10 -8 20q-9 12 -29 12q-17 -5 -37.5 -30.5t-41.5 -63t-41 -83t-34 -89.5t-21 -82.5t-2 -61.5
q2 -9 5 -14.5t7 -8.5q7 -3 18 -3zM243 478q-30 -22 -54 -49.5t-41 -55.5q-14 -23 -19.5 -41.5t-0.5 -26.5q2 -5 10 -5q15 0 33.5 18t34.5 44t26.5 56.5t10.5 56.5v3z" />
    <glyph glyph-name="P" unicode="P" horiz-adv-x="514" 
d="M536 507q-36 -41 -78.5 -71t-86.5 -50t-85.5 -31t-74.5 -14q-7 -16 -11 -29q-15 -38 -27 -70t-16 -52q0 -5 -5 -4.5t-5 5.5q-2 24 8 63t24 86q-20 0 -32 3q-11 3 -14 7t-4 8q0 5 5 5q5 2 5 -4q1 -1 3 -2.5t7 -3.5q6 -2 14.5 -3t18.5 -1q3 9 6 17.5t5 17.5q12 37 24 76
t19.5 73t8.5 60.5t-8 39.5q-7 10 -23 10h-1q-33 0 -69 -24.5t-66 -59t-49 -72t-19 -64.5q0 -15 8 -23q7 -9 24 -9q5 0 5 -5t-5 -5q-22 0 -32 12t-10 30q0 19 9 43.5t25 50t36.5 50t44.5 43.5t49 31t49 12q34 0 50 -24q14 -22 12 -58t-13 -81q71 81 142.5 119t121.5 33
q38 -5 49 -31q8 -20 -2 -46.5t-37 -57.5zM255 467q-8 -28 -18.5 -57t-21.5 -58q30 4 67 15t75.5 30.5t75.5 48.5t68 68q23 29 31.5 56t-0.5 43q-10 19 -42 17q-45 -8 -107.5 -46t-127.5 -117z" />
    <glyph glyph-name="Q" unicode="Q" horiz-adv-x="329" 
d="M203 183q-35 -47 -70 -70q7 -19 14 -36t15 -33q1 -1 1 -3q26 -6 48.5 -4t36.5 24q1 4 7 2q4 -4 1 -7q-10 -17 -25 -23.5t-32 -6.5t-34.5 4.5t-34.5 9.5q-23 6 -39.5 9.5t-20.5 -7.5q-2 -4 -7 -2q-4 2 -2 6q6 16 26 13.5t45 -9.5l19 -6q-15 31 -27 63q-32 -19 -61 -14h-1
q-6 0 -12 2q-2 1 -4 1q0 1 -2 1q-43 15 -43 72q0 24 8 54.5t22 63.5t32.5 66t38.5 63q9 38 23.5 73.5t34.5 65.5q29 45 64 67t70 20q25 -1 37 -28q9 -19 9.5 -49.5t-6 -67.5t-18.5 -79t-29.5 -83.5t-38.5 -80.5t-45 -71zM130 122q19 14 35.5 31.5t29.5 35.5q23 31 43.5 69
t37.5 79t29.5 81.5t19 77t6 66t-8.5 47.5q-9 21 -29 23q-32 2 -64.5 -19.5t-60.5 -63.5q-34 -52 -51 -112q28 38 54 63t45 27q7 1 6 -3t-3 -6q-7 -4 -19.5 -18t-28.5 -36t-34 -49.5t-35 -57.5q-6 -60 2 -120t26 -115zM64 103q14 -2 28.5 2t28.5 12q-19 53 -26.5 107
t-4.5 108v5q-15 -29 -28.5 -57.5t-22.5 -54.5t-13 -49t0 -40q4 -22 22 -29l3 -2h1q6 -2 12 -2z" />
    <glyph glyph-name="R" unicode="R" horiz-adv-x="539" 
d="M526 622q38 -5 49 -31q8 -20 -2.5 -46.5t-36.5 -57.5q-37 -43 -82 -73.5t-90.5 -50.5t-88.5 -30.5t-76 -12.5q16 -13 30 -31t30 -38q30 -39 70.5 -83.5t104.5 -79.5q5 -2 2 -7q-2 -2 -4 -2h-2q-65 35 -106.5 80.5t-72.5 85.5q-14 20 -27.5 36t-27.5 29q-17 -43 -29 -79.5
t-10 -59.5q0 -5 -5 -5t-5 5q-2 24 8 63t24 86q-21 0 -33 3q-17 5 -17 15q0 5 4 5q4 1 6 -4q0 -3 9 -6q6 -2 14.5 -3t19.5 -1q2 9 5 17.5t6 17.5q12 37 23.5 76t19 73t8.5 60.5t-8 39.5q-7 10 -23 10q-34 0 -70 -24.5t-65.5 -59t-48.5 -72t-19 -64.5q0 -16 7 -23q7 -9 25 -9
q5 0 5 -5t-5 -5q-22 0 -32 12q-10 10 -10 30q0 19 9 43.5t25 50t36.5 50t44.5 43.5t49 31t49 12q37 0 52 -22q15 -23 10 -62.5t-22 -87.5q36 43 73.5 74t73.5 51.5t68 29t58 6.5zM204 331q30 3 68 13t78 29.5t79 49t71 70.5q1 0 1 1q23 30 31.5 56.5t-0.5 43.5
q-13 19 -44 16q-47 -9 -112.5 -50t-131.5 -126l-34 -86z" />
    <glyph glyph-name="S" unicode="S" horiz-adv-x="341" 
d="M208 379q31 -7 54 -17t31 -27q11 -21 -6 -47q-15 -26 -41 -50t-58 -44q-21 -16 -43 -29t-42.5 -22.5t-38 -14.5t-28.5 -5h-2q-4 0 -5 1q-4 -1 -7.5 -1h-5.5q-13 3 -15 11q-1 2 -1 6.5t6 13.5t19.5 23.5t39.5 36.5q3 3 7 -1q5 -2 0 -7q-19 -18 -29 -30.5t-14.5 -20.5
t-4.5 -12.5v-5.5q1 -3 6 -3q25 3 66.5 25t83.5 50q49 33 68 61.5t12.5 50.5t-38 37t-83.5 23q-23 4 -44 7.5t-38 8.5t-29 11.5t-16 16.5q-6 13 3 28q27 49 71.5 92.5t94 76.5t98 52.5t83.5 19.5h2q35 0 48.5 -22.5t8.5 -57.5q-2 -4 -6 -4q-5 2 -4 6q8 55 -27 65l-13 3
q-28 2 -69.5 -13.5t-86.5 -46.5q-54 -36 -96 -82.5t-64 -92.5q-6 -13 -1 -22q4 -7 13.5 -12.5t23 -9.5t29.5 -7.5t32 -6.5q14 -3 28 -5.5t28 -6.5z" />
    <glyph glyph-name="T" unicode="T" horiz-adv-x="352" 
d="M599 646q-9 10 -38 10.5t-69 -5t-87.5 -15.5t-95.5 -21q-3 -17 -10.5 -63t-20.5 -105t-32.5 -122.5t-45.5 -116.5t-59 -87.5t-74 -34.5q-5 0 -5 5t5 5q31 0 57.5 27t48 70.5t38 98.5t29 112t21.5 110t14 93l-13 -3q-75 -17 -136.5 -30t-95.5 -13q-17 0 -27 5q-4 2 -2 6
q3 5 7 3q9 -5 33.5 -3t59 8t76 15t83.5 19q58 13 114.5 25.5t104 19.5t81.5 6.5t46 -12.5q3 -4 0 -7q-4 -4 -7 0z" />
    <glyph glyph-name="U" unicode="U" horiz-adv-x="515" 
d="M581 654q-2 -3 -10 -19.5t-22 -42t-32.5 -58.5t-40.5 -70q-21 -45 -39 -94.5t-29.5 -101t-14 -102t9.5 -96.5q2 -5 -3.5 -5.5t-6.5 2.5q-25 60 -25 124t16 127q-28 -41 -57 -78t-56.5 -65t-52.5 -45t-46 -17h-6q-17 2 -24 13q-8 11 -6 30.5t10 45t20.5 56.5t26.5 64
q15 34 29.5 69t24 66.5t12 57t-6.5 39.5q-10 16 -38 16q-34 0 -70 -24.5t-65.5 -59t-48.5 -72t-19 -64.5q0 -16 7 -23q7 -9 24 -9q5 0 5 -5t-5 -5q-21 0 -31 12q-11 11 -11 30t9 43.5t25 50t37 50t45 43.5t49 31t49 12q45 0 63 -27q13 -20 10.5 -50.5t-13.5 -67t-28.5 -76.5
t-35.5 -78q-11 -25 -22 -49.5t-18.5 -45.5t-11 -36.5t1.5 -22.5q2 -4 11 -4q21 0 47.5 19t55.5 50t59 72t59 85q14 46 33.5 89t40.5 80t41.5 66t35.5 47q20 24 26 27.5t8 2.5q5 -3 4 -7z" />
    <glyph glyph-name="V" unicode="V" horiz-adv-x="384" 
d="M589 691q-38 6 -106.5 -64.5t-162.5 -210.5q-26 -39 -50.5 -77.5t-45.5 -73.5q-20 -56 -42.5 -99t-42.5 -61q-3 -3 -6 -3h-2q-3 2 -3 5t1 4q2 8 14 30.5t31 56.5q18 48 34 108t26.5 117.5t12 104.5t-9.5 69q-7 15 -23 13h-1q-33 0 -69 -24.5t-66 -59t-49 -72t-19 -64.5
q0 -15 8 -23q7 -9 24 -9q5 0 5 -5t-5 -5q-22 0 -32 12t-10 30q0 19 9 43.5t25 50t36.5 50t44.5 43.5t49 31t49 12h6q34 0 49 -35q9 -21 10 -52t-3.5 -67.5t-14 -77t-21.5 -79.5q27 44 58 91t63 91.5t64.5 84t62.5 68.5t56.5 44.5t47.5 12.5q6 0 4 -5q0 -5 -6 -5z" />
    <glyph glyph-name="W" unicode="W" horiz-adv-x="517" 
d="M672 702q-15 -2 -36.5 -33.5t-46.5 -79t-51.5 -105t-50.5 -111.5q-54 -122 -87.5 -188.5t-53.5 -68.5h-4q-8 2 -13.5 10t-9.5 19.5t-6.5 25t-3.5 26.5q-2 23 -2 51.5t2 58.5q-28 -42 -58 -84.5t-55.5 -77t-44.5 -58.5t-24 -28q0 -3 -5 -3l-4 2q-2 1 -2 5q0 1 -0.5 1
t-0.5 1q-6 8 6 43t39 103q18 46 39 101.5t36 107t19.5 93.5t-8.5 62q-11 15 -33 15q-33 0 -69 -24.5t-66 -59t-49 -72t-19 -64.5q0 -14 7 -23q9 -9 25 -9q5 0 5 -5t-5 -5q-22 0 -32 12q-10 10 -10 30q0 19 9 43.5t25 50t36.5 50t44.5 43.5t49 31t49 12q42 0 60 -28
q18 -27 12 -76t-26 -111t-49 -131.5t-59 -136.5l-15 -33q13 16 33 43t44 60t49.5 70t48.5 72q4 28 10 55.5t15 49t21.5 36.5t27.5 19h1q6 2 9 0t4 -4q5 -11 -11 -44.5t-44 -79.5q-5 -37 -6.5 -76t-0.5 -72.5t3.5 -57t5.5 -29.5q8 1 23 25t33 60t38 80t38 86q27 60 54 119
t52 106.5t47 77.5t39 32q6 0 6 -5t-4 -5zM388 480q-26 -19 -40 -93q17 28 28.5 50t13.5 36q0 2 0.5 3t0.5 2v2h-3z" />
    <glyph glyph-name="X" unicode="X" horiz-adv-x="441" 
d="M624 625q-26 0 -58 -22.5t-68.5 -60.5t-76 -87.5t-79.5 -103.5q-4 -35 -5.5 -68.5t1 -61t10.5 -46t24 -22.5q2 -2 2 -5.5t-5 -4.5q-20 4 -32 18t-18.5 36t-8.5 50.5t0 60.5l-43 -59q-42 -59 -81 -111.5t-73 -92t-61.5 -63t-46.5 -23.5q-5 0 -5 5t5 5q18 0 45 24t60 64
t71 91.5t78 106.5l52 71q2 26 4 53t5 53q3 30 6 59.5t3 53t-3 38.5t-12 17q-33 0 -69 -24.5t-66 -59t-49 -72t-19 -64.5q0 -15 8 -23q7 -9 24 -9q5 0 5 -5t-5 -5q-21 0 -31 12q-11 11 -11 30t9 43.5t25 50t37 50t44.5 43.5t48.5 31t49 12h1q15 0 24 -10q10 -11 13.5 -31.5
t3.5 -48t-3 -60t-7 -66.5l-2 -23q40 54 79 102t74.5 84t67.5 57t59 21q5 0 5 -5t-5 -5z" />
    <glyph glyph-name="Y" unicode="Y" horiz-adv-x="507" 
d="M505 566q2 -13 -7.5 -52.5t-29 -92.5t-48 -113.5t-64 -116t-76.5 -100t-85 -64.5q-32 -15 -62 -15q-10 0 -15 1q-63 2 -117 76q-2 3 2 7q4 2 6 -1q52 -64 110 -72h1q10 0 15 1q39 6 77.5 40t74 83t67 108t57 115t43.5 103.5t28 73.5l-35 -40t-47 -51t-55 -55t-57 -51.5
t-54.5 -39.5t-46.5 -20h-6q-12 -2 -18 6q-8 12 4 40.5t37 75.5q12 23 25 47.5t22 47.5t12.5 42t-3.5 30q-8 14 -35 14q-33 0 -69 -24.5t-66 -59t-49 -72t-19 -64.5q0 -16 7 -23q9 -9 25 -9q5 0 5 -5t-5 -5q-22 0 -32 12q-10 10 -10 30q0 19 9 43.5t25 50t36.5 50t44.5 43.5
t49 31t49 12q51 2 66 -25q9 -16 5.5 -39.5t-15.5 -50.5t-28.5 -55.5t-32.5 -54.5q-7 -11 -15 -23.5t-14 -24t-9.5 -19.5t-1.5 -11h5q22 4 52.5 24.5t63 49t64.5 61t58.5 61.5t44.5 50.5t22 26.5q2 4 6 4l5 -2.5t4 -8.5z" />
    <glyph glyph-name="Z" unicode="Z" horiz-adv-x="506" 
d="M574 618q-1 -5 -20.5 -26.5t-50 -52t-68 -67t-73.5 -71.5q24 4 51.5 6t59.5 2q5 0 5 -6q0 -5 -5 -5q-35 0 -66 -2t-58 -6l-28 -27q-19 -17 -41 -37t-45 -41t-47 -42t-47 -40q20 -5 41 -12.5t44 -16.5q29 -11 62 -22.5t69.5 -19t77 -8.5t85.5 9q6 0 6 -4q2 -6 -4 -6
q-41 -10 -84 -10q-63 0 -116.5 17t-98.5 35q-26 10 -48.5 18t-43.5 12q-38 -32 -69.5 -54t-46.5 -24h-7.5t-5.5 2q-4 0 -1 8q20 42 44 60t51 20q38 34 82.5 75.5t88.5 83.5l12 11l-29 -7q-20 -5 -35.5 -8t-27.5 -3q-16 0 -24 7q-4 3 -2 7q4 4 8 1q10 -7 29.5 -4t49.5 10
q10 2 21 5t25 5q62 58 105.5 98.5t72.5 66.5q-42 -13 -93 -14q-27 -1 -52 1t-46.5 6.5t-37 11t-22.5 14.5q-5 5 0 7q4 4 8 0q11 -12 52 -22t98 -8q66 3 112 21q23 21 36.5 32t21 16.5t10 5.5t4.5 -1l2 -2q4 3 6 1q3 -2 3 -6zM83 195q-38 -9 -65 -58q11 9 27.5 23.5
t37.5 34.5z" />
    <glyph glyph-name="zero" unicode="0" horiz-adv-x="259" 
d="M242 522q12 -21 12 -54t-9 -70.5t-25 -77t-37 -74.5q-42 -72 -87.5 -112.5t-86.5 -40.5h-2q-6 0 -12 3q-10 5 -14 13q-9 15 -8 42t10 61t25 72t38 75q41 69 86.5 106.5t87.5 37.5h2q3 0 3 -4t-4 -6q-24 -2 -51 -25t-53 -57.5t-49.5 -76.5t-40.5 -82.5t-26.5 -75
t-7.5 -54.5q1 -13 7 -17q2 -1 4 -1.5t5 -0.5q37 0 81.5 39.5t83.5 108.5q26 45 42 87t23 76.5t5.5 61t-10.5 41.5q-15 24 -48 24q-5 0 -5 5t5 5q40 0 56 -29z" />
    <glyph glyph-name="one" unicode="1" horiz-adv-x="185" 
d="M202 559q6 -10 -2.5 -44.5t-25.5 -82t-39.5 -101.5t-43.5 -102t-38 -84.5t-23 -48.5q-2 -3 -7 -3.5t-2 7.5l158 434q-15 -17 -40 -36t-54 -26q-6 -2 -6 3q-2 6 3 6q22 5 41.5 18.5t34 27.5t23.5 24.5l9 10.5v1q1 0 1 1h3q6 0 8 -5z" />
    <glyph glyph-name="two" unicode="2" horiz-adv-x="274" 
d="M205 134q4 2 7 -1q3 -4 0 -7q-14 -12 -36 -12q-20 0 -43 7t-46 15l-20 7l-19 -13q-5 -3 -11 -4q-9 -6 -15 -6q-13 -2 -16 11v1q-4 17 5 25q7 6 19.5 4.5t29.5 -6.5q21 19 48 50t55 67.5t54 75.5t46.5 75t32 65.5t10.5 47.5t-19 18q-25 0 -52 -13.5t-53.5 -35.5t-50 -49.5
t-41.5 -54.5t-28.5 -51.5t-10.5 -40.5q0 -8 4 -14q4 -4 13 -4q5 0 5 -5t-5 -5q-15 0 -20 8q-7 7 -7 20q0 26 23 68.5t60 85.5q10 11 27.5 28.5t39.5 33.5t46.5 27.5t49.5 11.5q24 4 34 -3.5t13 -17.5q6 -18 -3.5 -48.5t-30 -67t-48.5 -77t-58.5 -78.5t-61.5 -70t-56 -52
l14 -5q16 -5 32.5 -10.5t32.5 -8t29 -1.5t21 9zM35 135q4 3 7.5 5.5t8.5 7.5q-7 2 -13 3t-11 1q-7 0 -10 -3q-4 -4 -2 -14q6 -5 20 0z" />
    <glyph glyph-name="three" unicode="3" horiz-adv-x="258" 
d="M233 369q13 -21 8.5 -54t-26.5 -74q-14 -27 -35 -53.5t-45 -48t-49.5 -37t-50.5 -20.5q-3 0 -4 -1q-3 0 -6 -0.5t-5 -0.5h-1q-28 0 -37 25q-7 17 1 46.5t44 63.5q3 3 7 0q3 -4 0 -7q-33 -32 -40.5 -58.5t-2.5 -40.5q8 -19 28 -19q3 0 5.5 0.5t5.5 0.5q29 5 60 32.5
t57 64.5t43 77.5t17 71.5q0 24 -11 38q-14 14 -40 14q-5 0 -5.5 3.5t3.5 5.5q31 18 51.5 37.5t31 38t13.5 34.5t0 27q-5 19 -23 19h-1q-35 0 -70.5 -19t-63.5 -45.5t-45.5 -54.5t-17.5 -47q0 -9 4 -13q5 -5 17 -5q5 0 5 -5t-5 -5q-16 0 -24 7q-7 7 -7 21q0 20 18 50t47.5 58
t66.5 48t75 20h1q22 0 36.5 -10t17.5 -27q6 -26 -18 -61.5t-86 -67.5q39 -3 56 -29z" />
    <glyph glyph-name="four" unicode="4" horiz-adv-x="274" 
d="M269 559q2 -6 2 -10q0 -14 -10 -51t-26 -85t-35.5 -100.5t-38.5 -98.5l63 -1q5 0 5 -5t-6 -5l-67 1q-20 -48 -37 -79.5t-26 -31.5q-6 1 -4 7l38 105l-174 3q-2 0 -5 3q-1 2 1 6l309 346q1 0 1 1h4q4 0 6 -5zM130 215l118 322l-284 -319z" />
    <glyph glyph-name="five" unicode="5" horiz-adv-x="323" 
d="M207 399q21 -3 34.5 -11t21.5 -17q20 -24 19.5 -61.5t-20.5 -81.5q-12 -25 -29.5 -49.5t-40 -43.5t-49.5 -30.5t-56 -11.5q-44 0 -64 13q-20 12 -20 36q0 21 15 43.5t36.5 42t46 32t44.5 12.5q5 0 5 -5t-5 -5q-19 0 -42 -12.5t-43 -30.5t-33.5 -39t-13.5 -38
q0 -18 15 -27q19 -12 59 -12q23 1 45 13t40.5 31t33.5 42.5t24 47.5q19 45 18.5 81t-18.5 56q-9 10 -27 15q-32 4 -80 -8h-1q-1 -1 -3 -1h-3q-1 0 -1 1l-2 2v4l1 1q32 38 60 76t41 61q-15 5 -18 11q-1 2 -0.5 6t9.5 9q4 2 8.5 3.5t8.5 0.5q11 1 18 -4q6 -7 3 -19
q21 -1 50 2.5t61 16.5q5 2 7 -3q2 -4 -3 -6q-31 -12 -62.5 -17t-55.5 -3q0 -1 -2 -5q-5 -12 -15 -28t-22.5 -32.5t-26.5 -31.5t-26 -26q19 4 33 3.5t25 -3.5zM207 539q2 -2 12 -4q2 3 2.5 5.5t0.5 4.5l-12 -3q-3 -2 -3 -3z" />
    <glyph glyph-name="six" unicode="6" horiz-adv-x="275" 
d="M286 541q-6 -1 -21 -14t-35.5 -35.5t-45.5 -53t-52 -67.5q-8 -10 -14.5 -20t-13.5 -20q30 1 53 -8t37 -27q16 -21 16.5 -51t-14.5 -61q-8 -17 -22 -33t-32.5 -29t-42.5 -21t-53 -8h-3q-8 0 -11 1q-21 3 -30 14q-14 14 -14 40q0 30 17 71t43.5 86t60 88.5t66.5 78.5
t62 56.5t48 22.5q6 0 6 -3.5t-5 -6.5zM186 290q-25 34 -89 31q-43 -65 -65.5 -115t-20.5 -76q1 -21 19 -25q1 0 2 -1h3q3 -1 10 -1h1q27 0 49.5 7.5t40 19.5t30.5 27.5t21 31.5q14 28 13.5 55t-14.5 46z" />
    <glyph glyph-name="seven" unicode="7" horiz-adv-x="258" 
d="M265 498q-8 0 -14.5 0.5t-13.5 1.5q-18 -29 -44 -72.5t-54 -92.5q10 -2 18.5 -0.5t13.5 6.5q3 3 7 0q5 -2 0 -7q-10 -10 -28 -10q-6 0 -16 2q-19 -34 -37 -68.5t-32.5 -66t-25 -59t-13.5 -48.5q0 -3 -5 -4.5t-5 5.5q0 38 23.5 103t65.5 144q-7 2 -12.5 3t-7.5 0
q-3 -4 -7 -2q-4 4 -2 7q4 6 12.5 5t20.5 -4l8 13q22 41 47 81t48 69l-16 5q-14 3 -27.5 6t-28.5 2t-32 -7t-38 -20q-5 -3 -7 1q-3 5 1 7q22 15 40.5 21t34.5 7t30.5 -1.5t29.5 -6.5l20 -5q12 14 21.5 24t17.5 14q17 8 30 6t20 -9q12 -11 7 -26q-2 -5 -11.5 -13.5
t-38.5 -10.5zM243 509q5 0 10.5 -0.5t11.5 0.5q34 0 41 17q3 8 -5 15q-5 5 -14.5 6.5t-22.5 -4.5z" />
    <glyph glyph-name="eight" unicode="8" horiz-adv-x="274" 
d="M277 560q6 -12 1 -29.5t-17 -39t-30 -47t-40 -53.5q18 -5 33 -19q27 -24 27 -67q0 -35 -17.5 -72.5t-47 -68.5t-68.5 -51t-81 -20q-29 0 -38 17q-6 14 3 37t28.5 52.5t46 63.5t55.5 70l40 51q-10 4 -17 4q-4 1 -8 1h-9q-22 0 -35 12q-12 10 -12 30q0 24 22.5 51t66.5 41
q14 5 29.5 8t34.5 1q6 0 5.5 -5t-5.5 -5q-31 0 -58 -8q-29 -11 -44 -33t-19 -42q-2 -16 2 -27t14 -13q11 0 16 -1q7 -1 13.5 -1.5t11.5 -2.5q21 26 39 51t30.5 46.5t17.5 38t1 26.5q-6 13 -33 13q-5 0 -5 5t5 5q33 0 42 -19zM202 360q-5 6 -9.5 11t-10.5 9l-42 -53
q-26 -32 -52 -65t-45.5 -62t-29.5 -51.5t-5 -34.5q6 -11 29 -11q24 0 46.5 10t41 25t33.5 34t26 38q23 43 28 84t-10 66z" />
    <glyph glyph-name="nine" unicode="9" horiz-adv-x="302" 
d="M281 537q14 -16 14 -40q0 -30 -17 -71t-44 -86t-60.5 -89t-66.5 -79t-62 -57t-47 -22q-5 1 -4.5 5.5t3.5 4.5q9 1 26 14t38 35.5t45.5 53t49.5 66.5q7 10 14 20.5t14 21.5q-67 -3 -95 34q-16 22 -16.5 52t14.5 60q8 16 22 32.5t32.5 29.5t42.5 21t53 8h1q10 1 20 -2
q7 -2 12.5 -4.5t10.5 -7.5zM97 354q28 -36 93 -30q17 27 32 54t26 52t17.5 46.5t5.5 37.5q-2 21 -16 25q-5 2 -18 2q-27 0 -49.5 -7.5t-40 -19.5t-30.5 -27.5t-21 -30.5q-14 -28 -13.5 -55t14.5 -47z" />
    <glyph glyph-name="exclam" unicode="!" horiz-adv-x="289" 
d="M257 732q13 6 19 0q13 -13 -16.5 -86t-87.5 -195q-30 -65 -56 -121t-34 -88q-2 -3 -5 -3h-1q-7 0 -4 5q2 29 16.5 75t34 99t42 106.5t42 98t33 74t15.5 33.5q0 2 2 2zM77 205q7 0 10 -4q4 -7 0 -19q-3 -8 -9.5 -13.5t-12.5 -5.5t-9 4q-4 7 0 19q7 19 21 19z" />
    <glyph glyph-name="quotedbl" unicode="&#x22;" horiz-adv-x="202" 
d="M122 578q0 -12 -6 -26t-16.5 -26.5t-24.5 -21t-29 -8.5q-5 0 -5 5q0 4 5 4q13 0 25 7.5t21 19t14.5 24t5.5 22.5q-14 -9 -22 -9.5t-12 2.5q-7 6 -4 17q2 6 7.5 11.5t13.5 5.5q13 0 21 -8l4 -5q0 -1 0.5 -1t0.5 -1q3 -3 1 -5v-7zM219 578q0 -12 -6 -26t-16.5 -26.5
t-24.5 -21t-29 -8.5q-5 0 -5 5q0 4 5 4q13 0 25 7.5t21 19t14.5 24t5.5 22.5q-14 -9 -22 -9.5t-12 2.5q-7 6 -4 17q2 6 7.5 11.5t13.5 5.5q13 0 21 -8l4 -5q0 -1 0.5 -1t0.5 -1q3 -3 1 -5v-7z" />
    <glyph glyph-name="numbersign" unicode="#" horiz-adv-x="295" 
d="M269 441q5 -2 4 -6q0 -4 -4 -4h-1q-11 2 -26.5 2.5t-32.5 1.5q-12 -30 -33 -75l-7 -16q31 0 54 -5q5 -2 4 -6q0 -4 -6 -4q-11 3 -25.5 4t-31.5 1q-10 -23 -20 -45t-19 -44q0 -4 -4 -4q-1 0 -1 0.5t-1 0.5q-2 0 -3 1.5t0 3.5q4 21 10 42.5t14 43.5q-22 -1 -43.5 -2.5
t-38.5 -3.5q-20 -43 -35 -82q-2 -4 -5 -4l-1 1q-4 0 -4 5q8 39 21 77q-18 -3 -21 -3q-5 0 -5 5q-3 5 4 5q1 0 8 1t18 3q18 52 40 98q-19 -1 -30 -1.5t-12 -0.5q-5 0 -5 5t5 5q2 0 14 0.5t32 1.5q7 15 13 27t11 21q5 11 9 19q1 3 5 3t6 -3q4 -5 -0.5 -20.5t-16.5 -45.5
q18 1 37.5 1h39.5q7 14 12.5 26.5t10.5 20.5l9 18q1 3 3 3q6 1 9 -3q4 -5 0 -20t-17 -45q17 -1 31 -1.5t25 -2.5zM143 343q9 25 19 48.5t19 43.5q-20 0 -39.5 -0.5t-37.5 -0.5q-5 -14 -12.5 -31t-16.5 -37l-13 -29q18 2 39 3.5t42 2.5z" />
    <glyph glyph-name="dollar" unicode="$" horiz-adv-x="181" 
d="M183 511q16 1 24 -2.5t11 -8.5q12 -14 1 -38q-5 -11 -15.5 -20t-23.5 -9q-5 0 -5 5t5 5t11 13q5 10 5.5 22.5t-5.5 18.5q-3 3 -8 4q-5 0 -13 -2q-6 -2 -11 -4l-10 -4l-35 -114q0 -1 0.5 -1.5t0.5 -2.5q16 -23 28 -48.5t7 -51.5q-9 -42 -34 -60t-53 -17h-4l-27 -90
q-2 -3 -5 -3h-2q-5 2 -3 6l27 88q-12 1 -23 8q-21 10 -34 30t-7 46q0 6 5 4q5 0 5 -5q-5 -37 25 -60q7 -5 14 -8q7 -4 14 -5h4l51 167q-16 23 -26.5 44.5t-2.5 40.5q12 28 68 43l14 47q1 4 6 4q4 -1 4 -7l-13 -41l14 4q5 2 9 2h7zM124 275q3 22 -2 43.5t-13 42.5l-47 -155
q13 0 22 4q34 14 40 65zM136 484q-21 -12 -29 -28q-7 -14 -5 -29.5t7 -32.5z" />
    <glyph glyph-name="percent" unicode="%" horiz-adv-x="321" 
d="M287 568q4 -1 2 -7l-270 -451q-2 -2 -5 -2h-2q-4 4 -2 7l271 451q2 6 6 2zM233 262q11 0 17 -6.5t6 -17.5q0 -9 -5 -20.5t-13 -21t-19.5 -16t-24.5 -6.5h-1q-2 0 -3.5 0.5t-3.5 0.5q-13 2 -19.5 8t-9.5 12q-6 12 -3 28t14 32t30 29t42 11q5 0 5 -5t-5 -5q-10 0 -20.5 -9
t-19.5 -21.5t-15 -27t-6 -26.5q0 -9 4 -12q1 -2 5 -4q2 0 3 -0.5t3 -0.5q10 0 19.5 5.5t17 13.5t11.5 17.5t4 17.5q0 6 -4 10q-3 3 -9 3q-5 0 -5 6q0 5 5 5zM75 390q-14 2 -21 7.5t-10 11.5q-5 11 -3 26.5t13 32.5q11 16 29.5 30t42.5 13q5 0 5 -5t-5 -5q-10 0 -20.5 -9
t-19.5 -21.5t-14.5 -27t-5.5 -26.5q0 -9 3 -13q2 -3 7 -4h4q11 0 20.5 5.5t16.5 13.5t11 17t4 17q0 14 -13 14q-5 0 -5 5t5 5q23 0 23 -24q0 -10 -4.5 -20.5t-12.5 -20.5q-20 -22 -45 -22h-5z" />
    <glyph glyph-name="ampersand" unicode="&#x26;" horiz-adv-x="378" 
d="M349 338q3 3 7 0q3 -4 -1 -8q-9 -8 -22.5 -8.5t-27.5 0.5q-7 -27 -33 -64.5t-66 -68.5q5 -29 6 -52.5t-4 -38.5q-2 -3 -5 -3h-1q-4 2 -4 5q1 13 -2.5 32t-9.5 44q-23 -14 -48 -23.5t-53 -11.5q-2 -1 -6 -1h-4q-44 2 -72 45q-21 32 -23 72.5t16 74.5q37 69 135 78
q-5 42 -1.5 76.5t21.5 57.5q26 32 78 29q15 0 21 -10q7 -7 7 -24t-8 -39t-21 -43t-29.5 -36.5t-32.5 -18.5q4 -31 10.5 -63.5t12.5 -64.5q9 -37 15 -74q36 29 60 63t31 60q-13 1 -24 0t-17 -8q-1 -1 -4 -1q-2 0 -3 1q-4 3 0 7q10 10 24.5 11t30.5 -1q14 -1 26.5 -0.5
t20.5 6.5zM84 150q27 3 52 12.5t47 23.5q-2 11 -5.5 23t-6.5 24q-11 40 -22 82.5t-16 84.5q-45 -7 -69 -27.5t-35 -41.5q-10 -20 -13.5 -41.5t-2 -42.5t8 -39.5t15.5 -31.5q16 -23 38 -26h9zM181 544q-16 -20 -18.5 -54.5t2.5 -77.5q12 3 26 15.5t26.5 30.5t21 39t8.5 42
q0 11 -5 18q-5 6 -14 6q-31 0 -47 -19z" />
    <glyph glyph-name="quotesingle" unicode="'" horiz-adv-x="105" 
d="M122 578q0 -12 -6 -26t-16.5 -26.5t-24.5 -21t-29 -8.5q-5 0 -5 5q0 4 5 4q13 0 25 7.5t21 19t14.5 24t5.5 22.5q-14 -9 -22 -9.5t-12 2.5q-7 6 -4 17q2 6 7.5 11.5t13.5 5.5q13 0 21 -8l4 -5q0 -1 0.5 -1t0.5 -1q3 -3 1 -5v-7v0z" />
    <glyph glyph-name="parenleft" unicode="(" horiz-adv-x="244" 
d="M266 632q-27 0 -65.5 -41.5t-76.5 -112.5q-39 -74 -61.5 -148.5t-22.5 -131.5q0 -56 22 -85q24 -33 76 -33q5 0 5 -5t-5 -5q-67 0 -100 41q-29 37 -29 101q0 43 12 92t32 96.5t46 91.5t54.5 77t57.5 53t55 20q5 0 5 -5t-5 -5z" />
    <glyph glyph-name="parenright" unicode=")" horiz-adv-x="289" 
d="M126 642q55 0 84 -36q24 -33 24 -92q0 -41 -11.5 -89.5t-30.5 -97.5t-43.5 -95.5t-51 -82.5t-52.5 -57.5t-47 -21.5q-5 0 -5 5t5 5q10 0 24 12t30.5 33.5t34 51.5t35.5 66q15 31 30 67.5t26.5 74t19 75t7.5 69.5q0 103 -79 103q-5 0 -5 5t5 5z" />
    <glyph glyph-name="asterisk" unicode="*" horiz-adv-x="174" 
d="M105 482q-2 0 -3 1l-50 30l-13 -61q-2 -4 -5 -4h-1q-4 1 -4 6l12 58l-60 -32q-1 -1 -2 -1q-4 0 -5 3q-2 3 2 7l62 32l-49 30q-4 4 -1 7q2 4 7 2l50 -31l13 61q0 6 6 4q4 0 4 -6l-13 -57l61 32q3 2 7 -2q2 -5 -2 -7l-63 -33l49 -30q5 -2 2 -7q-2 -2 -4 -2z" />
    <glyph glyph-name="plus" unicode="+" horiz-adv-x="243" 
d="M234 361q4 0 4 -6q-2 -4 -5 -4h-1q-17 4 -37 5.5t-40 1.5q-7 -24 -17 -50t-24 -50q-2 -3 -5 -3l-2 1q-4 2 -2 6q9 23 15.5 48t11.5 48q-39 -1 -68 -4t-30 -3q-5 0 -5 4q-2 6 4 6q2 1 31.5 4t69.5 4q8 37 10 63.5t2 27.5t3 4q7 4 13 -2q7 -7 6 -33t-10 -61q20 0 39.5 -1.5
t36.5 -5.5z" />
    <glyph glyph-name="hyphen" unicode="-" horiz-adv-x="322" 
d="M272 351q-29 6 -63.5 6.5t-64.5 -1t-50 -3.5l-20 -2q-5 0 -5 4q-2 6 4 6q2 0 22.5 2.5t50 4t64 0.5t64.5 -7q4 0 4 -6q-2 -4 -5 -4h-1z" />
    <glyph glyph-name="slash" unicode="/" horiz-adv-x="248" 
d="M303 604q4 -2 2 -7l-292 -487q-2 -2 -5 -2h-2q-4 4 -2 7l292 487q2 5 7 2z" />
    <glyph glyph-name="colon" unicode=":" horiz-adv-x="208" 
d="M138 402q9 0 14 -7q6 -6 4 -15q-2 -8 -9 -14t-16 -6q-8 0 -14 6q-5 6 -3 16q2 8 9 14t15 6zM114 288q9 0 14 -7q6 -8 3 -15q-2 -8 -8.5 -14t-15.5 -6t-13 6q-6 7 -4 16q2 8 9 14t15 6z" />
    <glyph glyph-name="semicolon" unicode=";" horiz-adv-x="218" 
d="M139 291q5 -7 4 -14q2 -26 -17 -46q-16 -18 -32 -18q-5 0 -5 5t5 5q11 0 24 15q8 8 13 22q-5 -4 -13 -4t-14 6q-4 7 -3 16q2 8 9 14t15 6q9 0 14 -7zM149 412q9 0 14 -7q6 -8 3 -15q-2 -8 -8.5 -14t-14.5 -6q-10 0 -14 6q-6 6 -4 16q2 8 9 14t15 6z" />
    <glyph glyph-name="less" unicode="&#x3c;" horiz-adv-x="275" 
d="M233 437q10 -2 8 -10q-1 -9 -18 -21.5t-41 -24.5t-51.5 -21t-49.5 -9q4 -2 7.5 -3.5t8.5 -3.5q13 -6 28 -13t28.5 -15.5t23 -19t11.5 -22.5q0 -5 -5 -5t-5 4q-2 10 -11 19t-22 17t-27 14.5t-25 11.5q-17 8 -23.5 11.5t-5.5 8.5q1 4 5 5t7 1q15 1 40.5 13t50.5 26
t43.5 25.5l18.5 11.5q1 0 1.5 0.5t2.5 -0.5z" />
    <glyph glyph-name="equal" unicode="=" horiz-adv-x="269" 
d="M224 325q5 -2 4 -6q0 -4 -6 -4q-29 6 -56 6.5t-47 -1t-32.5 -3.5l-12.5 -2h-1q-3 0 -5 4q0 5 4 6q1 0 13.5 2.5t33.5 4t48 0.5t57 -7zM238 390q4 -1 4 -6q-2 -5 -6 -4q-29 6 -56 6.5t-47 -1t-32.5 -3.5l-12.5 -2h-1q-5 0 -5 4q-2 4 4 6q1 0 13.5 2t33.5 3.5t48 1t57 -6.5
z" />
    <glyph glyph-name="greater" unicode="&#x3e;" horiz-adv-x="362" 
d="M246 361q2 0 6 -1t5 -5q1 -5 -6.5 -8.5t-28.5 -11.5q-14 -5 -31 -12t-33.5 -15t-30 -17.5t-19.5 -19.5q0 -2 -4 -2h-2q-5 4 -2 7q6 12 20 22t30.5 18.5t34.5 15.5t33 12l19 7q-20 1 -42 9t-40 19t-30.5 23t-13.5 21q-2 11 10 14q3 1 5 -1l13.5 -11t32.5 -25t39.5 -26
t34.5 -13z" />
    <glyph glyph-name="question" unicode="?" horiz-adv-x="399" 
d="M386 700q10 -20 1.5 -48t-29 -62t-48.5 -71.5t-57 -74.5q-42 -55 -77 -104t-45 -84q0 -3 -5 -3h-1q-4 0 -4 5q2 19 12.5 43t26.5 51t36 57t42 61q24 35 47.5 69.5t40.5 65t24 55.5t0 41q-10 19 -46 22q-33 2 -59.5 -6.5t-47 -22.5t-34.5 -30.5t-22 -29.5
q-24 -37 -32 -77.5t4 -63.5q10 -16 27 -16q5 0 5 -5t-5 -5q-24 0 -35 21q-14 26 -6.5 69t33.5 83q31 48 76 72.5t96 20.5q68 -2 82 -33zM119 205q6 0 9 -4q4 -7 1 -19q-3 -8 -9.5 -13.5t-12.5 -5.5t-9 4q-5 8 -1 19q3 8 9.5 13.5t12.5 5.5z" />
    <glyph glyph-name="at" unicode="@" horiz-adv-x="490" 
d="M326 585q34 -2 54.5 -13t31.5 -26t14.5 -32t3.5 -30q0 -33 -14 -70t-36.5 -68.5t-50.5 -52.5t-57 -21h-1q-6 0 -9.5 2.5t-5.5 4.5q-9 14 1.5 47t29.5 78q5 12 10 23.5t7 18.5q-5 -4 -11.5 -11t-13.5 -15q-11 -13 -25 -28t-29.5 -28.5t-31.5 -22.5t-31 -9h-3q-9 0 -12.5 4
t-5.5 7q-3 8 1.5 20t13 24.5t20 25t24.5 21.5q39 28 70 22q14 0 22 -8q11 12 18 11q11 -1 15 -9q4 -7 3 -19t-6 -26.5t-12.5 -31t-14.5 -32.5q-8 -17 -16.5 -35.5t-6.5 -23.5q21 0 44.5 20.5t43 51t32.5 66.5t13 69q0 40 -21 61q-23 26 -71 26q-39 0 -81.5 -23.5t-78 -61.5
t-58.5 -87t-23 -100q0 -45 24 -71t69 -31q5 -1 10.5 -1h10.5t5 -5t-5 -5h-10t-10 1q-74 6 -105 58q-20 35 -13.5 85.5t37.5 103.5q40 67 101 107t125 40h5q3 -1 10 -1zM272 427q6 6 12 14q-7 4 -14 5q-9 0 -21 -6q-17 -9 -32.5 -23.5t-27.5 -29.5t-20 -27.5t-8 -17.5
q13 0 28 8.5t29.5 21.5t28.5 27.5t25 27.5z" />
    <glyph glyph-name="bracketleft" unicode="[" horiz-adv-x="295" 
d="M133 80q5 0 5 -5t-5 -5h-64q-17 5 -25 23q-9 21 -10.5 58.5t4.5 84t17 98.5t27 101.5t34.5 92.5t39.5 72q31 43 59 42h1q12 -1 21.5 -0.5t16.5 0.5h15q5 0 5 -4t-4 -6q-1 0 -15.5 -0.5t-38.5 0.5h-1q-13 0 -29 -25t-33 -66t-33.5 -92.5t-29.5 -105.5t-22 -105t-10 -90
q-3 -60 12 -67q1 -1 3 -1h60v0z" />
    <glyph glyph-name="backslash" unicode="\" horiz-adv-x="369" 
d="M106 113q0 -5 -4 -5h-1q-5 0 -5 4l-86 487q-1 4 4 6q5 0 5 -4z" />
    <glyph glyph-name="bracketright" unicode="]" horiz-adv-x="322" 
d="M165 642q47 -8 39 -127q-3 -42 -12.5 -91t-23.5 -98.5t-31.5 -95.5t-37 -81.5t-40 -57t-39.5 -21.5h-2h-38h-14q-4 0 -6 5q0 5 5 5q1 0 15 0.5t39 -0.5q13 0 29 25t33 66t33.5 93t30 105.5t22 104.5t10.5 90q2 34 -3 52q-5 16 -13 16h-59q-5 0 -5 5t5 5h63v0z" />
    <glyph glyph-name="asciicircum" unicode="^" horiz-adv-x="181" 
d="M106 552q-3 0 -11 -6t-18 -16t-21.5 -22t-21.5 -25q-2 -2 -4 -2l-1 1q-4 0 -4 4q0 12 6.5 25t16.5 25t21.5 21t21.5 11q15 3 21 -8q5 -4 7.5 -9.5t4.5 -13.5q3 -9 8 -21.5t16 -26.5q3 -3 -1 -7q-4 -2 -7 1q-12 15 -17 28t-8 23q-5 16 -9 18z" />
    <glyph glyph-name="underscore" unicode="_" horiz-adv-x="288" 
d="M188 161q4 -1 4 -6q-2 -4 -5 -4h-1q-29 6 -53.5 7t-41.5 -0.5t-26.5 -4l-9.5 -2.5q-6 0 -7 4q0 5 4 6q1 0 11 2.5t28 4t42.5 0.5t54.5 -7z" />
    <glyph glyph-name="braceleft" unicode="{" horiz-adv-x="201" 
d="M164 632q-4 0 -7 -7t-6 -18.5t-5.5 -25.5t-4.5 -27q-5 -31 -12 -64.5t-19 -63t-30 -50t-46 -24.5q11 -13 14 -30.5t1 -37.5t-7.5 -41.5t-11.5 -42.5q-5 -17 -9 -33.5t-6 -31t-1 -26t6 -18.5q9 -11 30 -11h1q5 0 5 -5t-5 -5h-1q-30 0 -45 18q-8 10 -10 25.5t-0.5 34
t6.5 39t10 40.5q4 19 8.5 38t6.5 35.5t0.5 30t-8.5 22.5v1q-1 0 -1 1v3q1 1 1 2q1 0 1 1h4q18 0 31 15t23 38.5t17.5 52t13.5 57.5q5 24 10.5 45t12 37.5t14.5 26t19 9.5q5 0 5 -5t-5 -5z" />
    <glyph glyph-name="bar" unicode="|" horiz-adv-x="168" 
d="M150 642q6 0 4 -6l-147 -615q0 -4 -4 -4h-2q-4 2 -4 6l147 616q2 5 6 3z" />
    <glyph glyph-name="braceright" unicode="}" horiz-adv-x="201" 
d="M134 642q25 -3 36 -18q8 -11 10 -26t0.5 -33.5t-6 -38.5t-9.5 -41q-5 -19 -9 -38t-6 -35.5t-0.5 -30t8.5 -22.5q3 -3 1 -5.5t-5 -2.5q-18 0 -31.5 -14.5t-23.5 -38t-17.5 -52.5t-13.5 -57q-5 -24 -10.5 -45.5t-12 -38t-14.5 -26t-19 -9.5q-4 0 -6 5q0 5 6 5q3 0 6 7
t5.5 18t5 24.5t4.5 27.5q5 31 12 65t19 64t30.5 50.5t47.5 24.5q-12 13 -15 31t-1.5 39t6.5 43.5t11 44.5q8 34 13 62.5t-5 41.5q-6 7 -18 9h-8q-5 0 -5 5t5 5h9v0z" />
    <glyph glyph-name="asciitilde" unicode="~" horiz-adv-x="192" 
d="M158 297q5 2 7 -3q2 -4 -2 -6q-28 -18 -50 -18q-15 0 -26 6t-20 12q-12 9 -21 12t-23 -11q-3 -3 -7 -1q-4 3 0 7q14 15 25.5 21t21 5.5t18.5 -5t17 -9.5q13 -8 26.5 -13.5t33.5 3.5z" />
    <glyph glyph-name="acute" unicode="&#xb4;" horiz-adv-x="275" 
d="M112 599q3 -8 -11 -21.5t-32 -26.5t-33.5 -23l-15.5 -10q-1 0 -2 -1q-1 0 -1.5 0.5t-1.5 0.5l-2 2v2q-1 0 0 1v1q4 9 16.5 22.5t25.5 26t24 21.5t12 10h1l1 1h10t9 -6z" />
    <glyph glyph-name="period" unicode="." horiz-adv-x="131" 
d="M46 198q9 0 14 -7q6 -8 3 -15q-2 -8 -8.5 -14t-15.5 -6t-13 6q-6 7 -4 16q2 8 9 14t15 6z" />
    <glyph glyph-name="comma" unicode="," horiz-adv-x="134" 
d="M61 218q5 -7 4 -14q2 -26 -17 -46q-16 -18 -32 -18q-5 0 -5 5t5 5q11 0 24 15q8 8 13 22q-5 -4 -13 -4t-14 6q-4 7 -3 16q2 8 9 14t15 6q9 0 14 -7z" />
    <glyph glyph-name="grave" unicode="`" horiz-adv-x="119" 
d="M88 551q-11 0 -24 2.5t-24.5 6t-19.5 8t-8 9.5q-1 2 0 4.5t8 4.5h1q10 0 23 -4t24 -8.5t19 -8.5t9 -4q3 -2 2 -6q0 -2 -4 -4h-6z" />
    <glyph glyph-name="tilde" unicode="&#x2dc;" horiz-adv-x="269" 
d="M132 584q5 2 7 -3q2 -4 -2 -6q-28 -18 -50 -18q-15 0 -26 6t-20 12q-12 9 -21 12t-23 -11q-3 -3 -7 -1q-4 3 0 7q14 15 25.5 21t21 5.5t18.5 -5t17 -9.5q13 -8 26.5 -13.5t33.5 3.5z" />
    <glyph glyph-name="ring" unicode="&#x2da;" horiz-adv-x="185" 
d="M75 426q-14 2 -21 7.5t-10 11.5q-5 11 -3 26.5t13 32.5q11 16 29.5 30t42.5 13q5 0 5 -5t-5 -5q-10 0 -20.5 -9t-19.5 -21.5t-14.5 -27t-5.5 -26.5q0 -9 3 -13q2 -3 7 -4h4q11 0 20.5 5.5t16.5 13.5t11 17t4 17q0 14 -13 14q-5 0 -5 5t5 5q23 0 23 -24q0 -10 -4.5 -20.5
t-12.5 -20.5q-20 -22 -45 -22h-5v0z" />
    <glyph glyph-name="Agrave" unicode="&#xc0;" horiz-adv-x="453" 
d="M274 656q7 -11 6.5 -31.5t-7 -48.5t-18 -62.5t-24.5 -72.5q9 0 17.5 0.5t16.5 0.5q5 0 5 -6q0 -5 -5 -5h-37q-2 -5 -3.5 -9.5t-3.5 -9.5q-18 -49 -35 -99.5t-28 -95.5t-12.5 -80.5t11.5 -54.5q11 -17 38 -17q1 0 1 -1h2l1 -1q1 -1 1 -2v-3q0 -1 -1 -1v-1h-1l-1 -1h-2
q-42 0 -61 28q-16 23 -17 60.5t8.5 84t26 98.5t35.5 103q-25 -2 -50 -3.5t-51 -3.5q-6 0 -12 -0.5t-12 -1.5q-39 -54 -83 -111t-91 -111.5t-96.5 -103.5t-100 -85.5t-101.5 -58t-100 -21.5q-5 0 -5 5t5 5q72 0 146 45t146.5 115.5t140 155t126.5 164.5q-35 -2 -67.5 -4
t-60.5 -2q-40 0 -67 5.5t-35 19.5q-8 16 10 39q4 4 7 1q5 -3 1 -7q-14 -18 -9 -29q5 -10 26 -14t52.5 -4.5t70.5 1.5t80 5l41 57q63 85 98 130t54 50h2q6 0 8 -1q9 -1 14 -10zM85 432q26 2 52.5 3.5t52.5 3.5q5 13 9.5 25.5t9.5 24.5q10 29 20.5 57t17.5 51t10 39t0 20l-1 1
h-3q-9 -2 -23.5 -16.5t-33.5 -38.5t-42 -55.5t-48 -65.5l-36 -50q4 0 7.5 0.5t7.5 0.5zM277 743q-11 0 -24 2.5t-24.5 6t-19.5 8t-8 9.5q-1 2 0 4.5t8 4.5h1q10 0 23 -4t24 -8.5t19 -8.5t9 -4q3 -2 2 -6q0 -2 -4 -4h-6z" />
    <glyph glyph-name="Aacute" unicode="&#xc1;" horiz-adv-x="453" 
d="M274 656q7 -11 6.5 -31.5t-7 -48.5t-18 -62.5t-24.5 -72.5q9 0 17.5 0.5t16.5 0.5q5 0 5 -6q0 -5 -5 -5h-37q-2 -5 -3.5 -9.5t-3.5 -9.5q-18 -49 -35 -99.5t-28 -95.5t-12.5 -80.5t11.5 -54.5q11 -17 38 -17q1 0 1 -1h2l1 -1q1 -1 1 -2v-3q0 -1 -1 -1v-1h-1l-1 -1h-2
q-42 0 -61 28q-16 23 -17 60.5t8.5 84t26 98.5t35.5 103q-25 -2 -50 -3.5t-51 -3.5q-6 0 -12 -0.5t-12 -1.5q-39 -54 -83 -111t-91 -111.5t-96.5 -103.5t-100 -85.5t-101.5 -58t-100 -21.5q-5 0 -5 5t5 5q72 0 146 45t146.5 115.5t140 155t126.5 164.5q-35 -2 -67.5 -4
t-60.5 -2q-40 0 -67 5.5t-35 19.5q-8 16 10 39q4 4 7 1q5 -3 1 -7q-14 -18 -9 -29q5 -10 26 -14t52.5 -4.5t70.5 1.5t80 5l41 57q63 85 98 130t54 50h2q6 0 8 -1q9 -1 14 -10zM85 432q26 2 52.5 3.5t52.5 3.5q5 13 9.5 25.5t9.5 24.5q10 29 20.5 57t17.5 51t10 39t0 20l-1 1
h-3q-9 -2 -23.5 -16.5t-33.5 -38.5t-42 -55.5t-48 -65.5l-36 -50q4 0 7.5 0.5t7.5 0.5zM302 818q3 -8 -11 -21.5t-32 -26.5t-33.5 -23l-15.5 -10q-1 0 -2 -1q-1 0 -1.5 0.5t-1.5 0.5l-2 2v2q-1 0 0 1v1q4 9 16.5 22.5t25.5 26t24 21.5t12 10h1l1 1h10t9 -6z" />
    <glyph glyph-name="Acircumflex" unicode="&#xc2;" horiz-adv-x="453" 
d="M294 797q-3 0 -11 -6t-18 -16t-21.5 -22t-21.5 -25q-2 -2 -4 -2l-1 1q-4 0 -4 4q0 12 6.5 25t16.5 25t21.5 21t21.5 11q15 3 21 -8q5 -4 7.5 -9.5t4.5 -13.5q3 -9 8 -21.5t16 -26.5q3 -3 -1 -7q-4 -2 -7 1q-12 15 -17 28t-8 23q-5 16 -9 18zM274 656q7 -11 6.5 -31.5
t-7 -48.5t-18 -62.5t-24.5 -72.5q9 0 17.5 0.5t16.5 0.5q5 0 5 -6q0 -5 -5 -5h-37q-2 -5 -3.5 -9.5t-3.5 -9.5q-18 -49 -35 -99.5t-28 -95.5t-12.5 -80.5t11.5 -54.5q11 -17 38 -17q1 0 1 -1h2l1 -1q1 -1 1 -2v-3q0 -1 -1 -1v-1h-1l-1 -1h-2q-42 0 -61 28q-16 23 -17 60.5
t8.5 84t26 98.5t35.5 103q-25 -2 -50 -3.5t-51 -3.5q-6 0 -12 -0.5t-12 -1.5q-39 -54 -83 -111t-91 -111.5t-96.5 -103.5t-100 -85.5t-101.5 -58t-100 -21.5q-5 0 -5 5t5 5q72 0 146 45t146.5 115.5t140 155t126.5 164.5q-35 -2 -67.5 -4t-60.5 -2q-40 0 -67 5.5t-35 19.5
q-8 16 10 39q4 4 7 1q5 -3 1 -7q-14 -18 -9 -29q5 -10 26 -14t52.5 -4.5t70.5 1.5t80 5l41 57q63 85 98 130t54 50h2q6 0 8 -1q9 -1 14 -10zM85 432q26 2 52.5 3.5t52.5 3.5q5 13 9.5 25.5t9.5 24.5q10 29 20.5 57t17.5 51t10 39t0 20l-1 1h-3q-9 -2 -23.5 -16.5
t-33.5 -38.5t-42 -55.5t-48 -65.5l-36 -50q4 0 7.5 0.5t7.5 0.5z" />
    <glyph glyph-name="Atilde" unicode="&#xc3;" horiz-adv-x="453" 
d="M274 656q7 -11 6.5 -31.5t-7 -48.5t-18 -62.5t-24.5 -72.5q9 0 17.5 0.5t16.5 0.5q5 0 5 -6q0 -5 -5 -5h-37q-2 -5 -3.5 -9.5t-3.5 -9.5q-18 -49 -35 -99.5t-28 -95.5t-12.5 -80.5t11.5 -54.5q11 -17 38 -17q1 0 1 -1h2l1 -1q1 -1 1 -2v-3q0 -1 -1 -1v-1h-1l-1 -1h-2
q-42 0 -61 28q-16 23 -17 60.5t8.5 84t26 98.5t35.5 103q-25 -2 -50 -3.5t-51 -3.5q-6 0 -12 -0.5t-12 -1.5q-39 -54 -83 -111t-91 -111.5t-96.5 -103.5t-100 -85.5t-101.5 -58t-100 -21.5q-5 0 -5 5t5 5q72 0 146 45t146.5 115.5t140 155t126.5 164.5q-35 -2 -67.5 -4
t-60.5 -2q-40 0 -67 5.5t-35 19.5q-8 16 10 39q4 4 7 1q5 -3 1 -7q-14 -18 -9 -29q5 -10 26 -14t52.5 -4.5t70.5 1.5t80 5l41 57q63 85 98 130t54 50h2q6 0 8 -1q9 -1 14 -10zM85 432q26 2 52.5 3.5t52.5 3.5q5 13 9.5 25.5t9.5 24.5q10 29 20.5 57t17.5 51t10 39t0 20l-1 1
h-3q-9 -2 -23.5 -16.5t-33.5 -38.5t-42 -55.5t-48 -65.5l-36 -50q4 0 7.5 0.5t7.5 0.5zM341 752q5 2 7 -3q2 -4 -2 -6q-28 -18 -50 -18q-15 0 -26 6t-20 12q-12 9 -21 12t-23 -11q-3 -3 -7 -1q-4 3 0 7q14 15 25.5 21t21 5.5t18.5 -5t17 -9.5q13 -8 26.5 -13.5t33.5 3.5z
" />
    <glyph glyph-name="Aring" unicode="&#xc5;" horiz-adv-x="453" 
d="M274 656q7 -11 6.5 -31.5t-7 -48.5t-18 -62.5t-24.5 -72.5q9 0 17.5 0.5t16.5 0.5q5 0 5 -6q0 -5 -5 -5h-37q-2 -5 -3.5 -9.5t-3.5 -9.5q-18 -49 -35 -99.5t-28 -95.5t-12.5 -80.5t11.5 -54.5q11 -17 38 -17q1 0 1 -1h2l1 -1q1 -1 1 -2v-3q0 -1 -1 -1v-1h-1l-1 -1h-2
q-42 0 -61 28q-16 23 -17 60.5t8.5 84t26 98.5t35.5 103q-25 -2 -50 -3.5t-51 -3.5q-6 0 -12 -0.5t-12 -1.5q-39 -54 -83 -111t-91 -111.5t-96.5 -103.5t-100 -85.5t-101.5 -58t-100 -21.5q-5 0 -5 5t5 5q72 0 146 45t146.5 115.5t140 155t126.5 164.5q-35 -2 -67.5 -4
t-60.5 -2q-40 0 -67 5.5t-35 19.5q-8 16 10 39q4 4 7 1q5 -3 1 -7q-14 -18 -9 -29q5 -10 26 -14t52.5 -4.5t70.5 1.5t80 5l41 57q63 85 98 130t54 50h2q6 0 8 -1q9 -1 14 -10zM85 432q26 2 52.5 3.5t52.5 3.5q5 13 9.5 25.5t9.5 24.5q10 29 20.5 57t17.5 51t10 39t0 20l-1 1
h-3q-9 -2 -23.5 -16.5t-33.5 -38.5t-42 -55.5t-48 -65.5l-36 -50q4 0 7.5 0.5t7.5 0.5zM262 749q-14 2 -21 7.5t-10 11.5q-5 11 -3 26.5t13 32.5q11 16 29.5 30t42.5 13q5 0 5 -5t-5 -5q-10 0 -20.5 -9t-19.5 -21.5t-14.5 -27t-5.5 -26.5q0 -9 3 -13q2 -3 7 -4h4
q11 0 20.5 5.5t16.5 13.5t11 17t4 17q0 14 -13 14q-5 0 -5 5t5 5q23 0 23 -24q0 -10 -4.5 -20.5t-12.5 -20.5q-20 -22 -45 -22h-5v0z" />
    <glyph glyph-name="Egrave" unicode="&#xc8;" horiz-adv-x="337" 
d="M287 332q4 0 4 -6q-11 -49 -32 -88t-49 -66.5t-60 -42t-65 -14.5q-50 0 -76 23q-23 21 -23 58q0 32 17 67.5t44.5 66t63 51.5t73.5 24q-46 62 -23 130l9 20q-2 0 -3 1q-35 2 -60 0t-38 -25q-4 -4 -7 -1q-4 1 -2 7q16 26 44.5 28.5t63.5 0.5q2 -1 8 -1q22 37 62.5 64
t91.5 38q26 6 42.5 2t21.5 -16q6 -14 -7.5 -32.5t-41.5 -34.5q-35 -21 -69.5 -27t-66.5 -5q-7 -11 -12.5 -23t-9.5 -24q-8 -22 -9 -50t19 -54q5 -5 1 -7q-2 -1 -4 -1q-29 0 -59 -21.5t-55.5 -54t-41.5 -69t-16 -66.5q0 -27 15 -42q15 -16 48 -16q34 0 61.5 15t49.5 37t38 48
t26.5 49t15.5 38t5 16q0 5 6 3zM332 657q-13 -3 -28 -11t-30.5 -20.5t-30.5 -28.5t-27 -34q29 0 60.5 6t63.5 25q28 17 38 32t7 23q-5 11 -28 11q-12 0 -25 -3zM364 741q-11 0 -24 2.5t-24.5 6t-19.5 8t-8 9.5q-1 2 0 4.5t8 4.5h1q10 0 23 -4t24 -8.5t19 -8.5t9 -4
q3 -2 2 -6q0 -2 -4 -4h-6z" />
    <glyph glyph-name="Eacute" unicode="&#xc9;" horiz-adv-x="337" 
d="M287 332q4 0 4 -6q-11 -49 -32 -88t-49 -66.5t-60 -42t-65 -14.5q-50 0 -76 23q-23 21 -23 58q0 32 17 67.5t44.5 66t63 51.5t73.5 24q-46 62 -23 130l9 20q-2 0 -3 1q-35 2 -60 0t-38 -25q-4 -4 -7 -1q-4 1 -2 7q16 26 44.5 28.5t63.5 0.5q2 -1 8 -1q22 37 62.5 64
t91.5 38q26 6 42.5 2t21.5 -16q6 -14 -7.5 -32.5t-41.5 -34.5q-35 -21 -69.5 -27t-66.5 -5q-7 -11 -12.5 -23t-9.5 -24q-8 -22 -9 -50t19 -54q5 -5 1 -7q-2 -1 -4 -1q-29 0 -59 -21.5t-55.5 -54t-41.5 -69t-16 -66.5q0 -27 15 -42q15 -16 48 -16q34 0 61.5 15t49.5 37t38 48
t26.5 49t15.5 38t5 16q0 5 6 3zM332 657q-13 -3 -28 -11t-30.5 -20.5t-30.5 -28.5t-27 -34q29 0 60.5 6t63.5 25q28 17 38 32t7 23q-5 11 -28 11q-12 0 -25 -3zM365 798q3 -8 -11 -21.5t-32 -26.5t-33.5 -23l-15.5 -10q-1 0 -2 -1q-1 0 -1.5 0.5t-1.5 0.5l-2 2v2q-1 0 0 1v1
q4 9 16.5 22.5t25.5 26t24 21.5t12 10h1l1 1h10t9 -6z" />
    <glyph glyph-name="Ecircumflex" unicode="&#xca;" horiz-adv-x="337" 
d="M353 775q-3 0 -11 -6t-18 -16t-21.5 -22t-21.5 -25q-2 -2 -4 -2l-1 1q-4 0 -4 4q0 12 6.5 25t16.5 25t21.5 21t21.5 11q15 3 21 -8q5 -4 7.5 -9.5t4.5 -13.5q3 -9 8 -21.5t16 -26.5q3 -3 -1 -7q-4 -2 -7 1q-12 15 -17 28t-8 23q-5 16 -9 18zM287 332q4 0 4 -6
q-11 -49 -32 -88t-49 -66.5t-60 -42t-65 -14.5q-50 0 -76 23q-23 21 -23 58q0 32 17 67.5t44.5 66t63 51.5t73.5 24q-46 62 -23 130l9 20q-2 0 -3 1q-35 2 -60 0t-38 -25q-4 -4 -7 -1q-4 1 -2 7q16 26 44.5 28.5t63.5 0.5q2 -1 8 -1q22 37 62.5 64t91.5 38q26 6 42.5 2
t21.5 -16q6 -14 -7.5 -32.5t-41.5 -34.5q-35 -21 -69.5 -27t-66.5 -5q-7 -11 -12.5 -23t-9.5 -24q-8 -22 -9 -50t19 -54q5 -5 1 -7q-2 -1 -4 -1q-29 0 -59 -21.5t-55.5 -54t-41.5 -69t-16 -66.5q0 -27 15 -42q15 -16 48 -16q34 0 61.5 15t49.5 37t38 48t26.5 49t15.5 38
t5 16q0 5 6 3zM332 657q-13 -3 -28 -11t-30.5 -20.5t-30.5 -28.5t-27 -34q29 0 60.5 6t63.5 25q28 17 38 32t7 23q-5 11 -28 11q-12 0 -25 -3z" />
    <glyph glyph-name="Igrave" unicode="&#xcc;" horiz-adv-x="430" 
d="M311 634q16 -23 12.5 -67t-17.5 -98t-35 -113t-40 -111q-9 -24 -17 -46t-14 -41q24 7 47 10t41 -2q4 -1 4 -6q-1 -4 -6 -4q-19 5 -42 1.5t-48 -10.5l-8 -28q0 -5 -5 -5.5t-5 6.5v10.5t1 11.5l-32 -11q-23 -8 -38.5 -12.5t-25.5 -4.5q-5 0 -11 2q-4 4 -1 7q3 4 7 2
q5 -4 25 2t40 13q9 3 18.5 6.5t19.5 5.5q5 35 20 83t32 102q15 46 29.5 92.5t24 87.5t11 72t-8.5 45q-6 9 -20 9q-33 0 -69 -24.5t-66 -59t-49 -72t-19 -64.5q0 -16 7 -23q9 -9 25 -9q5 0 5 -5t-5 -5q-22 0 -32 12q-10 10 -10 30q0 19 9 43.5t25 50t36.5 50t44.5 43.5t49 31
t49 12q29 0 42 -19zM331 739q-11 0 -24 2.5t-24.5 6t-19.5 8t-8 9.5q-1 2 0 4.5t8 4.5h1q10 0 23 -4t24 -8.5t19 -8.5t9 -4q3 -2 2 -6q0 -2 -4 -4h-6z" />
    <glyph glyph-name="Iacute" unicode="&#xcd;" horiz-adv-x="430" 
d="M311 634q16 -23 12.5 -67t-17.5 -98t-35 -113t-40 -111q-9 -24 -17 -46t-14 -41q24 7 47 10t41 -2q4 -1 4 -6q-1 -4 -6 -4q-19 5 -42 1.5t-48 -10.5l-8 -28q0 -5 -5 -5.5t-5 6.5v10.5t1 11.5l-32 -11q-23 -8 -38.5 -12.5t-25.5 -4.5q-5 0 -11 2q-4 4 -1 7q3 4 7 2
q5 -4 25 2t40 13q9 3 18.5 6.5t19.5 5.5q5 35 20 83t32 102q15 46 29.5 92.5t24 87.5t11 72t-8.5 45q-6 9 -20 9q-33 0 -69 -24.5t-66 -59t-49 -72t-19 -64.5q0 -16 7 -23q9 -9 25 -9q5 0 5 -5t-5 -5q-22 0 -32 12q-10 10 -10 30q0 19 9 43.5t25 50t36.5 50t44.5 43.5t49 31
t49 12q29 0 42 -19zM340 817q3 -8 -11 -21.5t-32 -26.5t-33.5 -23l-15.5 -10q-1 0 -2 -1q-1 0 -1.5 0.5t-1.5 0.5l-2 2v2q-1 0 0 1v1q4 9 16.5 22.5t25.5 26t24 21.5t12 10h1l1 1h10t9 -6z" />
    <glyph glyph-name="Icircumflex" unicode="&#xce;" horiz-adv-x="430" 
d="M307 758q-3 0 -11 -6t-18 -16t-21.5 -22t-21.5 -25q-2 -2 -4 -2l-1 1q-4 0 -4 4q0 12 6.5 25t16.5 25t21.5 21t21.5 11q15 3 21 -8q5 -4 7.5 -9.5t4.5 -13.5q3 -9 8 -21.5t16 -26.5q3 -3 -1 -7q-4 -2 -7 1q-12 15 -17 28t-8 23q-5 16 -9 18zM311 634q16 -23 12.5 -67
t-17.5 -98t-35 -113t-40 -111q-9 -24 -17 -46t-14 -41q24 7 47 10t41 -2q4 -1 4 -6q-1 -4 -6 -4q-19 5 -42 1.5t-48 -10.5l-8 -28q0 -5 -5 -5.5t-5 6.5v10.5t1 11.5l-32 -11q-23 -8 -38.5 -12.5t-25.5 -4.5q-5 0 -11 2q-4 4 -1 7q3 4 7 2q5 -4 25 2t40 13q9 3 18.5 6.5
t19.5 5.5q5 35 20 83t32 102q15 46 29.5 92.5t24 87.5t11 72t-8.5 45q-6 9 -20 9q-33 0 -69 -24.5t-66 -59t-49 -72t-19 -64.5q0 -16 7 -23q9 -9 25 -9q5 0 5 -5t-5 -5q-22 0 -32 12q-10 10 -10 30q0 19 9 43.5t25 50t36.5 50t44.5 43.5t49 31t49 12q29 0 42 -19z" />
    <glyph glyph-name="b" unicode="b" horiz-adv-x="320" 
d="M343 331q4 -2 1 -7q-29 -44 -72.5 -86t-88.5 -79q-5 -11 -10 -20.5t-10 -19.5q-27 -45 -60 -68t-68 -23q-8 0 -10 5q-1 3 1.5 7.5t10.5 12.5t22.5 20t37.5 30l32 24q13 22 24.5 46.5t20 48t12.5 44t3 35.5q-1 13 -4.5 16.5t-6.5 4.5h-3q-7 0 -18.5 -5t-25 -14t-28 -22
t-26.5 -28q-47 -57 -38 -105v-2q0 -3 -3 -3.5t-5 0.5l-1 1q-18 21 -20.5 72.5t9 117t34 134.5t53.5 124q37 65 78 94t83 20q33 -6 39 -37q4 -27 -15.5 -69t-54.5 -88.5t-82.5 -92t-98.5 -80.5q-9 -42 -14 -78t-7 -63q5 15 13.5 30.5t21.5 30.5q25 30 56 51.5t50 21.5h5
q32 -5 32 -58q0 -44 -20 -95q41 35 79.5 73.5t64.5 77.5q2 4 7 1zM265 696q-53 9 -104 -70q-17 -26 -32.5 -58.5t-28 -68.5t-23.5 -73t-19 -73q48 34 92.5 78t78.5 88.5t52.5 84t14.5 64.5q-5 24 -31 28zM104 95q-23 -18 -43 -33.5t-25 -23.5q18 4 37.5 20.5t37.5 42.5z" />
    <glyph glyph-name="c" unicode="c" horiz-adv-x="201" 
d="M218 331q4 2 7 -1q3 -4 0 -7q-2 -2 -22.5 -20t-48.5 -39t-58 -38t-51 -17q-24 0 -34.5 11.5t-13.5 22.5q-5 17 -0.5 39.5t15 44.5t25.5 41t32 28q26 15 48 -1l4 -5h1q8 -8 9 -21.5t-4 -27.5q-10 -25 -31 -27q-5 0 -5 5q-1 2 0.5 3.5t3.5 1.5q16 2 23 21q4 11 3 21.5
t-7 16.5q-1 3 -4 4q-7 6 -19 0q-13 -7 -26 -26t-22.5 -42t-14.5 -46t-1 -38t18 -15q19 0 48.5 17t57 37.5t47.5 38t20 18.5z" />
    <glyph glyph-name="a" unicode="a" horiz-adv-x="266" 
d="M282 331q4 4 8 0q3 -4 0 -7q-5 -5 -19.5 -20t-35 -35t-44 -42.5t-46 -41t-41.5 -30.5t-30 -12q-6 0 -9 5q-4 7 -0.5 24.5t12 40.5t20.5 49t24 50q-11 -15 -23.5 -29t-25.5 -25.5t-25 -18.5t-23 -7h-4q-13 3 -17 17q-4 12 -2 30t9.5 37.5t20.5 38t30 30.5q16 11 39.5 15
t54.5 -18l5 8l1 1h1q0 1 1 1h2q10 0 14 -8q5 -8 1.5 -24t-13.5 -38.5t-24.5 -50.5t-32.5 -59l-18 -34t-12 -25q13 4 37.5 23t53 45t58 55t53.5 55zM24 242q13 0 30.5 13.5t34.5 34t33 43t27 40.5q-23 8 -42.5 -1.5t-33.5 -22.5t-24.5 -29t-17.5 -31t-9.5 -27t-0.5 -18
q0 -2 3 -2z" />
    <glyph glyph-name="cedilla" unicode="&#xb8;" horiz-adv-x="147" 
d="M60 315q0 -3 3 -6q4 -8 6 -21t-16 -32t-34 -19h-5q-8 2 -11 10q-3 11 9 23q3 5 7 1q3 -4 0 -7q-8 -8 -6 -14q0 -3 3 -3q11 -4 29 16q14 15 13 24.5t-4 17.5q-2 4 -3.5 8.5t2.5 8.5q3 3 7 0q3 -4 0 -7z" />
    <glyph glyph-name="caron" unicode="&#x2c7;" horiz-adv-x="181" 
d="M69 498q3 0 11 6t18 15.5t21 22t22 25.5q2 2 4 2l1 -1q4 0 4 -4q0 -12 -6.5 -25t-16.5 -25t-21.5 -21t-21.5 -11q-15 -3 -21 8q-5 4 -7.5 9.5t-4.5 13.5q-3 9 -8 21.5t-16 26.5q-3 3 1 7q4 2 7 -1q12 -15 17 -28t8 -23q5 -16 9 -18z" />
    <glyph glyph-name="dotlessi" unicode="&#x131;" horiz-adv-x="163" 
d="M-19 145q-8 10 -0.5 39.5t21.5 74.5q6 19 11.5 38.5t5.5 25.5q-4 3 -3 5.5t5 3.5q8 2 12.5 -1.5t6.5 -5.5q5 -8 4 -22t-6 -32.5t-14 -40.5t-19 -45l-14 -33q8 3 27.5 19.5t45.5 41t56 55.5t60 63q3 3 7 0q3 -4 0 -7q-7 -8 -22.5 -24.5t-35 -37t-41.5 -42t-42 -39
t-35.5 -29t-22.5 -11.5h-1q-1 0 -5 2q0 1 -0.5 1t-0.5 1z" />
    <glyph glyph-name="hungarumlaut" unicode="&#x2dd;" horiz-adv-x="235" 
d="M112 599q3 -8 -11 -21.5t-32 -26.5t-33.5 -23l-15.5 -10q-1 0 -2 -1q-1 0 -1.5 0.5t-1.5 0.5l-2 2v2q-1 0 0 1v1q4 9 16.5 22.5t25.5 26t24 21.5t12 10h1l1 1h10t9 -6zM201 599q3 -8 -11 -21.5t-32 -26.5t-33.5 -23l-15.5 -10q-1 0 -2 -1q-1 0 -1.5 0.5t-1.5 0.5l-2 2v2
q-1 0 0 1v1q4 9 16.5 22.5t25.5 26t24 21.5t12 10h1l1 1h10t9 -6z" />
    <glyph glyph-name="fraction" unicode="&#x2044;" horiz-adv-x="248" 
d="M303 604q4 -2 2 -7l-292 -487q-2 -2 -5 -2h-2q-4 4 -2 7l292 487q2 5 7 2z" />
    <glyph glyph-name="Zcaron" unicode="&#x17d;" horiz-adv-x="506" 
d="M574 618q-1 -5 -20.5 -26.5t-50 -52t-68 -67t-73.5 -71.5q24 4 51.5 6t59.5 2q5 0 5 -6q0 -5 -5 -5q-35 0 -66 -2t-58 -6l-28 -27q-19 -17 -41 -37t-45 -41t-47 -42t-47 -40q20 -5 41 -12.5t44 -16.5q29 -11 62 -22.5t69.5 -19t77 -8.5t85.5 9q6 0 6 -4q2 -6 -4 -6
q-41 -10 -84 -10q-63 0 -116.5 17t-98.5 35q-26 10 -48.5 18t-43.5 12q-38 -32 -69.5 -54t-46.5 -24h-7.5t-5.5 2q-4 0 -1 8q20 42 44 60t51 20q38 34 82.5 75.5t88.5 83.5l12 11l-29 -7q-20 -5 -35.5 -8t-27.5 -3q-16 0 -24 7q-4 3 -2 7q4 4 8 1q10 -7 29.5 -4t49.5 10
q10 2 21 5t25 5q62 58 105.5 98.5t72.5 66.5q-42 -13 -93 -14q-27 -1 -52 1t-46.5 6.5t-37 11t-22.5 14.5q-5 5 0 7q4 4 8 0q11 -12 52 -22t98 -8q66 3 112 21q23 21 36.5 32t21 16.5t10 5.5t4.5 -1l2 -2q4 3 6 1q3 -2 3 -6zM83 195q-38 -9 -65 -58q11 9 27.5 23.5
t37.5 34.5zM401 706q3 0 11 6t18 15.5t21 22t22 25.5q2 2 4 2l1 -1q4 0 4 -4q0 -12 -6.5 -25t-16.5 -25t-21.5 -21t-21.5 -11q-15 -3 -21 8q-5 4 -7.5 9.5t-4.5 13.5q-3 9 -8 21.5t-16 26.5q-3 3 1 7q4 2 7 -1q12 -15 17 -28t8 -23q5 -16 9 -18z" />
    <glyph glyph-name="zcaron" unicode="&#x17e;" horiz-adv-x="134" 
d="M183 42q5 0 5 -5t-6 -5q-44 3 -83 4.5t-74 0.5q-13 -46 -84 -142q-41 -54 -83.5 -75.5t-80.5 -21.5q-16 0 -30.5 3.5t-27.5 8.5q-32 16 -46.5 44t-6.5 58q9 33 37.5 56.5t72 39.5t98.5 25t116 12q1 5 1 9v9q0 21 -12 32q-15 13 -42 13q-8 0 -10 5q-5 9 9 28.5t43 55.5
q12 15 25.5 32t25 32.5t19.5 30t11 25.5q-8 2 -18.5 3t-20.5 1q-23 2 -42.5 5t-25.5 16q-9 16 13 48q13 18 32 38t38.5 36.5t37 27.5t28.5 11h2q6 0 10 -7q1 -3 1.5 -9.5t-6.5 -23.5t-25.5 -48.5t-54.5 -83.5q14 0 32 -2t26 -17q7 -16 -15 -46q-20 -28 -37 -48.5t-30 -35.5
q-19 -22 -29 -35t-8 -21q1 -8 22 -18q11 -5 22 -13.5t15 -23.5q1 -5 1.5 -11t-1.5 -14q39 1 78 0t78 -4zM-277 -181q14 -6 30.5 -9.5t35.5 -1.5q20 1 50.5 24t60.5 57t54.5 73.5t33.5 73.5q-77 -4 -133 -16t-94 -29t-59 -38.5t-27 -43.5q-7 -26 6 -51t42 -39zM17 332
q31 43 49 72t27 47t11 27t2 12q-15 -12 -36.5 -32t-41 -42.5t-30.5 -44.5t-5 -37v-1q6 0 12 -0.5t12 -0.5zM112 602q3 0 11 6t18 15.5t21 22t22 25.5q2 2 4 2l1 -1q4 0 4 -4q0 -12 -6.5 -25t-16.5 -25t-21.5 -21t-21.5 -11q-15 -3 -21 8q-5 4 -7.5 9.5t-4.5 13.5
q-3 9 -8 21.5t-16 26.5q-3 3 1 7q4 2 7 -1q12 -15 17 -28t8 -23q5 -16 9 -18z" />
    <glyph glyph-name="perthousand" unicode="&#x2030;" horiz-adv-x="461" 
d="M287 568q4 -1 2 -7l-270 -451q-2 -2 -5 -2h-2q-4 4 -2 7l271 451q2 6 6 2zM233 262q11 0 17 -6.5t6 -17.5q0 -9 -5 -20.5t-13 -21t-19.5 -16t-24.5 -6.5h-1q-2 0 -3.5 0.5t-3.5 0.5q-13 2 -19.5 8t-9.5 12q-6 12 -3 28t14 32t30 29t42 11q5 0 5 -5t-5 -5q-10 0 -20.5 -9
t-19.5 -21.5t-15 -27t-6 -26.5q0 -9 4 -12q1 -2 5 -4q2 0 3 -0.5t3 -0.5q10 0 19.5 5.5t17 13.5t11.5 17.5t4 17.5q0 6 -4 10q-3 3 -9 3q-5 0 -5 6q0 5 5 5zM75 390q-14 2 -21 7.5t-10 11.5q-5 11 -3 26.5t13 32.5q11 16 29.5 30t42.5 13q5 0 5 -5t-5 -5q-10 0 -20.5 -9
t-19.5 -21.5t-14.5 -27t-5.5 -26.5q0 -9 3 -13q2 -3 7 -4h4q11 0 20.5 5.5t16.5 13.5t11 17t4 17q0 14 -13 14q-5 0 -5 5t5 5q23 0 23 -24q0 -10 -4.5 -20.5t-12.5 -20.5q-20 -22 -45 -22h-5zM365 262q11 0 17 -6.5t6 -17.5q0 -9 -5 -20.5t-13 -21t-19.5 -16t-24.5 -6.5h-1
q-2 0 -3.5 0.5t-3.5 0.5q-13 2 -19.5 8t-9.5 12q-6 12 -3 28t14 32t30 29t42 11q5 0 5 -5t-5 -5q-10 0 -20.5 -9t-19.5 -21.5t-15 -27t-6 -26.5q0 -9 4 -12q1 -2 5 -4q2 0 3 -0.5t3 -0.5q10 0 19.5 5.5t17 13.5t11.5 17.5t4 17.5q0 6 -4 10q-3 3 -9 3q-5 0 -5 6q0 5 5 5z
" />
    <glyph glyph-name="circumflex" unicode="&#x2c6;" horiz-adv-x="181" 
d="M106 552q-3 0 -11 -6t-18 -16t-21.5 -22t-21.5 -25q-2 -2 -4 -2l-1 1q-4 0 -4 4q0 12 6.5 25t16.5 25t21.5 21t21.5 11q15 3 21 -8q5 -4 7.5 -9.5t4.5 -13.5q3 -9 8 -21.5t16 -26.5q3 -3 -1 -7q-4 -2 -7 1q-12 15 -17 28t-8 23q-5 16 -9 18z" />
    <glyph glyph-name="Scaron" unicode="&#x160;" horiz-adv-x="341" 
d="M208 379q31 -7 54 -17t31 -27q11 -21 -6 -47q-15 -26 -41 -50t-58 -44q-21 -16 -43 -29t-42.5 -22.5t-38 -14.5t-28.5 -5h-2q-4 0 -5 1q-4 -1 -7.5 -1h-5.5q-13 3 -15 11q-1 2 -1 6.5t6 13.5t19.5 23.5t39.5 36.5q3 3 7 -1q5 -2 0 -7q-19 -18 -29 -30.5t-14.5 -20.5
t-4.5 -12.5v-5.5q1 -3 6 -3q25 3 66.5 25t83.5 50q49 33 68 61.5t12.5 50.5t-38 37t-83.5 23q-23 4 -44 7.5t-38 8.5t-29 11.5t-16 16.5q-6 13 3 28q27 49 71.5 92.5t94 76.5t98 52.5t83.5 19.5h2q35 0 48.5 -22.5t8.5 -57.5q-2 -4 -6 -4q-5 2 -4 6q8 55 -27 65l-13 3
q-28 2 -69.5 -13.5t-86.5 -46.5q-54 -36 -96 -82.5t-64 -92.5q-6 -13 -1 -22q4 -7 13.5 -12.5t23 -9.5t29.5 -7.5t32 -6.5q14 -3 28 -5.5t28 -6.5zM255 782q3 0 11 6t18 15.5t21 22t22 25.5q2 2 4 2l1 -1q4 0 4 -4q0 -12 -6.5 -25t-16.5 -25t-21.5 -21t-21.5 -11
q-15 -3 -21 8q-5 4 -7.5 9.5t-4.5 13.5q-3 9 -8 21.5t-16 26.5q-3 3 1 7q4 2 7 -1q12 -15 17 -28t8 -23q5 -16 9 -18z" />
    <glyph glyph-name="endash" unicode="&#x2013;" horiz-adv-x="322" 
d="M272 351q-29 6 -63.5 6.5t-64.5 -1t-50 -3.5l-20 -2q-5 0 -5 4q-2 6 4 6q2 0 22.5 2.5t50 4t64 0.5t64.5 -7q4 0 4 -6q-2 -4 -5 -4h-1z" />
    <glyph glyph-name="emdash" unicode="&#x2014;" horiz-adv-x="398" 
d="M336 344q-20 4 -46.5 6t-55.5 3t-57.5 0.5t-51.5 -1t-37 -1l-14 -0.5q-5 0 -5 4q-2 6 4 6q2 0 32.5 1.5t72 1.5t86 -2t74.5 -8q4 0 4 -6q-2 -4 -5 -4h-1z" />
    <glyph glyph-name="ellipsis" unicode="&#x2026;" horiz-adv-x="393" 
d="M46 198q9 0 14 -7q6 -8 3 -15q-2 -8 -8.5 -14t-15.5 -6t-13 6q-6 7 -4 16q2 8 9 14t15 6zM177 198q9 0 14 -7q6 -8 3 -15q-2 -8 -8.5 -14t-15.5 -6t-13 6q-6 7 -4 16q2 8 9 14t15 6zM308 198q9 0 14 -7q6 -8 3 -15q-2 -8 -8.5 -14t-15.5 -6t-13 6q-6 7 -4 16q2 8 9 14
t15 6z" />
    <glyph glyph-name="quotedblright" unicode="&#x201d;" horiz-adv-x="202" 
d="M122 578q0 -12 -6 -26t-16.5 -26.5t-24.5 -21t-29 -8.5q-5 0 -5 5q0 4 5 4q13 0 25 7.5t21 19t14.5 24t5.5 22.5q-14 -9 -22 -9.5t-12 2.5q-7 6 -4 17q2 6 7.5 11.5t13.5 5.5q13 0 21 -8l4 -5q0 -1 0.5 -1t0.5 -1q3 -3 1 -5v-7zM219 578q0 -12 -6 -26t-16.5 -26.5
t-24.5 -21t-29 -8.5q-5 0 -5 5q0 4 5 4q13 0 25 7.5t21 19t14.5 24t5.5 22.5q-14 -9 -22 -9.5t-12 2.5q-7 6 -4 17q2 6 7.5 11.5t13.5 5.5q13 0 21 -8l4 -5q0 -1 0.5 -1t0.5 -1q3 -3 1 -5v-7z" />
    <glyph glyph-name="quotedblleft" unicode="&#x201c;" horiz-adv-x="202" 
d="M139 523q0 12 6 26t16.5 26.5t24.5 21t29 8.5q5 0 5 -5q0 -4 -5 -4q-13 0 -25 -7.5t-21 -19t-14.5 -24t-5.5 -22.5q14 9 22 9.5t12 -2.5q7 -6 4 -17q-2 -6 -7.5 -11.5t-13.5 -5.5q-13 0 -21 8l-4 5q0 1 -0.5 1t-0.5 1q-3 3 -1 5v7zM42 523q0 12 6 26t16.5 26.5t24.5 21
t29 8.5q5 0 5 -5q0 -4 -5 -4q-13 0 -25 -7.5t-21 -19t-14.5 -24t-5.5 -22.5q14 9 22 9.5t12 -2.5q7 -6 4 -17q-2 -6 -7.5 -11.5t-13.5 -5.5q-13 0 -21 8l-4 5q0 1 -0.5 1t-0.5 1q-3 3 -1 5v7z" />
    <glyph glyph-name="quoteleft" unicode="&#x2018;" horiz-adv-x="105" 
d="M42 523q0 12 6 26t16.5 26.5t24.5 21t29 8.5q5 0 5 -5q0 -4 -5 -4q-13 0 -25 -7.5t-21 -19t-14.5 -24t-5.5 -22.5q14 9 22 9.5t12 -2.5q7 -6 4 -17q-2 -6 -7.5 -11.5t-13.5 -5.5q-13 0 -21 8l-4 5q0 1 -0.5 1t-0.5 1q-3 3 -1 5v7v0z" />
    <glyph glyph-name="quoteright" unicode="&#x2019;" horiz-adv-x="105" 
d="M122 578q0 -12 -6 -26t-16.5 -26.5t-24.5 -21t-29 -8.5q-5 0 -5 5q0 4 5 4q13 0 25 7.5t21 19t14.5 24t5.5 22.5q-14 -9 -22 -9.5t-12 2.5q-7 6 -4 17q2 6 7.5 11.5t13.5 5.5q13 0 21 -8l4 -5q0 -1 0.5 -1t0.5 -1q3 -3 1 -5v-7v0z" />
    <glyph glyph-name="guilsinglright" unicode="&#x203a;" horiz-adv-x="362" 
d="M246 361q2 0 6 -1t5 -5q1 -5 -6.5 -8.5t-28.5 -11.5q-14 -5 -31 -12t-33.5 -15t-30 -17.5t-19.5 -19.5q0 -2 -4 -2h-2q-5 4 -2 7q6 12 20 22t30.5 18.5t34.5 15.5t33 12l19 7q-20 1 -42 9t-40 19t-30.5 23t-13.5 21q-2 11 10 14q3 1 5 -1l13.5 -11t32.5 -25t39.5 -26
t34.5 -13z" />
    <glyph glyph-name="guillemotright" unicode="&#xbb;" horiz-adv-x="437" 
d="M246 361q2 0 6 -1t5 -5q1 -5 -6.5 -8.5t-28.5 -11.5q-14 -5 -31 -12t-33.5 -15t-30 -17.5t-19.5 -19.5q0 -2 -4 -2h-2q-5 4 -2 7q6 12 20 22t30.5 18.5t34.5 15.5t33 12l19 7q-20 1 -42 9t-40 19t-30.5 23t-13.5 21q-2 11 10 14q3 1 5 -1l13.5 -11t32.5 -25t39.5 -26
t34.5 -13zM336 361q2 0 6 -1t5 -5q1 -5 -6.5 -8.5t-28.5 -11.5q-14 -5 -31 -12t-33.5 -15t-30 -17.5t-19.5 -19.5q0 -2 -4 -2h-2q-5 4 -2 7q6 12 20 22t30.5 18.5t34.5 15.5t33 12l19 7q-20 1 -42 9t-40 19t-30.5 23t-13.5 21q-2 11 10 14q3 1 5 -1l13.5 -11t32.5 -25
t39.5 -26t34.5 -13z" />
    <glyph glyph-name="guilsinglleft" unicode="&#x2039;" horiz-adv-x="275" 
d="M233 437q10 -2 8 -10q-1 -9 -18 -21.5t-41 -24.5t-51.5 -21t-49.5 -9q4 -2 7.5 -3.5t8.5 -3.5q13 -6 28 -13t28.5 -15.5t23 -19t11.5 -22.5q0 -5 -5 -5t-5 4q-2 10 -11 19t-22 17t-27 14.5t-25 11.5q-17 8 -23.5 11.5t-5.5 8.5q1 4 5 5t7 1q15 1 40.5 13t50.5 26
t43.5 25.5l18.5 11.5q1 0 1.5 0.5t2.5 -0.5z" />
    <glyph glyph-name="guillemotleft" unicode="&#xab;" horiz-adv-x="396" 
d="M233 437q10 -2 8 -10q-1 -9 -18 -21.5t-41 -24.5t-51.5 -21t-49.5 -9q4 -2 7.5 -3.5t8.5 -3.5q13 -6 28 -13t28.5 -15.5t23 -19t11.5 -22.5q0 -5 -5 -5t-5 4q-2 10 -11 19t-22 17t-27 14.5t-25 11.5q-17 8 -23.5 11.5t-5.5 8.5q1 4 5 5t7 1q15 1 40.5 13t50.5 26
t43.5 25.5l18.5 11.5q1 0 1.5 0.5t2.5 -0.5zM325 428q10 -2 8 -10q-1 -9 -18 -21.5t-41 -24.5t-51.5 -21t-49.5 -9q4 -2 7.5 -3.5t8.5 -3.5q13 -6 28 -13t28.5 -15.5t23 -19t11.5 -22.5q0 -5 -5 -5t-5 4q-2 10 -11 19t-22 17t-27 14.5t-25 11.5q-17 8 -23.5 11.5t-5.5 8.5
q1 4 5 5t7 1q15 1 40.5 13t50.5 26t43.5 25.5l18.5 11.5q1 0 1.5 0.5t2.5 -0.5z" />
    <glyph glyph-name="minus" unicode="&#x2212;" horiz-adv-x="322" 
d="M272 351q-29 6 -63.5 6.5t-64.5 -1t-50 -3.5l-20 -2q-5 0 -5 4q-2 6 4 6q2 0 22.5 2.5t50 4t64 0.5t64.5 -7q4 0 4 -6q-2 -4 -5 -4h-1z" />
    <glyph glyph-name="dieresis" unicode="&#xa8;" horiz-adv-x="202" 
d="M45 591q9 0 14 -7q6 -8 3 -15q-2 -8 -8.5 -14t-15.5 -6t-13 6q-6 7 -4 16q2 8 9 14t15 6zM147 591q9 0 14 -7q6 -8 3 -15q-2 -8 -8.5 -14t-15.5 -6t-13 6q-6 7 -4 16q2 8 9 14t15 6z" />
    <glyph glyph-name="scaron" unicode="&#x161;" horiz-adv-x="252" 
d="M276 324q-48 -63 -90 -97.5t-80 -56.5q16 -39 18 -72.5t-23 -56.5q-35 -30 -65.5 -46t-54.5 -16q-5 0 -10.5 1t-10.5 3q-22 9 -27 35q-2 19 11.5 46.5t51.5 54.5q15 11 30.5 19.5t32.5 17.5l5 3l-8 15q-18 34 -35.5 72t-25.5 75t-1.5 71.5t36.5 62.5q36 41 53 36
q3 -1 6.5 -4.5t4.5 -11.5q2 -12 -3 -32.5t-14 -42t-20.5 -41.5t-23.5 -31q8 -21 18 -42.5t21 -43.5l30 -63q37 22 78 55.5t88 95.5q4 4 7 1q4 -4 1 -7zM93 49q11 14 1.5 40t-26.5 61l-4 -3q-17 -9 -32.5 -17.5t-29.5 -18.5q-36 -25 -48.5 -50t-10.5 -42q3 -20 21 -27
q22 -8 56.5 7t72.5 50zM38 448q-19 -21 -19 -49t11 -60q10 11 20.5 29.5t18.5 38t12 38t3 29.5q0 2 -1 4.5t-3 2.5h-1q-3 0 -12 -5t-29 -28zM52 569q3 0 11 6t18 15.5t21 22t22 25.5q2 2 4 2l1 -1q4 0 4 -4q0 -12 -6.5 -25t-16.5 -25t-21.5 -21t-21.5 -11q-15 -3 -21 8
q-5 4 -7.5 9.5t-4.5 13.5q-3 9 -8 21.5t-16 26.5q-3 3 1 7q4 2 7 -1q12 -15 17 -28t8 -23q5 -16 9 -18z" />
    <glyph glyph-name="Ydieresis" unicode="&#x178;" horiz-adv-x="507" 
d="M505 566q2 -13 -7.5 -52.5t-29 -92.5t-48 -113.5t-64 -116t-76.5 -100t-85 -64.5q-32 -15 -62 -15q-10 0 -15 1q-63 2 -117 76q-2 3 2 7q4 2 6 -1q52 -64 110 -72h1q10 0 15 1q39 6 77.5 40t74 83t67 108t57 115t43.5 103.5t28 73.5l-35 -40t-47 -51t-55 -55t-57 -51.5
t-54.5 -39.5t-46.5 -20h-6q-12 -2 -18 6q-8 12 4 40.5t37 75.5q12 23 25 47.5t22 47.5t12.5 42t-3.5 30q-8 14 -35 14q-33 0 -69 -24.5t-66 -59t-49 -72t-19 -64.5q0 -16 7 -23q9 -9 25 -9q5 0 5 -5t-5 -5q-22 0 -32 12q-10 10 -10 30q0 19 9 43.5t25 50t36.5 50t44.5 43.5
t49 31t49 12q51 2 66 -25q9 -16 5.5 -39.5t-15.5 -50.5t-28.5 -55.5t-32.5 -54.5q-7 -11 -15 -23.5t-14 -24t-9.5 -19.5t-1.5 -11h5q22 4 52.5 24.5t63 49t64.5 61t58.5 61.5t44.5 50.5t22 26.5q2 4 6 4l5 -2.5t4 -8.5zM350 687q9 0 14 -7q6 -8 3 -15q-2 -8 -8.5 -14
t-15.5 -6t-13 6q-6 7 -4 16q2 8 9 14t15 6zM452 687q9 0 14 -7q6 -8 3 -15q-2 -8 -8.5 -14t-15.5 -6t-13 6q-6 7 -4 16q2 8 9 14t15 6z" />
    <glyph glyph-name="OE" unicode="&#x152;" horiz-adv-x="510" 
d="M253 138q-23 21 -23 58v5q-33 -43 -76 -69t-96 -26q-2 -1 -5 -1q-8 0 -18 5q-13 6 -22 20q-13 24 -13 60q0 32 8.5 72t23.5 81t35 80.5t43 70.5t47 49.5t48 18.5h1q23 0 36 -16q6 -10 9 -20q32 21 67 32q-5 39 -19.5 61t-37.5 22q-28 0 -61.5 -9t-66 -24.5t-59.5 -37
t-42 -45.5q-24 -40 -4 -78q2 -5 -2 -7q-5 -2 -7 2q-23 42 5 88q15 25 43.5 47t62 38.5t68 25.5t63.5 9q26 0 43.5 -23t23.5 -66q18 4 39 6q11 1 22 0.5t23 -1.5q2 -1 8 -1q22 37 62.5 64t91.5 38q26 6 42.5 2t21.5 -16q6 -14 -7.5 -32.5t-41.5 -34.5q-35 -21 -69.5 -27
t-66.5 -5q-7 -11 -12.5 -23t-9.5 -24q-8 -22 -9 -50t19 -54q5 -5 1 -7q-2 -1 -4 -1q-29 0 -59 -21.5t-55.5 -54t-41.5 -69t-16 -66.5q0 -27 15 -42q15 -16 48 -16q34 0 61.5 15t49.5 37t38 48t26.5 49t15.5 38t5 16q0 5 6 3q4 0 4 -6q-11 -49 -32 -88t-49 -66.5t-60 -42
t-65 -14.5q-50 0 -76 23zM58 116q54 0 98 29t77 76q5 26 18 51.5t33 48.5q18 48 27.5 97.5t9.5 94.5q0 9 -0.5 18t-1.5 17q-17 -5 -33.5 -13.5t-32.5 -19.5v-9q0 -26 -11 -58t-28 -60t-37.5 -47.5t-38.5 -19.5q-8 0 -12.5 3.5t-6.5 6.5q-12 23 20 79q18 29 44.5 58t58.5 52
q-1 10 -8 20q-9 12 -29 12q-17 -5 -37.5 -30.5t-41.5 -63t-41 -83t-34 -89.5t-21 -82.5t-2 -61.5q2 -9 5 -14.5t7 -8.5q7 -3 18 -3zM411 556q-8 0 -15 0.5t-13 0.5h-2q-14 1 -26.5 -1t-25.5 -5q1 -9 1.5 -18.5t0.5 -19.5q0 -41 -7.5 -85t-22.5 -88q27 26 59.5 44t67.5 21
q-46 62 -23 130l9 20q-2 0 -3 1zM576 657q-13 -3 -28 -11t-30.5 -20.5t-30.5 -28.5t-27 -34q29 0 60.5 6t63.5 25q28 17 38 32t7 23q-5 11 -28 11q-12 0 -25 -3zM243 509q-30 -22 -54 -49.5t-41 -55.5q-14 -23 -19.5 -41.5t-0.5 -26.5q2 -5 10 -5q15 0 33.5 18t34.5 44
t26.5 56.5t10.5 56.5v3z" />
    <glyph glyph-name="questiondown" unicode="&#xbf;" horiz-adv-x="399" 
d="M112.023 201.043q-9.99902 19.998 -1.5 47.9971q8.5 27.998 28.998 61.9961q20.499 33.998 48.4971 71.4951q27.999 37.498 56.9971 74.4961q41.9971 54.9961 76.9951 103.993t44.9971 83.9951q0 3 5 3h1q4 0 4 -5q-2 -18.999 -12.5 -42.9971
q-10.499 -23.999 -26.498 -50.9971t-35.998 -56.9961q-19.998 -29.999 -41.9971 -60.9971q-23.999 -34.9971 -47.4971 -69.4951q-23.499 -34.498 -40.498 -64.9961t-23.998 -55.4971q-7 -24.998 0 -40.9971q9.99902 -18.999 45.9971 -21.999q32.998 -2 59.4961 6.5
q26.499 8.49902 46.9971 22.498q20.499 13.999 34.498 30.498t21.999 29.499q23.998 36.9971 31.998 77.4951q7.99902 40.4971 -4 63.4961q-9.99902 15.999 -26.998 15.999q-5 0 -5 5q0 4.99902 5 4.99902q23.998 0 34.998 -20.999q13.999 -25.998 6.49902 -68.9951
q-7.49902 -42.9971 -33.498 -82.9951q-30.998 -47.9971 -75.9951 -72.4951q-44.9971 -24.499 -95.9941 -20.499q-67.9961 2 -81.9951 32.998zM379.007 696.013q-5.99902 0 -8.99902 4q-4 6.99902 -1 18.998q3 8 9.49902 13.5q6.5 5.49902 12.5 5.49902q5.99902 0 8.99902 -4
q5 -7.99902 1 -18.998q-3 -8 -9.49902 -13.5q-6.5 -5.49902 -12.5 -5.49902z" />
    <glyph glyph-name="exclamdown" unicode="&#xa1;" horiz-adv-x="289" 
d="M90.0156 167.045q-12.999 -6 -18.999 0q-12.999 12.999 16.499 85.9941q29.498 72.9961 87.4951 194.988q29.998 64.9961 55.9961 120.993q25.999 55.9961 33.998 87.9941q2 3 5 3h1q6.99902 0 3.99902 -5q-1.99902 -28.998 -16.498 -74.9951
q-14.5 -45.9971 -33.998 -98.9941q-19.499 -52.9971 -41.998 -106.493q-22.498 -53.4971 -41.9971 -97.9941t-32.998 -73.9951q-13.499 -29.499 -15.499 -33.498q0 -2 -2 -2zM270.005 694.013q-7 0 -10 4q-3.99902 6.99902 0 18.998q3 8 9.5 13.5
q6.49902 5.49902 12.499 5.49902t9 -4q3.99902 -6.99902 0 -18.998q-7 -18.999 -20.999 -18.999z" />
    <glyph glyph-name="oe" unicode="&#x153;" horiz-adv-x="345" 
d="M362 331q4 2 7 -1q3 -4 0 -7q-2 -2 -22.5 -20t-48.5 -39t-58 -38t-51 -17q-28 0 -43 15q-14 12 -14 35q0 11 3 24.5t11 27.5q-7 2 -12.5 6t-10.5 7q-10 7 -17 15q-7 -28 -16.5 -56t-20 -50.5t-21.5 -37.5t-20 -16h-2q-22 0 -27 53q-2 23 1 53.5t11 59t22 50.5t35 28
q0 7 0.5 13.5t2.5 12.5q8 23 30 23q5 0 9.5 -2t7.5 -10q4 -8 4 -27q0 -15 -3.5 -37t-9.5 -46l9.5 -9.5t9.5 -8.5q9 -8 24 -12q17 29 46 50.5t64 21.5q17 0 17 -16q0 -10 -9 -21t-24 -21q-10 -7 -27 -14t-41 -9q-8 -14 -12.5 -29t-4.5 -31q0 -14 7 -23q5 -8 21 -8
q19 0 48.5 17t57 37.5t47.5 38t20 18.5zM73 397q-23 -8 -38 -65q-7 -24 -10 -48.5t-3.5 -44.5t1 -33.5t4.5 -16.5q6 0 15 14.5t19 37t20 50.5t17 57q-17 22 -25 49zM80 446q-2 -6 -2.5 -12t1.5 -14v-2q2 -14 7.5 -29t15.5 -29q5 20 7.5 39t2.5 34t-3 23q-4 7 -8 7
q-15 0 -21 -17zM262 382q-17 0 -39 -17t-39 -43q20 3 34 8.5t23 11.5q14 10 21 19.5t7 14.5q0 2 -1 4t-6 2z" />
    <glyph glyph-name="plusminus" unicode="&#xb1;" horiz-adv-x="243" 
d="M234 361q4 0 4 -6q-2 -4 -5 -4h-1q-17 4 -37 5.5t-40 1.5q-7 -24 -17 -50t-24 -50q-2 -3 -5 -3l-2 1q-4 2 -2 6q9 23 15.5 48t11.5 48q-39 -1 -68 -4t-30 -3q-5 0 -5 4q-2 6 4 6q2 1 31.5 4t69.5 4q8 37 10 63.5t2 27.5t3 4q7 4 13 -2q7 -7 6 -33t-10 -61q20 0 39.5 -1.5
t36.5 -5.5zM224 216q-29 6 -63.5 6.5t-64.5 -1t-50 -3.5l-20 -2q-5 0 -5 4q-2 6 4 6q2 0 22.5 2.5t50 4t64 0.5t64.5 -7q4 0 4 -6q-2 -4 -5 -4h-1z" />
    <glyph glyph-name="AE" unicode="&#xc6;" horiz-adv-x="578" 
d="M451 656q8 -11 6.5 -34t-9.5 -55q8 0 16 -0.5t16 -0.5q2 -1 8 -1q22 37 62.5 64t91.5 38q26 6 42.5 2t21.5 -16q6 -14 -7.5 -32.5t-41.5 -34.5q-35 -21 -69.5 -27t-66.5 -5q-7 -11 -12.5 -23t-9.5 -24q-8 -22 -9 -50t19 -54q5 -5 1 -7q-2 -1 -4 -1q-29 0 -59 -21.5
t-55.5 -54t-41.5 -69t-16 -66.5q0 -27 15 -42q15 -16 48 -16q34 0 61.5 15t49.5 37t38 48t26.5 49t15.5 38t5 16q0 5 6 3q4 0 4 -6q-11 -49 -32 -88t-49 -66.5t-60 -42t-65 -14.5q-50 0 -75 21q0 -17 2.5 -31t9.5 -23q11 -17 38 -17q1 0 1 -1h2l1 -1q1 -1 1 -2v-3
q0 -1 -1 -1v-1h-1l-1 -1h-2q-42 0 -61 28q-14 20 -16.5 50t3.5 68q0 13 5 31q10 46 26 96t35 101q-25 -2 -50 -3.5t-51 -3.5q-6 0 -12 -0.5t-12 -1.5q-39 -54 -83 -111t-91 -111.5t-96.5 -103.5t-100 -85.5t-101.5 -58t-100 -21.5q-5 0 -5 5t5 5q72 0 146 45t146.5 115.5
t140 155t126.5 164.5q-35 -2 -67.5 -4t-60.5 -2q-40 0 -67 5.5t-35 19.5q-8 16 10 39q4 4 7 1q5 -3 1 -7q-14 -18 -9 -29q5 -10 26 -14t52.5 -4.5t70.5 1.5t80 5l41 57q63 85 98 130t54 50h2q6 0 8 -1q9 -1 14 -10zM262 432q26 2 52.5 3.5t52.5 3.5q5 13 9.5 25.5t9.5 24.5
l23 65q-18 -6 -28 -23q-4 -4 -7 -1q-4 1 -2 7q8 12 18 18.5t23 9.5q12 35 19 60t2 31l-1 1h-3q-9 -2 -23.5 -16.5t-33.5 -38.5t-42 -55.5t-48 -65.5l-36 -50q4 0 7.5 0.5t7.5 0.5zM479 556q-9 1 -17 1h-16q-7 -26 -17 -55t-21 -61q9 0 17.5 0.5t16.5 0.5q5 0 5 -6
q0 -5 -5 -5h-37q-2 -5 -3.5 -9.5t-3.5 -9.5l-24 -68q26 25 57.5 41.5t64.5 19.5q-46 62 -23 130l9 20q-2 0 -3 1zM644 657q-13 -3 -28 -11t-30.5 -20.5t-30.5 -28.5t-27 -34q29 0 60.5 6t63.5 25q28 17 38 32t7 23q-5 11 -28 11q-12 0 -25 -3z" />
    <glyph glyph-name="Adieresis" unicode="&#xc4;" horiz-adv-x="465" 
d="M451 656q7 -11 6.5 -31.5t-7 -48.5t-18 -62.5t-24.5 -72.5q9 0 17.5 0.5t16.5 0.5q5 0 5 -6q0 -5 -5 -5h-37q-2 -5 -3.5 -9.5t-3.5 -9.5q-18 -49 -35 -99.5t-28 -95.5t-12.5 -80.5t11.5 -54.5q11 -17 38 -17q1 0 1 -1h2l1 -1q1 -1 1 -2v-3q0 -1 -1 -1v-1h-1l-1 -1h-2
q-42 0 -61 28q-16 23 -17 60.5t8.5 84t26 98.5t35.5 103q-25 -2 -50 -3.5t-51 -3.5q-6 0 -12 -0.5t-12 -1.5q-39 -54 -83 -111t-91 -111.5t-96.5 -103.5t-100 -85.5t-101.5 -58t-100 -21.5q-5 0 -5 5t5 5q72 0 146 45t146.5 115.5t140 155t126.5 164.5q-35 -2 -67.5 -4
t-60.5 -2q-40 0 -67 5.5t-35 19.5q-8 16 10 39q4 4 7 1q5 -3 1 -7q-14 -18 -9 -29q5 -10 26 -14t52.5 -4.5t70.5 1.5t80 5l41 57q63 85 98 130t54 50h2q6 0 8 -1q9 -1 14 -10zM262 432q26 2 52.5 3.5t52.5 3.5q5 13 9.5 25.5t9.5 24.5q10 29 20.5 57t17.5 51t10 39t0 20
l-1 1h-3q-9 -2 -23.5 -16.5t-33.5 -38.5t-42 -55.5t-48 -65.5l-36 -50q4 0 7.5 0.5t7.5 0.5zM391 777q9 0 14 -7q6 -8 3 -15q-2 -8 -8.5 -14t-15.5 -6t-13 6q-6 7 -4 16q2 8 9 14t15 6zM493 777q9 0 14 -7q6 -8 3 -15q-2 -8 -8.5 -14t-15.5 -6t-13 6q-6 7 -4 16q2 8 9 14
t15 6z" />
    <glyph glyph-name="Ccedilla" unicode="&#xc7;" horiz-adv-x="246" 
d="M330 667q33 0 41 -24q5 -14 -2 -29.5t-24 -27.5q-26 -18 -47.5 -27t-40 -11.5t-35.5 -1t-32 4.5q-31 -40 -59.5 -88.5t-50.5 -97t-35 -94t-13 -79.5q0 -33 12 -49q6 -9 17 -14q3 1 6 0v-2q4 -1 8 -1h9q24 0 46.5 15t42 37.5t35.5 48.5t28 48.5t18.5 37.5t6.5 16q2 5 7 3
q4 -2 2 -6q-1 -2 -8 -18.5t-19 -40t-28.5 -50.5t-37 -49.5t-44 -37.5t-49.5 -15h-14q4 -8 5.5 -21t-15.5 -31q-18 -19 -34 -19h-5q-8 2 -11 10q-3 11 9 23q3 5 7 1q3 -4 0 -7q-8 -8 -6 -14q0 -3 3 -3q11 -4 29 16q14 15 13 24.5t-4 17.5q-1 2 -2 3t-1 3q-24 6 -39 24
q-19 23 -19 69q0 36 12.5 80.5t34 90.5t50 90.5t60.5 82.5q-23 2 -48 -5.5t-56 -35.5q-4 -4 -8 0q-2 4 1 7q36 32 64.5 39t54.5 5q41 45 84 73.5t81 28.5zM339 594q14 10 20 22.5t3 23.5q-6 17 -32 17q-29 0 -63 -26.5t-69 -70.5q15 -2 30 -3.5t32 1.5t36.5 11t42.5 25z" />
    <glyph glyph-name="Edieresis" unicode="&#xcb;" horiz-adv-x="280" 
d="M301 332q4 0 4 -6q-11 -49 -32 -88t-49 -66.5t-60 -42t-65 -14.5q-50 0 -76 23q-23 21 -23 58q0 32 17 67.5t44.5 66t63 51.5t73.5 24q-46 62 -23 130l9 20q-2 0 -3 1q-35 2 -60 0t-38 -25q-4 -4 -7 -1q-4 1 -2 7q16 26 44.5 28.5t63.5 0.5q2 -1 8 -1q22 37 62.5 64
t91.5 38q26 6 42.5 2t21.5 -16q6 -14 -7.5 -32.5t-41.5 -34.5q-35 -21 -69.5 -27t-66.5 -5q-7 -11 -12.5 -23t-9.5 -24q-8 -22 -9 -50t19 -54q5 -5 1 -7q-2 -1 -4 -1q-29 0 -59 -21.5t-55.5 -54t-41.5 -69t-16 -66.5q0 -27 15 -42q15 -16 48 -16q34 0 61.5 15t49.5 37t38 48
t26.5 49t15.5 38t5 16q0 5 6 3zM346 657q-13 -3 -28 -11t-30.5 -20.5t-30.5 -28.5t-27 -34q29 0 60.5 6t63.5 25q28 17 38 32t7 23q-5 11 -28 11q-12 0 -25 -3zM291 794q9 0 14 -7q6 -8 3 -15q-2 -8 -8.5 -14t-15.5 -6t-13 6q-6 7 -4 16q2 8 9 14t15 6zM393 794q9 0 14 -7
q6 -8 3 -15q-2 -8 -8.5 -14t-15.5 -6t-13 6q-6 7 -4 16q2 8 9 14t15 6z" />
    <glyph glyph-name="Idieresis" unicode="&#xcf;" horiz-adv-x="284" 
d="M255 634q16 -23 12.5 -67t-17.5 -98t-35 -113t-40 -111q-9 -24 -17 -46t-14 -41q24 7 47 10t41 -2q4 -1 4 -6q-1 -4 -6 -4q-19 5 -42 1.5t-48 -10.5l-8 -28q0 -5 -5 -5.5t-5 6.5v10.5t1 11.5l-32 -11q-23 -8 -38.5 -12.5t-25.5 -4.5q-5 0 -11 2q-4 4 -1 7q3 4 7 2
q5 -4 25 2t40 13q9 3 18.5 6.5t19.5 5.5q5 35 20 83t32 102q15 46 29.5 92.5t24 87.5t11 72t-8.5 45q-6 9 -20 9q-33 0 -69 -24.5t-66 -59t-49 -72t-19 -64.5q0 -16 7 -23q9 -9 25 -9q5 0 5 -5t-5 -5q-22 0 -32 12q-10 10 -10 30q0 19 9 43.5t25 50t36.5 50t44.5 43.5t49 31
t49 12q29 0 42 -19zM176 777q9 0 14 -7q6 -8 3 -15q-2 -8 -8.5 -14t-15.5 -6t-13 6q-6 7 -4 16q2 8 9 14t15 6zM278 777q9 0 14 -7q6 -8 3 -15q-2 -8 -8.5 -14t-15.5 -6t-13 6q-6 7 -4 16q2 8 9 14t15 6z" />
    <glyph glyph-name="Eth" unicode="&#xd0;" horiz-adv-x="537" 
d="M367 406q-19 4 -39.5 5.5t-41.5 1.5q-8 -28 -23 -57q-21 -43 -46 -66.5t-50 -23.5q-13 0 -16 14q-5 17 9.5 52t38.5 77q-7 -1 -12.5 -1t-9.5 -1t-8 -1q-5 0 -5 4q-2 6 4 6q1 0 11 1t26 3q9 15 18 29.5t19 28.5q8 12 16 23.5t16 22.5v17q0 17 -2.5 35t-9 33t-18.5 24.5
t-31 9.5q-34 0 -70 -24.5t-66 -59t-49 -72t-19 -64.5q0 -15 8 -23q7 -9 25 -9q5 0 5 -5t-5 -5q-22 0 -32 12q-10 10 -10 30q0 19 9 43.5t25 50t36.5 50t44.5 43.5t49 31t49 12q37 0 60 -23.5t30 -68.5q34 42 65 70.5t56 40.5q27 14 42.5 8.5t23.5 -14.5q15 -10 21 -33.5
t5.5 -55t-6.5 -67.5t-15 -71q-18 -65 -46.5 -127.5t-66.5 -114t-84.5 -86.5t-98.5 -43q-5 -1 -9.5 -1.5t-9.5 -0.5h-1q-23 0 -35 12q-11 11 -11 32q0 22 12.5 49t33 51t47 40.5t54.5 16.5q5 0 5 -5t-5 -5q-26 0 -50.5 -15.5t-43.5 -38t-31 -48t-12 -45.5q0 -17 8 -25
q9 -9 28 -9q7 0 17 2q30 6 61.5 31t62 61.5t58.5 82t50 92.5q25 53 42 103t24 91.5t4.5 72.5t-15.5 47q-18 22 -55 4q-28 -14 -60.5 -46t-63.5 -71q1 -5 1 -9.5v-9.5q0 -25 -4 -51.5t-12 -52.5q20 0 40.5 -1.5t39.5 -5.5q4 0 4 -6q-2 -4 -5 -4h-1zM167 276q16 0 35 24t36 66
q5 11 8.5 22.5t7.5 23.5q-12 0 -23 -0.5t-20 -1.5q-26 -45 -40 -79.5t-10 -48.5q0 -6 6 -6zM217 421l40 2q5 20 9 40.5t6 40.5l-22 -32z" />
    <glyph glyph-name="Ntilde" unicode="&#xd1;" horiz-adv-x="458" 
d="M441 685q14 -3 21 -13q10 -14 9 -40t-8.5 -61t-20 -77.5t-27.5 -88.5q-15 -48 -30 -97.5t-25 -95t-13 -85t6 -66.5q2 -4 -1.5 -6t-7.5 2q-17 34 -16.5 82.5t11.5 104.5t28.5 115.5t34.5 113.5q11 34 21 67t16.5 59.5t8.5 45.5t-4 27q-2 2 -8 4h-1q-19 0 -49.5 -33.5
t-66 -84.5t-72 -112t-68.5 -118q-9 -22 -19 -43.5t-19.5 -39t-17 -29t-12.5 -13.5q-4 -4 -7 -1.5t1 8.5q11 27 26.5 66.5t31.5 84.5t31 90.5t24.5 84.5t12.5 67t-4 37q-4 4 -9 3q-36 -6 -73.5 -33.5t-67.5 -63t-49 -72t-17 -58.5q1 -25 31 -25q5 0 5 -5t-5 -5q-38 0 -41 34
q-2 27 18 65t52 75t70.5 64.5t74.5 33.5q32 6 40 -26q5 -20 1 -49.5t-12 -62t-18.5 -64t-19.5 -54.5q29 50 61.5 101.5t63 93t57.5 68t46 26.5q1 0 1 -1h5v0zM425 759q5 2 7 -3q2 -4 -2 -6q-28 -18 -50 -18q-15 0 -26 6t-20 12q-12 9 -21 12t-23 -11q-3 -3 -7 -1q-4 3 0 7
q14 15 25.5 21t21 5.5t18.5 -5t17 -9.5q13 -8 26.5 -13.5t33.5 3.5z" />
    <glyph glyph-name="Ograve" unicode="&#xd2;" 
d="M381 536q5 0 5 -5t-5 -5q-14 1 -26.5 -1t-25.5 -5q1 -9 1.5 -18.5t0.5 -19.5q0 -63 -18 -134t-52.5 -132t-85.5 -101t-117 -40q-2 -1 -5 -1q-8 0 -18 5q-13 6 -22 20q-13 24 -13 60q0 32 8.5 72t23.5 81t35 80.5t43 70.5t47 49.5t48 18.5h1q23 0 36 -16q6 -10 9 -20
q32 21 67 32q-5 39 -19.5 61t-37.5 22q-28 0 -61.5 -9t-66 -24.5t-59.5 -37t-42 -45.5q-24 -40 -4 -78q2 -5 -2 -7q-5 -2 -7 2q-23 42 5 88q15 25 43.5 47t62 38.5t68 25.5t63.5 9q26 0 43.5 -23t23.5 -66q13 3 26 5t27 1zM58 85q63 0 112 39t82.5 98.5t51 129t17.5 130.5
q0 9 -0.5 18t-1.5 17q-17 -5 -33.5 -13.5t-32.5 -19.5v-9q0 -26 -11 -58t-28 -60t-37.5 -47.5t-38.5 -19.5q-8 0 -12.5 3.5t-6.5 6.5q-12 23 20 79q18 29 44.5 58t58.5 52q-1 10 -8 20q-9 12 -29 12q-17 -5 -37.5 -30.5t-41.5 -63t-41 -83t-34 -89.5t-21 -82.5t-2 -61.5
q2 -9 5 -14.5t7 -8.5q7 -3 18 -3zM243 478q-30 -22 -54 -49.5t-41 -55.5q-14 -23 -19.5 -41.5t-0.5 -26.5q2 -5 10 -5q15 0 33.5 18t34.5 44t26.5 56.5t10.5 56.5v3zM262 685q-11 0 -24 2.5t-24.5 6t-19.5 8t-8 9.5q-1 2 0 4.5t8 4.5h1q10 0 23 -4t24 -8.5t19 -8.5t9 -4
q3 -2 2 -6q0 -2 -4 -4h-6z" />
    <glyph glyph-name="Oacute" unicode="&#xd3;" 
d="M381 536q5 0 5 -5t-5 -5q-14 1 -26.5 -1t-25.5 -5q1 -9 1.5 -18.5t0.5 -19.5q0 -63 -18 -134t-52.5 -132t-85.5 -101t-117 -40q-2 -1 -5 -1q-8 0 -18 5q-13 6 -22 20q-13 24 -13 60q0 32 8.5 72t23.5 81t35 80.5t43 70.5t47 49.5t48 18.5h1q23 0 36 -16q6 -10 9 -20
q32 21 67 32q-5 39 -19.5 61t-37.5 22q-28 0 -61.5 -9t-66 -24.5t-59.5 -37t-42 -45.5q-24 -40 -4 -78q2 -5 -2 -7q-5 -2 -7 2q-23 42 5 88q15 25 43.5 47t62 38.5t68 25.5t63.5 9q26 0 43.5 -23t23.5 -66q13 3 26 5t27 1zM58 85q63 0 112 39t82.5 98.5t51 129t17.5 130.5
q0 9 -0.5 18t-1.5 17q-17 -5 -33.5 -13.5t-32.5 -19.5v-9q0 -26 -11 -58t-28 -60t-37.5 -47.5t-38.5 -19.5q-8 0 -12.5 3.5t-6.5 6.5q-12 23 20 79q18 29 44.5 58t58.5 52q-1 10 -8 20q-9 12 -29 12q-17 -5 -37.5 -30.5t-41.5 -63t-41 -83t-34 -89.5t-21 -82.5t-2 -61.5
q2 -9 5 -14.5t7 -8.5q7 -3 18 -3zM243 478q-30 -22 -54 -49.5t-41 -55.5q-14 -23 -19.5 -41.5t-0.5 -26.5q2 -5 10 -5q15 0 33.5 18t34.5 44t26.5 56.5t10.5 56.5v3zM281 714q3 -8 -11 -21.5t-32 -26.5t-33.5 -23l-15.5 -10q-1 0 -2 -1q-1 0 -1.5 0.5t-1.5 0.5l-2 2v2
q-1 0 0 1v1q4 9 16.5 22.5t25.5 26t24 21.5t12 10h1l1 1h10t9 -6z" />
    <glyph glyph-name="Ocircumflex" unicode="&#xd4;" 
d="M381 536q5 0 5 -5t-5 -5q-14 1 -26.5 -1t-25.5 -5q1 -9 1.5 -18.5t0.5 -19.5q0 -63 -18 -134t-52.5 -132t-85.5 -101t-117 -40q-2 -1 -5 -1q-8 0 -18 5q-13 6 -22 20q-13 24 -13 60q0 32 8.5 72t23.5 81t35 80.5t43 70.5t47 49.5t48 18.5h1q23 0 36 -16q6 -10 9 -20
q32 21 67 32q-5 39 -19.5 61t-37.5 22q-28 0 -61.5 -9t-66 -24.5t-59.5 -37t-42 -45.5q-24 -40 -4 -78q2 -5 -2 -7q-5 -2 -7 2q-23 42 5 88q15 25 43.5 47t62 38.5t68 25.5t63.5 9q26 0 43.5 -23t23.5 -66q13 3 26 5t27 1zM58 85q63 0 112 39t82.5 98.5t51 129t17.5 130.5
q0 9 -0.5 18t-1.5 17q-17 -5 -33.5 -13.5t-32.5 -19.5v-9q0 -26 -11 -58t-28 -60t-37.5 -47.5t-38.5 -19.5q-8 0 -12.5 3.5t-6.5 6.5q-12 23 20 79q18 29 44.5 58t58.5 52q-1 10 -8 20q-9 12 -29 12q-17 -5 -37.5 -30.5t-41.5 -63t-41 -83t-34 -89.5t-21 -82.5t-2 -61.5
q2 -9 5 -14.5t7 -8.5q7 -3 18 -3zM243 478q-30 -22 -54 -49.5t-41 -55.5q-14 -23 -19.5 -41.5t-0.5 -26.5q2 -5 10 -5q15 0 33.5 18t34.5 44t26.5 56.5t10.5 56.5v3zM269 741q-3 0 -11 -6t-18 -16t-21.5 -22t-21.5 -25q-2 -2 -4 -2l-1 1q-4 0 -4 4q0 12 6.5 25t16.5 25
t21.5 21t21.5 11q15 3 21 -8q5 -4 7.5 -9.5t4.5 -13.5q3 -9 8 -21.5t16 -26.5q3 -3 -1 -7q-4 -2 -7 1q-12 15 -17 28t-8 23q-5 16 -9 18z" />
    <glyph glyph-name="Otilde" unicode="&#xd5;" 
d="M381 536q5 0 5 -5t-5 -5q-14 1 -26.5 -1t-25.5 -5q1 -9 1.5 -18.5t0.5 -19.5q0 -63 -18 -134t-52.5 -132t-85.5 -101t-117 -40q-2 -1 -5 -1q-8 0 -18 5q-13 6 -22 20q-13 24 -13 60q0 32 8.5 72t23.5 81t35 80.5t43 70.5t47 49.5t48 18.5h1q23 0 36 -16q6 -10 9 -20
q32 21 67 32q-5 39 -19.5 61t-37.5 22q-28 0 -61.5 -9t-66 -24.5t-59.5 -37t-42 -45.5q-24 -40 -4 -78q2 -5 -2 -7q-5 -2 -7 2q-23 42 5 88q15 25 43.5 47t62 38.5t68 25.5t63.5 9q26 0 43.5 -23t23.5 -66q13 3 26 5t27 1zM58 85q63 0 112 39t82.5 98.5t51 129t17.5 130.5
q0 9 -0.5 18t-1.5 17q-17 -5 -33.5 -13.5t-32.5 -19.5v-9q0 -26 -11 -58t-28 -60t-37.5 -47.5t-38.5 -19.5q-8 0 -12.5 3.5t-6.5 6.5q-12 23 20 79q18 29 44.5 58t58.5 52q-1 10 -8 20q-9 12 -29 12q-17 -5 -37.5 -30.5t-41.5 -63t-41 -83t-34 -89.5t-21 -82.5t-2 -61.5
q2 -9 5 -14.5t7 -8.5q7 -3 18 -3zM243 478q-30 -22 -54 -49.5t-41 -55.5q-14 -23 -19.5 -41.5t-0.5 -26.5q2 -5 10 -5q15 0 33.5 18t34.5 44t26.5 56.5t10.5 56.5v3zM328 682q5 2 7 -3q2 -4 -2 -6q-28 -18 -50 -18q-15 0 -26 6t-20 12q-12 9 -21 12t-23 -11q-3 -3 -7 -1
q-4 3 0 7q14 15 25.5 21t21 5.5t18.5 -5t17 -9.5q13 -8 26.5 -13.5t33.5 3.5z" />
    <glyph glyph-name="Odieresis" unicode="&#xd6;" 
d="M381 536q5 0 5 -5t-5 -5q-14 1 -26.5 -1t-25.5 -5q1 -9 1.5 -18.5t0.5 -19.5q0 -63 -18 -134t-52.5 -132t-85.5 -101t-117 -40q-2 -1 -5 -1q-8 0 -18 5q-13 6 -22 20q-13 24 -13 60q0 32 8.5 72t23.5 81t35 80.5t43 70.5t47 49.5t48 18.5h1q23 0 36 -16q6 -10 9 -20
q32 21 67 32q-5 39 -19.5 61t-37.5 22q-28 0 -61.5 -9t-66 -24.5t-59.5 -37t-42 -45.5q-24 -40 -4 -78q2 -5 -2 -7q-5 -2 -7 2q-23 42 5 88q15 25 43.5 47t62 38.5t68 25.5t63.5 9q26 0 43.5 -23t23.5 -66q13 3 26 5t27 1zM58 85q63 0 112 39t82.5 98.5t51 129t17.5 130.5
q0 9 -0.5 18t-1.5 17q-17 -5 -33.5 -13.5t-32.5 -19.5v-9q0 -26 -11 -58t-28 -60t-37.5 -47.5t-38.5 -19.5q-8 0 -12.5 3.5t-6.5 6.5q-12 23 20 79q18 29 44.5 58t58.5 52q-1 10 -8 20q-9 12 -29 12q-17 -5 -37.5 -30.5t-41.5 -63t-41 -83t-34 -89.5t-21 -82.5t-2 -61.5
q2 -9 5 -14.5t7 -8.5q7 -3 18 -3zM243 478q-30 -22 -54 -49.5t-41 -55.5q-14 -23 -19.5 -41.5t-0.5 -26.5q2 -5 10 -5q15 0 33.5 18t34.5 44t26.5 56.5t10.5 56.5v3zM222 731q9 0 14 -7q6 -8 3 -15q-2 -8 -8.5 -14t-15.5 -6t-13 6q-6 7 -4 16q2 8 9 14t15 6zM324 731
q9 0 14 -7q6 -8 3 -15q-2 -8 -8.5 -14t-15.5 -6t-13 6q-6 7 -4 16q2 8 9 14t15 6z" />
    <glyph glyph-name="Oslash" unicode="&#xd8;" 
d="M381 536q5 0 5 -5t-5 -5q-14 1 -26.5 -1t-25.5 -5q1 -9 1.5 -18.5t0.5 -19.5q0 -63 -18 -134t-52.5 -132t-85.5 -101t-117 -40q-2 -1 -5 -1q-8 0 -18 5t-17 12l-27 -46q-2 -2 -5 -2h-4q-4 4 -2 9l30 51q-10 20 -10 56q0 32 8.5 72t23.5 81t35 80.5t43 70.5t47 49.5
t48 18.5h1q23 0 36 -16q4 -8 7 -15l51 85q-16 25 -39 25q-28 0 -61.5 -9t-66 -24.5t-59.5 -37t-42 -45.5q-24 -40 -4 -78q2 -5 -2 -7q-5 -2 -7 2q-23 42 5 88q15 25 43.5 47t62 38.5t68 25.5t63.5 9q27 0 44 -25l50 82q1 7 9 4q4 -2 2 -9l-53 -89q11 -21 15 -52q13 3 26 5
t27 1zM58 85q63 0 112 39t82.5 98.5t51 129t17.5 130.5q0 9 -0.5 18t-1.5 17q-17 -5 -33 -13.5t-32 -18.5l-1 -3v-7q0 -26 -11 -58t-28 -60t-37.5 -47.5t-38.5 -19.5h-1l-109 -182q5 -16 12 -20q7 -3 18 -3zM205 521q-15 -4 -34.5 -27t-39.5 -57.5t-39 -76.5t-34 -84
t-23.5 -81t-8.5 -66l99 164q-4 2 -6 7q-12 23 20 79q18 29 44.5 58t58.5 52q-1 10 -8 20q-9 12 -29 12zM128 305q0 -1 2 -3l100 166q-26 -20 -47 -45t-35 -50q-14 -23 -19.5 -41.5t-0.5 -26.5zM144 300q15 3 31 20t30.5 41t24.5 52t12 52zM318 527q-5 25 -12 45l-40 -68
q13 8 25.5 13t26.5 10z" />
    <glyph glyph-name="Ugrave" unicode="&#xd9;" horiz-adv-x="515" 
d="M581 654q-2 -3 -10 -19.5t-22 -42t-32.5 -58.5t-40.5 -70q-21 -45 -39 -94.5t-29.5 -101t-14 -102t9.5 -96.5q2 -5 -3.5 -5.5t-6.5 2.5q-25 60 -25 124t16 127q-28 -41 -57 -78t-56.5 -65t-52.5 -45t-46 -17h-6q-17 2 -24 13q-8 11 -6 30.5t10 45t20.5 56.5t26.5 64
q15 34 29.5 69t24 66.5t12 57t-6.5 39.5q-10 16 -38 16q-34 0 -70 -24.5t-65.5 -59t-48.5 -72t-19 -64.5q0 -16 7 -23q7 -9 24 -9q5 0 5 -5t-5 -5q-21 0 -31 12q-11 11 -11 30t9 43.5t25 50t37 50t45 43.5t49 31t49 12q45 0 63 -27q13 -20 10.5 -50.5t-13.5 -67t-28.5 -76.5
t-35.5 -78q-11 -25 -22 -49.5t-18.5 -45.5t-11 -36.5t1.5 -22.5q2 -4 11 -4q21 0 47.5 19t55.5 50t59 72t59 85q14 46 33.5 89t40.5 80t41.5 66t35.5 47q20 24 26 27.5t8 2.5q5 -3 4 -7zM415 655q-11 0 -24 2.5t-24.5 6t-19.5 8t-8 9.5q-1 2 0 4.5t8 4.5h1q10 0 23 -4
t24 -8.5t19 -8.5t9 -4q3 -2 2 -6q0 -2 -4 -4h-6z" />
    <glyph glyph-name="Uacute" unicode="&#xda;" horiz-adv-x="515" 
d="M581 654q-2 -3 -10 -19.5t-22 -42t-32.5 -58.5t-40.5 -70q-21 -45 -39 -94.5t-29.5 -101t-14 -102t9.5 -96.5q2 -5 -3.5 -5.5t-6.5 2.5q-25 60 -25 124t16 127q-28 -41 -57 -78t-56.5 -65t-52.5 -45t-46 -17h-6q-17 2 -24 13q-8 11 -6 30.5t10 45t20.5 56.5t26.5 64
q15 34 29.5 69t24 66.5t12 57t-6.5 39.5q-10 16 -38 16q-34 0 -70 -24.5t-65.5 -59t-48.5 -72t-19 -64.5q0 -16 7 -23q7 -9 24 -9q5 0 5 -5t-5 -5q-21 0 -31 12q-11 11 -11 30t9 43.5t25 50t37 50t45 43.5t49 31t49 12q45 0 63 -27q13 -20 10.5 -50.5t-13.5 -67t-28.5 -76.5
t-35.5 -78q-11 -25 -22 -49.5t-18.5 -45.5t-11 -36.5t1.5 -22.5q2 -4 11 -4q21 0 47.5 19t55.5 50t59 72t59 85q14 46 33.5 89t40.5 80t41.5 66t35.5 47q20 24 26 27.5t8 2.5q5 -3 4 -7zM423 709q3 -8 -11 -21.5t-32 -26.5t-33.5 -23l-15.5 -10q-1 0 -2 -1q-1 0 -1.5 0.5
t-1.5 0.5l-2 2v2q-1 0 0 1v1q4 9 16.5 22.5t25.5 26t24 21.5t12 10h1l1 1h10t9 -6z" />
    <glyph glyph-name="Ucircumflex" unicode="&#xdb;" horiz-adv-x="515" 
d="M581 654q-2 -3 -10 -19.5t-22 -42t-32.5 -58.5t-40.5 -70q-21 -45 -39 -94.5t-29.5 -101t-14 -102t9.5 -96.5q2 -5 -3.5 -5.5t-6.5 2.5q-25 60 -25 124t16 127q-28 -41 -57 -78t-56.5 -65t-52.5 -45t-46 -17h-6q-17 2 -24 13q-8 11 -6 30.5t10 45t20.5 56.5t26.5 64
q15 34 29.5 69t24 66.5t12 57t-6.5 39.5q-10 16 -38 16q-34 0 -70 -24.5t-65.5 -59t-48.5 -72t-19 -64.5q0 -16 7 -23q7 -9 24 -9q5 0 5 -5t-5 -5q-21 0 -31 12q-11 11 -11 30t9 43.5t25 50t37 50t45 43.5t49 31t49 12q45 0 63 -27q13 -20 10.5 -50.5t-13.5 -67t-28.5 -76.5
t-35.5 -78q-11 -25 -22 -49.5t-18.5 -45.5t-11 -36.5t1.5 -22.5q2 -4 11 -4q21 0 47.5 19t55.5 50t59 72t59 85q14 46 33.5 89t40.5 80t41.5 66t35.5 47q20 24 26 27.5t8 2.5q5 -3 4 -7zM396 721q-3 0 -11 -6t-18 -16t-21.5 -22t-21.5 -25q-2 -2 -4 -2l-1 1q-4 0 -4 4
q0 12 6.5 25t16.5 25t21.5 21t21.5 11q15 3 21 -8q5 -4 7.5 -9.5t4.5 -13.5q3 -9 8 -21.5t16 -26.5q3 -3 -1 -7q-4 -2 -7 1q-12 15 -17 28t-8 23q-5 16 -9 18z" />
    <glyph glyph-name="Udieresis" unicode="&#xdc;" horiz-adv-x="515" 
d="M581 654q-2 -3 -10 -19.5t-22 -42t-32.5 -58.5t-40.5 -70q-21 -45 -39 -94.5t-29.5 -101t-14 -102t9.5 -96.5q2 -5 -3.5 -5.5t-6.5 2.5q-25 60 -25 124t16 127q-28 -41 -57 -78t-56.5 -65t-52.5 -45t-46 -17h-6q-17 2 -24 13q-8 11 -6 30.5t10 45t20.5 56.5t26.5 64
q15 34 29.5 69t24 66.5t12 57t-6.5 39.5q-10 16 -38 16q-34 0 -70 -24.5t-65.5 -59t-48.5 -72t-19 -64.5q0 -16 7 -23q7 -9 24 -9q5 0 5 -5t-5 -5q-21 0 -31 12q-11 11 -11 30t9 43.5t25 50t37 50t45 43.5t49 31t49 12q45 0 63 -27q13 -20 10.5 -50.5t-13.5 -67t-28.5 -76.5
t-35.5 -78q-11 -25 -22 -49.5t-18.5 -45.5t-11 -36.5t1.5 -22.5q2 -4 11 -4q21 0 47.5 19t55.5 50t59 72t59 85q14 46 33.5 89t40.5 80t41.5 66t35.5 47q20 24 26 27.5t8 2.5q5 -3 4 -7zM343 725q9 0 14 -7q6 -8 3 -15q-2 -8 -8.5 -14t-15.5 -6t-13 6q-6 7 -4 16q2 8 9 14
t15 6zM445 725q9 0 14 -7q6 -8 3 -15q-2 -8 -8.5 -14t-15.5 -6t-13 6q-6 7 -4 16q2 8 9 14t15 6z" />
    <glyph glyph-name="Yacute" unicode="&#xdd;" horiz-adv-x="507" 
d="M505 566q2 -13 -7.5 -52.5t-29 -92.5t-48 -113.5t-64 -116t-76.5 -100t-85 -64.5q-32 -15 -62 -15q-10 0 -15 1q-63 2 -117 76q-2 3 2 7q4 2 6 -1q52 -64 110 -72h1q10 0 15 1q39 6 77.5 40t74 83t67 108t57 115t43.5 103.5t28 73.5l-35 -40t-47 -51t-55 -55t-57 -51.5
t-54.5 -39.5t-46.5 -20h-6q-12 -2 -18 6q-8 12 4 40.5t37 75.5q12 23 25 47.5t22 47.5t12.5 42t-3.5 30q-8 14 -35 14q-33 0 -69 -24.5t-66 -59t-49 -72t-19 -64.5q0 -16 7 -23q9 -9 25 -9q5 0 5 -5t-5 -5q-22 0 -32 12q-10 10 -10 30q0 19 9 43.5t25 50t36.5 50t44.5 43.5
t49 31t49 12q51 2 66 -25q9 -16 5.5 -39.5t-15.5 -50.5t-28.5 -55.5t-32.5 -54.5q-7 -11 -15 -23.5t-14 -24t-9.5 -19.5t-1.5 -11h5q22 4 52.5 24.5t63 49t64.5 61t58.5 61.5t44.5 50.5t22 26.5q2 4 6 4l5 -2.5t4 -8.5zM449 733q3 -8 -11 -21.5t-32 -26.5t-33.5 -23
l-15.5 -10q-1 0 -2 -1q-1 0 -1.5 0.5t-1.5 0.5l-2 2v2q-1 0 0 1v1q4 9 16.5 22.5t25.5 26t24 21.5t12 10h1l1 1h10t9 -6z" />
    <glyph glyph-name="germandbls" unicode="&#xdf;" horiz-adv-x="234" 
d="M178 289q10 -8 20.5 -16.5t17 -18.5t7 -22t-9.5 -27q0 -1 -0.5 -1.5t-0.5 -1.5l-1 -1q-18 -25 -41 -34t-41 -7q-23 3 -29 20q-4 8 -1 22.5t21 36.5q3 3 7 0q4 -2 1 -7q-27 -30 -19 -48q5 -13 21 -14q15 -2 36 6.5t37 30.5q6 8 -1 16.5t-25 22.5q-10 7 -20.5 16.5
t-17 20.5t-7 24t9.5 29v1q10 15 23 43t23 58.5t14.5 58t-3.5 41.5q-6 11 -22 11t-35.5 -33t-41 -93.5t-44 -147t-44.5 -192.5l-1 -4q0 -4 -5 -4v1h-2l-2 2v2q-3 8 -0.5 34.5t9 64.5t16.5 83.5t23 90.5t28.5 85.5t32.5 68.5q34 53 66 52q22 0 31 -16q10 -18 4.5 -49
t-17 -63.5t-25 -60.5t-20.5 -39t2 -20t26 -22z" />
    <glyph glyph-name="agrave" unicode="&#xe0;" horiz-adv-x="266" 
d="M282 331q4 4 8 0q3 -4 0 -7q-5 -5 -19.5 -20t-35 -35t-44 -42.5t-46 -41t-41.5 -30.5t-30 -12q-6 0 -9 5q-4 7 -0.5 24.5t12 40.5t20.5 49t24 50q-11 -15 -23.5 -29t-25.5 -25.5t-25 -18.5t-23 -7h-4q-13 3 -17 17q-4 12 -2 30t9.5 37.5t20.5 38t30 30.5q16 11 39.5 15
t54.5 -18l5 8l1 1h1q0 1 1 1h2q10 0 14 -8q5 -8 1.5 -24t-13.5 -38.5t-24.5 -50.5t-32.5 -59l-18 -34t-12 -25q13 4 37.5 23t53 45t58 55t53.5 55zM24 242q13 0 30.5 13.5t34.5 34t33 43t27 40.5q-23 8 -42.5 -1.5t-33.5 -22.5t-24.5 -29t-17.5 -31t-9.5 -27t-0.5 -18
q0 -2 3 -2zM169 485q-11 0 -24 2.5t-24.5 6t-19.5 8t-8 9.5q-1 2 0 4.5t8 4.5h1q10 0 23 -4t24 -8.5t19 -8.5t9 -4q3 -2 2 -6q0 -2 -4 -4h-6z" />
    <glyph glyph-name="acircumflex" unicode="&#xe2;" horiz-adv-x="266" 
d="M282 331q4 4 8 0q3 -4 0 -7q-5 -5 -19.5 -20t-35 -35t-44 -42.5t-46 -41t-41.5 -30.5t-30 -12q-6 0 -9 5q-4 7 -0.5 24.5t12 40.5t20.5 49t24 50q-11 -15 -23.5 -29t-25.5 -25.5t-25 -18.5t-23 -7h-4q-13 3 -17 17q-4 12 -2 30t9.5 37.5t20.5 38t30 30.5q16 11 39.5 15
t54.5 -18l5 8l1 1h1q0 1 1 1h2q10 0 14 -8q5 -8 1.5 -24t-13.5 -38.5t-24.5 -50.5t-32.5 -59l-18 -34t-12 -25q13 4 37.5 23t53 45t58 55t53.5 55zM24 242q13 0 30.5 13.5t34.5 34t33 43t27 40.5q-23 8 -42.5 -1.5t-33.5 -22.5t-24.5 -29t-17.5 -31t-9.5 -27t-0.5 -18
q0 -2 3 -2zM151 536q-3 0 -11 -6t-18 -16t-21.5 -22t-21.5 -25q-2 -2 -4 -2l-1 1q-4 0 -4 4q0 12 6.5 25t16.5 25t21.5 21t21.5 11q15 3 21 -8q5 -4 7.5 -9.5t4.5 -13.5q3 -9 8 -21.5t16 -26.5q3 -3 -1 -7q-4 -2 -7 1q-12 15 -17 28t-8 23q-5 16 -9 18z" />
    <glyph glyph-name="atilde" unicode="&#xe3;" horiz-adv-x="266" 
d="M282 331q4 4 8 0q3 -4 0 -7q-5 -5 -19.5 -20t-35 -35t-44 -42.5t-46 -41t-41.5 -30.5t-30 -12q-6 0 -9 5q-4 7 -0.5 24.5t12 40.5t20.5 49t24 50q-11 -15 -23.5 -29t-25.5 -25.5t-25 -18.5t-23 -7h-4q-13 3 -17 17q-4 12 -2 30t9.5 37.5t20.5 38t30 30.5q16 11 39.5 15
t54.5 -18l5 8l1 1h1q0 1 1 1h2q10 0 14 -8q5 -8 1.5 -24t-13.5 -38.5t-24.5 -50.5t-32.5 -59l-18 -34t-12 -25q13 4 37.5 23t53 45t58 55t53.5 55zM24 242q13 0 30.5 13.5t34.5 34t33 43t27 40.5q-23 8 -42.5 -1.5t-33.5 -22.5t-24.5 -29t-17.5 -31t-9.5 -27t-0.5 -18
q0 -2 3 -2zM214 510q5 2 7 -3q2 -4 -2 -6q-28 -18 -50 -18q-15 0 -26 6t-20 12q-12 9 -21 12t-23 -11q-3 -3 -7 -1q-4 3 0 7q14 15 25.5 21t21 5.5t18.5 -5t17 -9.5q13 -8 26.5 -13.5t33.5 3.5z" />
    <glyph glyph-name="aacute" unicode="&#xe1;" horiz-adv-x="266" 
d="M282 331q4 4 8 0q3 -4 0 -7q-5 -5 -19.5 -20t-35 -35t-44 -42.5t-46 -41t-41.5 -30.5t-30 -12q-6 0 -9 5q-4 7 -0.5 24.5t12 40.5t20.5 49t24 50q-11 -15 -23.5 -29t-25.5 -25.5t-25 -18.5t-23 -7h-4q-13 3 -17 17q-4 12 -2 30t9.5 37.5t20.5 38t30 30.5q16 11 39.5 15
t54.5 -18l5 8l1 1h1q0 1 1 1h2q10 0 14 -8q5 -8 1.5 -24t-13.5 -38.5t-24.5 -50.5t-32.5 -59l-18 -34t-12 -25q13 4 37.5 23t53 45t58 55t53.5 55zM24 242q13 0 30.5 13.5t34.5 34t33 43t27 40.5q-23 8 -42.5 -1.5t-33.5 -22.5t-24.5 -29t-17.5 -31t-9.5 -27t-0.5 -18
q0 -2 3 -2zM179 534q3 -8 -11 -21.5t-32 -26.5t-33.5 -23l-15.5 -10q-1 0 -2 -1q-1 0 -1.5 0.5t-1.5 0.5l-2 2v2q-1 0 0 1v1q4 9 16.5 22.5t25.5 26t24 21.5t12 10h1l1 1h10t9 -6z" />
    <glyph glyph-name="adieresis" unicode="&#xe4;" horiz-adv-x="266" 
d="M282 331q4 4 8 0q3 -4 0 -7q-5 -5 -19.5 -20t-35 -35t-44 -42.5t-46 -41t-41.5 -30.5t-30 -12q-6 0 -9 5q-4 7 -0.5 24.5t12 40.5t20.5 49t24 50q-11 -15 -23.5 -29t-25.5 -25.5t-25 -18.5t-23 -7h-4q-13 3 -17 17q-4 12 -2 30t9.5 37.5t20.5 38t30 30.5q16 11 39.5 15
t54.5 -18l5 8l1 1h1q0 1 1 1h2q10 0 14 -8q5 -8 1.5 -24t-13.5 -38.5t-24.5 -50.5t-32.5 -59l-18 -34t-12 -25q13 4 37.5 23t53 45t58 55t53.5 55zM24 242q13 0 30.5 13.5t34.5 34t33 43t27 40.5q-23 8 -42.5 -1.5t-33.5 -22.5t-24.5 -29t-17.5 -31t-9.5 -27t-0.5 -18
q0 -2 3 -2zM82 517q9 0 14 -7q6 -8 3 -15q-2 -8 -8.5 -14t-15.5 -6t-13 6q-6 7 -4 16q2 8 9 14t15 6zM184 517q9 0 14 -7q6 -8 3 -15q-2 -8 -8.5 -14t-15.5 -6t-13 6q-6 7 -4 16q2 8 9 14t15 6z" />
    <glyph glyph-name="aring" unicode="&#xe5;" horiz-adv-x="266" 
d="M282 331q4 4 8 0q3 -4 0 -7q-5 -5 -19.5 -20t-35 -35t-44 -42.5t-46 -41t-41.5 -30.5t-30 -12q-6 0 -9 5q-4 7 -0.5 24.5t12 40.5t20.5 49t24 50q-11 -15 -23.5 -29t-25.5 -25.5t-25 -18.5t-23 -7h-4q-13 3 -17 17q-4 12 -2 30t9.5 37.5t20.5 38t30 30.5q16 11 39.5 15
t54.5 -18l5 8l1 1h1q0 1 1 1h2q10 0 14 -8q5 -8 1.5 -24t-13.5 -38.5t-24.5 -50.5t-32.5 -59l-18 -34t-12 -25q13 4 37.5 23t53 45t58 55t53.5 55zM24 242q13 0 30.5 13.5t34.5 34t33 43t27 40.5q-23 8 -42.5 -1.5t-33.5 -22.5t-24.5 -29t-17.5 -31t-9.5 -27t-0.5 -18
q0 -2 3 -2zM124.285 485.795q-11.0664 1.42676 -16.5996 5.34863q-5.5332 3.92285 -7.90527 8.20117q-3.95215 7.84473 -2.37109 18.8984t10.2764 23.1768q8.69434 11.4102 23.3184 21.3945q14.624 9.9834 33.5947 9.27051q3.95215 0 3.95215 -3.56543
q0 -3.56641 -3.95215 -3.56641q-7.9043 0 -16.2041 -6.41797t-15.4141 -15.332t-11.4619 -19.2549t-4.34766 -18.8984q0 -6.41797 2.37109 -9.27051q1.58105 -2.13965 5.5332 -2.85254h3.16211q8.69531 0 16.2041 3.92188q7.50977 3.92285 13.043 9.62793t8.69531 12.123
t3.16211 12.123q0 9.98438 -10.2764 9.98438q-3.95215 0 -3.95215 3.56543t3.95215 3.56543q18.1807 0 18.1807 -17.1152q0 -7.13086 -3.55664 -14.6191q-3.55762 -7.48828 -9.88086 -14.6191q-15.8096 -15.6895 -35.5713 -15.6895h-3.95215v0z" />
    <glyph glyph-name="ae" unicode="&#xe6;" horiz-adv-x="307" 
d="M324 331q4 2 7 -1q3 -4 0 -7q-2 -2 -22.5 -20t-48.5 -39t-58 -38t-51 -17q-28 0 -43 15q-14 12 -14 35q0 11 3 23q-18 -21 -37.5 -35.5t-35.5 -14.5h-4q-13 3 -17 17q-4 12 -2 30t9.5 37.5t20.5 38t30 30.5q15 11 42 7t56 -22l1 -1q14 11 30.5 17t33.5 6t17 -16
q0 -10 -9 -21t-24 -21q-10 -7 -27 -14t-41 -9q-8 -14 -12.5 -29t-4.5 -31q0 -14 7 -23q5 -8 21 -8q19 0 48.5 17t57 37.5t47.5 38t20 18.5zM24 242q18 0 42 23.5t47 52.5q15 24 34 41q-21 5 -41.5 3t-32.5 -13q-14 -13 -24.5 -29t-17.5 -31t-9.5 -27t-0.5 -18q0 -2 3 -2z
M224 382q-17 0 -39 -17t-39 -43q20 3 34 8.5t23 11.5q14 10 21 19.5t7 14.5q0 2 -1 4t-6 2z" />
    <glyph glyph-name="ccedilla" unicode="&#xe7;" horiz-adv-x="201" 
d="M218 331q4 2 7 -1q3 -4 0 -7q-2 -2 -21 -18.5t-45 -37t-55 -38t-51 -20.5q0 -3 3 -4q4 -8 6 -21t-16 -32t-34 -19h-5q-8 2 -11 10q-3 11 9 23q3 5 7 1q3 -4 0 -7q-8 -8 -6 -14q0 -3 3 -3q11 -4 29 16q14 15 13 24.5t-4 17.5q-2 2 -4 8q-23 0 -33 11.5t-13 22.5
q-5 17 -0.5 39.5t15 44.5t25.5 41t32 28q26 15 48 -1l4 -5h1q8 -8 9 -21.5t-4 -27.5q-10 -25 -31 -27q-5 0 -5 5q-1 2 0.5 3.5t3.5 1.5q16 2 23 21q4 11 3 21.5t-7 16.5q-1 3 -4 4q-7 6 -19 0q-13 -7 -26 -26t-22.5 -42t-14.5 -46t-1 -38t18 -15q19 0 48.5 17t57 37.5
t47.5 38t20 18.5z" />
    <glyph glyph-name="egrave" unicode="&#xe8;" horiz-adv-x="203" 
d="M220 331q4 2 7 -1q3 -4 0 -7q-2 -2 -22.5 -20t-48.5 -39t-58 -38t-51 -17q-28 0 -43 15q-14 12 -14 35q0 28 18 58q17 29 47 52t65 23q17 0 17 -16q0 -10 -9 -21t-24 -21q-10 -7 -27 -14t-41 -9q-8 -14 -12.5 -29t-4.5 -31q0 -14 7 -23q5 -8 21 -8q19 0 48.5 17t57 37.5
t47.5 38t20 18.5zM120 382q-17 0 -39 -17t-39 -43q20 3 34 8.5t23 11.5q14 10 21 19.5t7 14.5q0 2 -1 4t-6 2zM145 467q-11 0 -24 2.5t-24.5 6t-19.5 8t-8 9.5q-1 2 0 4.5t8 4.5h1q10 0 23 -4t24 -8.5t19 -8.5t9 -4q3 -2 2 -6q0 -2 -4 -4h-6z" />
    <glyph glyph-name="eacute" unicode="&#xe9;" horiz-adv-x="203" 
d="M220 331q4 2 7 -1q3 -4 0 -7q-2 -2 -22.5 -20t-48.5 -39t-58 -38t-51 -17q-28 0 -43 15q-14 12 -14 35q0 28 18 58q17 29 47 52t65 23q17 0 17 -16q0 -10 -9 -21t-24 -21q-10 -7 -27 -14t-41 -9q-8 -14 -12.5 -29t-4.5 -31q0 -14 7 -23q5 -8 21 -8q19 0 48.5 17t57 37.5
t47.5 38t20 18.5zM120 382q-17 0 -39 -17t-39 -43q20 3 34 8.5t23 11.5q14 10 21 19.5t7 14.5q0 2 -1 4t-6 2zM153 514q3 -8 -11 -21.5t-32 -26.5t-33.5 -23l-15.5 -10q-1 0 -2 -1q-1 0 -1.5 0.5t-1.5 0.5l-2 2v2q-1 0 0 1v1q4 9 16.5 22.5t25.5 26t24 21.5t12 10h1l1 1h10
t9 -6z" />
    <glyph glyph-name="ecircumflex" unicode="&#xea;" horiz-adv-x="203" 
d="M220 331q4 2 7 -1q3 -4 0 -7q-2 -2 -22.5 -20t-48.5 -39t-58 -38t-51 -17q-28 0 -43 15q-14 12 -14 35q0 28 18 58q17 29 47 52t65 23q17 0 17 -16q0 -10 -9 -21t-24 -21q-10 -7 -27 -14t-41 -9q-8 -14 -12.5 -29t-4.5 -31q0 -14 7 -23q5 -8 21 -8q19 0 48.5 17t57 37.5
t47.5 38t20 18.5zM120 382q-17 0 -39 -17t-39 -43q20 3 34 8.5t23 11.5q14 10 21 19.5t7 14.5q0 2 -1 4t-6 2zM128 506q-3 0 -11 -6t-18 -16t-21.5 -22t-21.5 -25q-2 -2 -4 -2l-1 1q-4 0 -4 4q0 12 6.5 25t16.5 25t21.5 21t21.5 11q15 3 21 -8q5 -4 7.5 -9.5t4.5 -13.5
q3 -9 8 -21.5t16 -26.5q3 -3 -1 -7q-4 -2 -7 1q-12 15 -17 28t-8 23q-5 16 -9 18z" />
    <glyph glyph-name="edieresis" unicode="&#xeb;" horiz-adv-x="203" 
d="M220 331q4 2 7 -1q3 -4 0 -7q-2 -2 -22.5 -20t-48.5 -39t-58 -38t-51 -17q-28 0 -43 15q-14 12 -14 35q0 28 18 58q17 29 47 52t65 23q17 0 17 -16q0 -10 -9 -21t-24 -21q-10 -7 -27 -14t-41 -9q-8 -14 -12.5 -29t-4.5 -31q0 -14 7 -23q5 -8 21 -8q19 0 48.5 17t57 37.5
t47.5 38t20 18.5zM120 382q-17 0 -39 -17t-39 -43q20 3 34 8.5t23 11.5q14 10 21 19.5t7 14.5q0 2 -1 4t-6 2zM56 506q9 0 14 -7q6 -8 3 -15q-2 -8 -8.5 -14t-15.5 -6t-13 6q-6 7 -4 16q2 8 9 14t15 6zM158 506q9 0 14 -7q6 -8 3 -15q-2 -8 -8.5 -14t-15.5 -6t-13 6
q-6 7 -4 16q2 8 9 14t15 6z" />
    <glyph glyph-name="igrave" unicode="&#xec;" horiz-adv-x="163" 
d="M-19 145q-8 10 -0.5 39.5t21.5 74.5q6 19 11.5 38.5t5.5 25.5q-4 3 -3 5.5t5 3.5q8 2 12.5 -1.5t6.5 -5.5q5 -8 4 -22t-6 -32.5t-14 -40.5t-19 -45l-14 -33q8 3 27.5 19.5t45.5 41t56 55.5t60 63q3 3 7 0q3 -4 0 -7q-7 -8 -22.5 -24.5t-35 -37t-41.5 -42t-42 -39
t-35.5 -29t-22.5 -11.5h-1q-1 0 -5 2q0 1 -0.5 1t-0.5 1zM84 434q-11 0 -24 2.5t-24.5 6t-19.5 8t-8 9.5q-1 2 0 4.5t8 4.5h1q10 0 23 -4t24 -8.5t19 -8.5t9 -4q3 -2 2 -6q0 -2 -4 -4h-6z" />
    <glyph glyph-name="iacute" unicode="&#xed;" horiz-adv-x="163" 
d="M-19 145q-8 10 -0.5 39.5t21.5 74.5q6 19 11.5 38.5t5.5 25.5q-4 3 -3 5.5t5 3.5q8 2 12.5 -1.5t6.5 -5.5q5 -8 4 -22t-6 -32.5t-14 -40.5t-19 -45l-14 -33q8 3 27.5 19.5t45.5 41t56 55.5t60 63q3 3 7 0q3 -4 0 -7q-7 -8 -22.5 -24.5t-35 -37t-41.5 -42t-42 -39
t-35.5 -29t-22.5 -11.5h-1q-1 0 -5 2q0 1 -0.5 1t-0.5 1zM91 490q3 -8 -11 -21.5t-32 -26.5t-33.5 -23l-15.5 -10q-1 0 -2 -1q-1 0 -1.5 0.5t-1.5 0.5l-2 2v2q-1 0 0 1v1q4 9 16.5 22.5t25.5 26t24 21.5t12 10h1l1 1h10t9 -6z" />
    <glyph glyph-name="icircumflex" unicode="&#xee;" horiz-adv-x="163" 
d="M-19 145q-8 10 -0.5 39.5t21.5 74.5q6 19 11.5 38.5t5.5 25.5q-4 3 -3 5.5t5 3.5q8 2 12.5 -1.5t6.5 -5.5q5 -8 4 -22t-6 -32.5t-14 -40.5t-19 -45l-14 -33q8 3 27.5 19.5t45.5 41t56 55.5t60 63q3 3 7 0q3 -4 0 -7q-7 -8 -22.5 -24.5t-35 -37t-41.5 -42t-42 -39
t-35.5 -29t-22.5 -11.5h-1q-1 0 -5 2q0 1 -0.5 1t-0.5 1zM65 478q-3 0 -11 -6t-18 -16t-21.5 -22t-21.5 -25q-2 -2 -4 -2l-1 1q-4 0 -4 4q0 12 6.5 25t16.5 25t21.5 21t21.5 11q15 3 21 -8q5 -4 7.5 -9.5t4.5 -13.5q3 -9 8 -21.5t16 -26.5q3 -3 -1 -7q-4 -2 -7 1
q-12 15 -17 28t-8 23q-5 16 -9 18z" />
    <glyph glyph-name="idieresis" unicode="&#xef;" horiz-adv-x="163" 
d="M-19 145q-8 10 -0.5 39.5t21.5 74.5q6 19 11.5 38.5t5.5 25.5q-4 3 -3 5.5t5 3.5q8 2 12.5 -1.5t6.5 -5.5q5 -8 4 -22t-6 -32.5t-14 -40.5t-19 -45l-14 -33q8 3 27.5 19.5t45.5 41t56 55.5t60 63q3 3 7 0q3 -4 0 -7q-7 -8 -22.5 -24.5t-35 -37t-41.5 -42t-42 -39
t-35.5 -29t-22.5 -11.5h-1q-1 0 -5 2q0 1 -0.5 1t-0.5 1zM2 468q9 0 14 -7q6 -8 3 -15q-2 -8 -8.5 -14t-15.5 -6t-13 6q-6 7 -4 16q2 8 9 14t15 6zM104 468q9 0 14 -7q6 -8 3 -15q-2 -8 -8.5 -14t-15.5 -6t-13 6q-6 7 -4 16q2 8 9 14t15 6z" />
    <glyph glyph-name="ntilde" unicode="&#xf1;" horiz-adv-x="239" 
d="M262 332q4 -4 1 -7q-4 -8 -19 -33t-35.5 -58t-44.5 -69t-46.5 -66.5t-41.5 -50.5t-30 -20h-1q-7 0 -10 5q-11 15 7 69.5t50 140.5q8 21 16.5 43.5t15 42t10.5 33.5t3 19q-6 -3 -24.5 -25t-43.5 -55.5t-54 -74t-57 -81.5l-2 -2h-5v1h-1l-1 1v5l35 76q7 15 14.5 31
t13.5 29.5t9 23t2 12.5q-5 0 -4.5 5t5.5 5q8 -1 12 -4.5t6 -7.5q7 -14 -10 -53q17 23 33.5 44.5t30.5 38.5t24.5 28.5t16.5 13.5h1q11 0 16 -8q7 -10 4 -31t-12.5 -51.5t-24 -69t-32.5 -81.5q-8 -18 -15.5 -36t-13.5 -33.5t-9.5 -27t-3.5 -16.5q12 3 37 33t55 74t61 93.5
t55 91.5q2 4 7 2zM181 497q5 2 7 -3q2 -4 -2 -6q-28 -18 -50 -18q-15 0 -26 6t-20 12q-12 9 -21 12t-23 -11q-3 -3 -7 -1q-4 3 0 7q14 15 25.5 21t21 5.5t18.5 -5t17 -9.5q13 -8 26.5 -13.5t33.5 3.5z" />
    <glyph glyph-name="ograve" unicode="&#xf2;" horiz-adv-x="228" 
d="M23 163q-22 0 -27 53q-2 23 1 53.5t11 59t22 50.5t35 28q0 7 0.5 13.5t2.5 12.5q8 23 30 23q5 0 9.5 -2t7.5 -10q4 -8 4 -27q0 -15 -3.5 -37t-9.5 -46l9.5 -9.5t9.5 -8.5q9 -6 21 -10.5t27 -4.5t33 6.5t39 22.5q3 3 7 -1q3 -3 -1 -7q-24 -18 -44 -24.5t-36.5 -6
t-29.5 5.5t-21 11q-10 7 -17 15q-7 -28 -16.5 -56t-20 -50.5t-21.5 -37.5t-20 -16h-2zM70 381q-23 -8 -38 -65q-7 -24 -10 -48.5t-3.5 -44.5t1 -33.5t4.5 -16.5q6 0 15 14.5t19 37t20 50.5t17 57q-17 22 -25 49zM77 430q-2 -6 -2.5 -12t1.5 -14v-2q2 -14 7.5 -29t15.5 -29
q5 20 7.5 39t2.5 34t-3 23q-4 7 -8 7q-15 0 -21 -17zM125 535q-11 0 -24 2.5t-24.5 6t-19.5 8t-8 9.5q-1 2 0 4.5t8 4.5h1q10 0 23 -4t24 -8.5t19 -8.5t9 -4q3 -2 2 -6q0 -2 -4 -4h-6z" />
    <glyph glyph-name="oacute" unicode="&#xf3;" horiz-adv-x="228" 
d="M23 163q-22 0 -27 53q-2 23 1 53.5t11 59t22 50.5t35 28q0 7 0.5 13.5t2.5 12.5q8 23 30 23q5 0 9.5 -2t7.5 -10q4 -8 4 -27q0 -15 -3.5 -37t-9.5 -46l9.5 -9.5t9.5 -8.5q9 -6 21 -10.5t27 -4.5t33 6.5t39 22.5q3 3 7 -1q3 -3 -1 -7q-24 -18 -44 -24.5t-36.5 -6
t-29.5 5.5t-21 11q-10 7 -17 15q-7 -28 -16.5 -56t-20 -50.5t-21.5 -37.5t-20 -16h-2zM70 381q-23 -8 -38 -65q-7 -24 -10 -48.5t-3.5 -44.5t1 -33.5t4.5 -16.5q6 0 15 14.5t19 37t20 50.5t17 57q-17 22 -25 49zM77 430q-2 -6 -2.5 -12t1.5 -14v-2q2 -14 7.5 -29t15.5 -29
q5 20 7.5 39t2.5 34t-3 23q-4 7 -8 7q-15 0 -21 -17zM143 588q3 -8 -11 -21.5t-32 -26.5t-33.5 -23l-15.5 -10q-1 0 -2 -1q-1 0 -1.5 0.5t-1.5 0.5l-2 2v2q-1 0 0 1v1q4 9 16.5 22.5t25.5 26t24 21.5t12 10h1l1 1h10t9 -6z" />
    <glyph glyph-name="ocircumflex" unicode="&#xf4;" horiz-adv-x="228" 
d="M23 163q-22 0 -27 53q-2 23 1 53.5t11 59t22 50.5t35 28q0 7 0.5 13.5t2.5 12.5q8 23 30 23q5 0 9.5 -2t7.5 -10q4 -8 4 -27q0 -15 -3.5 -37t-9.5 -46l9.5 -9.5t9.5 -8.5q9 -6 21 -10.5t27 -4.5t33 6.5t39 22.5q3 3 7 -1q3 -3 -1 -7q-24 -18 -44 -24.5t-36.5 -6
t-29.5 5.5t-21 11q-10 7 -17 15q-7 -28 -16.5 -56t-20 -50.5t-21.5 -37.5t-20 -16h-2zM70 381q-23 -8 -38 -65q-7 -24 -10 -48.5t-3.5 -44.5t1 -33.5t4.5 -16.5q6 0 15 14.5t19 37t20 50.5t17 57q-17 22 -25 49zM77 430q-2 -6 -2.5 -12t1.5 -14v-2q2 -14 7.5 -29t15.5 -29
q5 20 7.5 39t2.5 34t-3 23q-4 7 -8 7q-15 0 -21 -17zM108 552q-3 0 -11 -6t-18 -16t-21.5 -22t-21.5 -25q-2 -2 -4 -2l-1 1q-4 0 -4 4q0 12 6.5 25t16.5 25t21.5 21t21.5 11q15 3 21 -8q5 -4 7.5 -9.5t4.5 -13.5q3 -9 8 -21.5t16 -26.5q3 -3 -1 -7q-4 -2 -7 1q-12 15 -17 28
t-8 23q-5 16 -9 18z" />
    <glyph glyph-name="otilde" unicode="&#xf5;" horiz-adv-x="228" 
d="M23 163q-22 0 -27 53q-2 23 1 53.5t11 59t22 50.5t35 28q0 7 0.5 13.5t2.5 12.5q8 23 30 23q5 0 9.5 -2t7.5 -10q4 -8 4 -27q0 -15 -3.5 -37t-9.5 -46l9.5 -9.5t9.5 -8.5q9 -6 21 -10.5t27 -4.5t33 6.5t39 22.5q3 3 7 -1q3 -3 -1 -7q-24 -18 -44 -24.5t-36.5 -6
t-29.5 5.5t-21 11q-10 7 -17 15q-7 -28 -16.5 -56t-20 -50.5t-21.5 -37.5t-20 -16h-2zM70 381q-23 -8 -38 -65q-7 -24 -10 -48.5t-3.5 -44.5t1 -33.5t4.5 -16.5q6 0 15 14.5t19 37t20 50.5t17 57q-17 22 -25 49zM77 430q-2 -6 -2.5 -12t1.5 -14v-2q2 -14 7.5 -29t15.5 -29
q5 20 7.5 39t2.5 34t-3 23q-4 7 -8 7q-15 0 -21 -17zM169 546q5 2 7 -3q2 -4 -2 -6q-28 -18 -50 -18q-15 0 -26 6t-20 12q-12 9 -21 12t-23 -11q-3 -3 -7 -1q-4 3 0 7q14 15 25.5 21t21 5.5t18.5 -5t17 -9.5q13 -8 26.5 -13.5t33.5 3.5z" />
    <glyph glyph-name="odieresis" unicode="&#xf6;" horiz-adv-x="228" 
d="M23 163q-22 0 -27 53q-2 23 1 53.5t11 59t22 50.5t35 28q0 7 0.5 13.5t2.5 12.5q8 23 30 23q5 0 9.5 -2t7.5 -10q4 -8 4 -27q0 -15 -3.5 -37t-9.5 -46l9.5 -9.5t9.5 -8.5q9 -6 21 -10.5t27 -4.5t33 6.5t39 22.5q3 3 7 -1q3 -3 -1 -7q-24 -18 -44 -24.5t-36.5 -6
t-29.5 5.5t-21 11q-10 7 -17 15q-7 -28 -16.5 -56t-20 -50.5t-21.5 -37.5t-20 -16h-2zM70 381q-23 -8 -38 -65q-7 -24 -10 -48.5t-3.5 -44.5t1 -33.5t4.5 -16.5q6 0 15 14.5t19 37t20 50.5t17 57q-17 22 -25 49zM77 430q-2 -6 -2.5 -12t1.5 -14v-2q2 -14 7.5 -29t15.5 -29
q5 20 7.5 39t2.5 34t-3 23q-4 7 -8 7q-15 0 -21 -17zM36 550q9 0 14 -7q6 -8 3 -15q-2 -8 -8.5 -14t-15.5 -6t-13 6q-6 7 -4 16q2 8 9 14t15 6zM138 550q9 0 14 -7q6 -8 3 -15q-2 -8 -8.5 -14t-15.5 -6t-13 6q-6 7 -4 16q2 8 9 14t15 6z" />
    <glyph glyph-name="divide" unicode="&#xf7;" horiz-adv-x="208" 
d="M116 435q9 0 14 -7q6 -6 4 -15q-2 -8 -9 -14t-16 -6q-8 0 -14 6q-5 6 -3 16q2 8 9 14t15 6zM92 321q9 0 14 -7q6 -8 3 -15q-2 -8 -8.5 -14t-15.5 -6t-13 6q-6 7 -4 16q2 8 9 14t15 6zM203 351q-29 6 -63.5 6.5t-64.5 -1t-50 -3.5l-20 -2q-5 0 -5 4q-2 6 4 6q2 0 22.5 2.5
t50 4t64 0.5t64.5 -7q4 0 4 -6q-2 -4 -5 -4h-1z" />
    <glyph glyph-name="oslash" unicode="&#xf8;" horiz-adv-x="228" 
d="M211 561q4 -2 2 -7l-96 -160q-3 -27 -11 -60l9.5 -9.5t9.5 -8.5q9 -6 21 -10.5t27 -4.5t33 6.5t39 22.5q3 3 7 -1q3 -3 -1 -7q-24 -18 -44 -24.5t-36.5 -6t-29.5 5.5t-21 11q-10 7 -17 15q-7 -28 -16.5 -56t-20 -50.5t-21.5 -37.5t-20 -16h-2q-18 0 -24 33l-78 -129
q-2 -2 -5 -2h-2q-4 4 -2 7l84 140v4q-2 23 1 53.5t11 59t22 50.5t35 28q0 7 0.5 13.5t2.5 12.5q8 23 30 23q5 0 9.5 -2t7.5 -10q4 -8 4 -27v-1l85 143q2 5 7 2zM95 332q-5 5 -8 11l-69 -114q-1 -23 0.5 -38t5.5 -18q6 0 15 14.5t19 37t20 50.5t17 57zM70 381q-23 -8 -38 -65
q-9 -31 -12 -63l61 100q-8 14 -11 28zM77 430q-2 -6 -2.5 -12t1.5 -14v-2q2 -19 11 -39l21 36q1 5 1 9v9q0 15 -3 23q-4 7 -8 7q-15 0 -21 -17zM105 373l-12 -20l6 -9z" />
    <glyph glyph-name="ugrave" unicode="&#xf9;" horiz-adv-x="237" 
d="M259 332q5 -4 2 -7q-4 -8 -18.5 -32.5t-34.5 -57t-43.5 -68.5t-45.5 -66.5t-40.5 -50t-29.5 -19.5q-6 0 -9 5q-3 3 -4.5 11t1 25.5t9.5 47t22 76.5l26 82q-14 -25 -28 -48t-26 -41.5t-21.5 -30.5t-15.5 -15h-3q-6 0 -11 5q-8 11 -3 40.5t16 71.5q5 17 10 37t3 26
q-1 0 -2 1q-2 2 -0.5 4.5t4.5 3.5q13 0 17 -8q6 -8 6 -22t-3.5 -31t-9 -36t-11.5 -37q-4 -12 -7 -23.5t-5 -18.5q6 6 17.5 23t26.5 40.5t31.5 51.5t32.5 57q0 2 3 4h3q4 0 7 -3q8 -11 -5 -60.5t-39 -129.5q-5 -15 -9.5 -30t-8.5 -28t-6.5 -23.5t-3.5 -15.5q13 6 37 36.5
t52.5 73t57.5 90.5t52 88q4 4 7 2zM112 442q-11 0 -24 2.5t-24.5 6t-19.5 8t-8 9.5q-1 2 0 4.5t8 4.5h1q10 0 23 -4t24 -8.5t19 -8.5t9 -4q3 -2 2 -6q0 -2 -4 -4h-6z" />
    <glyph glyph-name="uacute" unicode="&#xfa;" horiz-adv-x="237" 
d="M259 332q5 -4 2 -7q-4 -8 -18.5 -32.5t-34.5 -57t-43.5 -68.5t-45.5 -66.5t-40.5 -50t-29.5 -19.5q-6 0 -9 5q-3 3 -4.5 11t1 25.5t9.5 47t22 76.5l26 82q-14 -25 -28 -48t-26 -41.5t-21.5 -30.5t-15.5 -15h-3q-6 0 -11 5q-8 11 -3 40.5t16 71.5q5 17 10 37t3 26
q-1 0 -2 1q-2 2 -0.5 4.5t4.5 3.5q13 0 17 -8q6 -8 6 -22t-3.5 -31t-9 -36t-11.5 -37q-4 -12 -7 -23.5t-5 -18.5q6 6 17.5 23t26.5 40.5t31.5 51.5t32.5 57q0 2 3 4h3q4 0 7 -3q8 -11 -5 -60.5t-39 -129.5q-5 -15 -9.5 -30t-8.5 -28t-6.5 -23.5t-3.5 -15.5q13 6 37 36.5
t52.5 73t57.5 90.5t52 88q4 4 7 2zM137 493q3 -8 -11 -21.5t-32 -26.5t-33.5 -23l-15.5 -10q-1 0 -2 -1q-1 0 -1.5 0.5t-1.5 0.5l-2 2v2q-1 0 0 1v1q4 9 16.5 22.5t25.5 26t24 21.5t12 10h1l1 1h10t9 -6z" />
    <glyph glyph-name="ucircumflex" unicode="&#xfb;" horiz-adv-x="237" 
d="M259 332q5 -4 2 -7q-4 -8 -18.5 -32.5t-34.5 -57t-43.5 -68.5t-45.5 -66.5t-40.5 -50t-29.5 -19.5q-6 0 -9 5q-3 3 -4.5 11t1 25.5t9.5 47t22 76.5l26 82q-14 -25 -28 -48t-26 -41.5t-21.5 -30.5t-15.5 -15h-3q-6 0 -11 5q-8 11 -3 40.5t16 71.5q5 17 10 37t3 26
q-1 0 -2 1q-2 2 -0.5 4.5t4.5 3.5q13 0 17 -8q6 -8 6 -22t-3.5 -31t-9 -36t-11.5 -37q-4 -12 -7 -23.5t-5 -18.5q6 6 17.5 23t26.5 40.5t31.5 51.5t32.5 57q0 2 3 4h3q4 0 7 -3q8 -11 -5 -60.5t-39 -129.5q-5 -15 -9.5 -30t-8.5 -28t-6.5 -23.5t-3.5 -15.5q13 6 37 36.5
t52.5 73t57.5 90.5t52 88q4 4 7 2zM112 473q-3 0 -11 -6t-18 -16t-21.5 -22t-21.5 -25q-2 -2 -4 -2l-1 1q-4 0 -4 4q0 12 6.5 25t16.5 25t21.5 21t21.5 11q15 3 21 -8q5 -4 7.5 -9.5t4.5 -13.5q3 -9 8 -21.5t16 -26.5q3 -3 -1 -7q-4 -2 -7 1q-12 15 -17 28t-8 23
q-5 16 -9 18z" />
    <glyph glyph-name="udieresis" unicode="&#xfc;" horiz-adv-x="237" 
d="M259 332q5 -4 2 -7q-4 -8 -18.5 -32.5t-34.5 -57t-43.5 -68.5t-45.5 -66.5t-40.5 -50t-29.5 -19.5q-6 0 -9 5q-3 3 -4.5 11t1 25.5t9.5 47t22 76.5l26 82q-14 -25 -28 -48t-26 -41.5t-21.5 -30.5t-15.5 -15h-3q-6 0 -11 5q-8 11 -3 40.5t16 71.5q5 17 10 37t3 26
q-1 0 -2 1q-2 2 -0.5 4.5t4.5 3.5q13 0 17 -8q6 -8 6 -22t-3.5 -31t-9 -36t-11.5 -37q-4 -12 -7 -23.5t-5 -18.5q6 6 17.5 23t26.5 40.5t31.5 51.5t32.5 57q0 2 3 4h3q4 0 7 -3q8 -11 -5 -60.5t-39 -129.5q-5 -15 -9.5 -30t-8.5 -28t-6.5 -23.5t-3.5 -15.5q13 6 37 36.5
t52.5 73t57.5 90.5t52 88q4 4 7 2zM54 490q9 0 14 -7q6 -8 3 -15q-2 -8 -8.5 -14t-15.5 -6t-13 6q-6 7 -4 16q2 8 9 14t15 6zM156 490q9 0 14 -7q6 -8 3 -15q-2 -8 -8.5 -14t-15.5 -6t-13 6q-6 7 -4 16q2 8 9 14t15 6z" />
    <glyph glyph-name="yacute" unicode="&#xfd;" horiz-adv-x="182" 
d="M235 37q-2 -5 -6 -5q-39 3 -75 4.5t-69 0.5q-22 -76 -51 -122.5t-60.5 -72.5t-63 -35t-57.5 -9h-29q-17 0 -31.5 3.5t-26.5 8.5q-32 16 -46.5 44t-6.5 58q9 34 40 58.5t77.5 40.5t104.5 24.5t122 10.5q13 36 21 71t12.5 67t6.5 59.5t3 47.5q-9 -20 -20.5 -45.5
t-24.5 -48.5t-26 -39.5t-23 -18.5h-4q-6 0 -10 4l-3 2q-5 5 -1.5 26.5t14.5 66.5q3 12 6 25.5t5 25.5t3.5 21.5t0.5 12.5q-3 0 -3 4.5t6 4.5q16 0 22 -17q4 -14 0.5 -37.5t-10.5 -49t-15.5 -47.5t-14.5 -32h2q9 1 21 18.5t25.5 42.5t26.5 54t23 54v6q0 13 13 13q4 0 10 -4
q4 -6 3 -10v-4q-4 -85 -13.5 -152t-24.5 -120q35 0 71 -1.5t71 -3.5q5 0 5 -5zM-230 -181q19 -9 44 -11t52.5 6t56.5 29t57 58q25 32 43 66.5t31 69.5q-82 -3 -141.5 -14.5t-100 -29t-62.5 -39.5t-28 -45q-7 -26 6 -51t42 -39zM134 511q3 -8 -11 -21.5t-32 -26.5t-33.5 -23
l-15.5 -10q-1 0 -2 -1q-1 0 -1.5 0.5t-1.5 0.5l-2 2v2q-1 0 0 1v1q4 9 16.5 22.5t25.5 26t24 21.5t12 10h1l1 1h10t9 -6z" />
    <glyph glyph-name="ydieresis" unicode="&#xff;" horiz-adv-x="182" 
d="M235 37q-2 -5 -6 -5q-39 3 -75 4.5t-69 0.5q-22 -76 -51 -122.5t-60.5 -72.5t-63 -35t-57.5 -9h-29q-17 0 -31.5 3.5t-26.5 8.5q-32 16 -46.5 44t-6.5 58q9 34 40 58.5t77.5 40.5t104.5 24.5t122 10.5q13 36 21 71t12.5 67t6.5 59.5t3 47.5q-9 -20 -20.5 -45.5
t-24.5 -48.5t-26 -39.5t-23 -18.5h-4q-6 0 -10 4l-3 2q-5 5 -1.5 26.5t14.5 66.5q3 12 6 25.5t5 25.5t3.5 21.5t0.5 12.5q-3 0 -3 4.5t6 4.5q16 0 22 -17q4 -14 0.5 -37.5t-10.5 -49t-15.5 -47.5t-14.5 -32h2q9 1 21 18.5t25.5 42.5t26.5 54t23 54v6q0 13 13 13q4 0 10 -4
q4 -6 3 -10v-4q-4 -85 -13.5 -152t-24.5 -120q35 0 71 -1.5t71 -3.5q5 0 5 -5zM-230 -181q19 -9 44 -11t52.5 6t56.5 29t57 58q25 32 43 66.5t31 69.5q-82 -3 -141.5 -14.5t-100 -29t-62.5 -39.5t-28 -45q-7 -26 6 -51t42 -39zM43 479q9 0 14 -7q6 -8 3 -15q-2 -8 -8.5 -14
t-15.5 -6t-13 6q-6 7 -4 16q2 8 9 14t15 6zM145 479q9 0 14 -7q6 -8 3 -15q-2 -8 -8.5 -14t-15.5 -6t-13 6q-6 7 -4 16q2 8 9 14t15 6z" />
    <glyph glyph-name="a_ss01" horiz-adv-x="928" 
d="M6 253q-2 0 -4 2q-3 3 1 7q19 12 51.5 17.5t73.5 7t89 0.5t99 -3q60 -2 119 -3.5t108.5 2t85 14t49.5 31.5q8 17 19 31.5t26 25.5q16 11 39.5 15t54.5 -18l5 8l1 1h1q0 1 1 1h2q10 0 14 -8q5 -8 1.5 -24t-13.5 -38.5t-24.5 -50.5t-32.5 -59l-18 -34t-12 -25q13 4 37.5 23
t53 45t58 55t53.5 55q4 4 8 0q3 -4 0 -7q-5 -5 -19.5 -20t-35 -35t-44 -42.5t-46 -41t-41.5 -30.5t-30 -12q-6 0 -9 5q-4 7 -0.5 24.5t12 40.5t20.5 49t24 50q-11 -15 -23.5 -29t-25.5 -25.5t-25 -18.5t-23 -7h-4q-13 3 -17 17q-7 22 4 56q-22 -16 -59.5 -24t-84.5 -10
t-101 -0.5t-109 3.5q-48 2 -95 3t-88 -0.5t-73 -6.5t-50 -17h-3zM686 242q13 0 30.5 13.5t34.5 34t33 43t27 40.5q-23 8 -42.5 -1.5t-33.5 -22.5t-24.5 -29t-17.5 -31t-9.5 -27t-0.5 -18q0 -2 3 -2z" />
    <glyph glyph-name="b_ss01" horiz-adv-x="982" 
d="M6 253q-2 0 -4 2q-3 3 1 7q19 12 51.5 17.5t73.5 7t89 0.5t99 -3q61 -2 120.5 -3.5t109 2t85 14.5t48.5 33l1 1q11 66 33.5 135.5t54.5 125.5q37 65 78 94t83 20q33 -6 39 -37q4 -27 -15.5 -69t-54.5 -88.5t-82.5 -92t-98.5 -80.5q-9 -42 -14 -78t-7 -63q5 15 13.5 30.5
t21.5 30.5q25 30 56 51.5t50 21.5h5q32 -5 32 -58q0 -44 -20 -95q41 35 79.5 73.5t64.5 77.5q2 4 7 1q4 -2 1 -7q-29 -44 -72.5 -86t-88.5 -79q-5 -11 -10 -20.5t-10 -19.5q-27 -45 -60 -68t-68 -23q-8 0 -10 5q-1 3 1.5 7.5t10.5 12.5t22.5 20t37.5 30l32 24
q13 22 24.5 46.5t20 48t12.5 44t3 35.5q-1 13 -4.5 16.5t-6.5 4.5h-3q-7 0 -18.5 -5t-25 -14t-28 -22t-26.5 -28q-47 -57 -38 -105v-2q0 -3 -3 -3.5t-5 0.5l-1 1q-17 19 -20 64.5t5 103.5q-19 -19 -56.5 -28t-86 -12t-105.5 -1.5t-114 3.5q-48 2 -95 3t-88 -0.5t-73 -6.5
t-50 -17h-3zM927 696q-53 9 -104 -70q-17 -26 -32.5 -58.5t-28 -68.5t-23.5 -73t-19 -73q48 34 92.5 78t78.5 88.5t52.5 84t14.5 64.5q-5 24 -31 28zM766 95q-23 -18 -43 -33.5t-25 -23.5q18 4 37.5 20.5t37.5 42.5z" />
    <glyph glyph-name="c_ss01" horiz-adv-x="863" 
d="M6 253q-2 0 -4 2q-3 3 1 7q19 12 51.5 17.5t73.5 7t89 0.5t99 -3q57 -2 112.5 -3.5t103 1t83.5 11t54 25.5q11 25 27 46t35 32q26 15 48 -1l4 -5h1q8 -8 9 -21.5t-4 -27.5q-10 -25 -31 -27q-5 0 -5 5q-1 2 0.5 3.5t3.5 1.5q16 2 23 21q4 11 3 21.5t-7 16.5q-1 3 -4 4
q-7 6 -19 0q-13 -7 -26 -26t-22.5 -42t-14.5 -46t-1 -38t18 -15q19 0 48.5 17t57 37.5t47.5 38t20 18.5q4 2 7 -1q3 -4 0 -7q-2 -2 -22.5 -20t-48.5 -39t-58 -38t-51 -17q-24 0 -34.5 11.5t-13.5 22.5q-3 12 -2 27t6 31q-23 -14 -60 -21t-83.5 -9t-99 -0.5t-105.5 3.5
q-48 2 -95 3t-88 -0.5t-73 -6.5t-50 -17h-3z" />
    <glyph glyph-name="d_ss01" horiz-adv-x="1017" 
d="M6 253q-2 0 -4 2q-3 3 1 7q19 12 51.5 17.5t73.5 7t89 0.5t99 -3q53 -2 105.5 -3.5t98.5 0.5t82.5 8.5t57.5 20.5q13 25 33 37q15 9 41 6.5t62 -38.5l3 4q10 45 24 90.5t31 88t37 79.5t42 66q58 75 115 63q33 -6 38 -37q4 -27 -15 -68.5t-53.5 -87.5t-81 -91.5
t-97.5 -80.5q-17 -65 -26 -124t-9 -100q0 -30 5 -48q5 -14 13 -14q7 0 21 13t32 34.5t39 50t42.5 59t42 61t37.5 57.5q4 4 7 1q4 -2 2 -6q-5 -7 -20.5 -30.5t-36.5 -55t-45.5 -65.5t-47.5 -63t-42.5 -47.5t-30.5 -18.5q-8 0 -17 4.5t-17 19.5q-14 29 -12 89t17 134
q-11 -16 -26.5 -36t-32.5 -37.5t-34 -29.5t-32 -12h-2q-5 0 -11.5 5t-10.5 20q-5 17 -2.5 43.5t11.5 50.5q-25 -12 -62 -17.5t-81.5 -7t-94.5 -0.5t-100 3q-48 2 -95 3t-88 -0.5t-73 -6.5t-50 -17h-3zM1046 696q-31 0 -60.5 -29.5t-55.5 -77.5t-48.5 -109t-38.5 -124
q47 34 91 78t77 87.5t51 82.5t14 64q-5 24 -30 28zM668 187q13 0 29.5 12t33.5 30t32.5 39t27.5 39q-38 37 -70 17q-15 -9 -27 -26.5t-19.5 -38t-10.5 -39t0 -28.5q1 -1 1.5 -3t2.5 -2z" />
    <glyph glyph-name="e_ss01" horiz-adv-x="865" 
d="M6 253q-2 0 -4 2q-3 3 1 7q19 12 51.5 17.5t73.5 7t89 0.5t99 -3q57 -2 113.5 -3.5t104.5 1t84.5 11.5t53.5 27q17 29 46 50.5t64 21.5q17 0 17 -16q0 -10 -9 -21t-24 -21q-10 -7 -27 -14t-41 -9q-8 -14 -12.5 -29t-4.5 -31q0 -14 7 -23q5 -8 21 -8q19 0 48.5 17t57 37.5
t47.5 38t20 18.5q4 2 7 -1q3 -4 0 -7q-2 -2 -22.5 -20t-48.5 -39t-58 -38t-51 -17q-28 0 -43 15q-14 12 -14 35q0 18 9 41q-24 -14 -61 -20.5t-83 -8.5t-98 -0.5t-104 3.5q-48 2 -95 3t-88 -0.5t-73 -6.5t-50 -17h-3zM782 382q-17 0 -39 -17t-39 -43q20 3 34 8.5t23 11.5
q14 10 21 19.5t7 14.5q0 2 -1 4t-6 2z" />
    <glyph glyph-name="f_ss01" horiz-adv-x="849" 
d="M6 253q-2 0 -4 2q-3 3 1 7q19 12 51.5 17.5t73.5 7t89 0.5t99 -3q57 -2 113.5 -3.5t104.5 1t84.5 11.5t53.5 27q6 18 13 35.5t15 34.5q12 28 30 64t40 69.5t46.5 59.5t50.5 34q20 7 28 -2q11 -13 -5 -47q-11 -26 -33 -59.5t-48 -66t-51.5 -59.5t-44.5 -39l-2 -4
q8 -6 12 -19q4 -11 5.5 -28t0.5 -37q15 -3 34 0q18 3 36.5 15t33.5 25t24.5 23.5l9.5 10.5q2 4 7 1q3 -4 0 -7q-1 -1 -10.5 -12t-25 -24.5t-35 -25.5t-39.5 -16q-11 -2 -19.5 -2t-16.5 2q-2 -30 -8 -63t-15 -63t-20 -54t-24 -35q-14 -15 -22 -15h-4q0 1 -1 1h-1q-2 0 -8 2
q-18 9 -14 64q4 42 18 99.5t36 120.5q-23 -15 -60 -22t-83.5 -9.5t-99.5 -1t-107 3.5q-48 2 -95 3t-88 -0.5t-73 -6.5t-50 -17h-3zM870 608q-19 -9 -38.5 -33t-39 -57t-38 -74t-35.5 -84q18 15 41.5 41t47 56t43 60.5t30.5 54.5q9 20 8.5 27.5t-1.5 8.5q-1 2 -6 2
q-2 0 -12 -2zM654 38q10 9 21 32t20 52.5t15.5 62.5t8.5 63q-11 4 -17.5 9.5t-11.5 11.5l-2 4q-13 -38 -23 -74.5t-17.5 -67t-11 -54.5t-2.5 -37q1 -11 3 -12q8 2 17 10zM720 259q2 36 -6 59q-3 7 -7 11l-15 -43l6 -10q10 -13 22 -17z" />
    <glyph glyph-name="g_ss01" horiz-adv-x="892" 
d="M6 253q-2 0 -4 2q-3 3 1 7q19 12 51.5 17.5t73.5 7t89 0.5t99 -3q57 -2 113.5 -3.5t104.5 1t84 11.5t53 27q11 28 30 42q12 9 34.5 10.5t56.5 -20.5l12 37l1 1v1h1l1 1h18q3 0 4 -1t1 -4l-1 -25.5t-5.5 -67t-13 -94t-22.5 -106.5q-3 -13 -6.5 -24.5t-6.5 -23.5
q35 1 71 -0.5t71 -3.5q5 0 5 -5q-2 -5 -6 -5q-39 3 -75.5 4.5t-68.5 0.5q-39 -118 -97.5 -178.5t-134.5 -60.5h-29q-17 0 -31.5 3.5t-26.5 8.5q-32 16 -46.5 44t-6.5 58q9 34 40 58.5t77 40.5t104.5 24.5t121.5 10.5q16 44 26.5 88.5t17.5 85t10 74t5 56.5
q-8 -23 -19.5 -52.5t-26 -56.5t-30.5 -45.5t-32 -18.5h-2q-17 2 -26 28q-6 18 -6.5 45t6.5 53q-23 -15 -60.5 -22.5t-84 -9.5t-99.5 -0.5t-107 3.5q-48 2 -95 3t-88 -0.5t-73 -6.5t-50 -17h-3zM457 -181q19 -9 44 -11t52.5 6t56.5 29t57 58q23 30 41 64.5t32 70.5
q-81 -3 -140.5 -14.5t-100 -28.5t-62.5 -39t-28 -45q-7 -26 6 -51t42 -39zM694 187q12 0 25 15t25.5 38t24 50.5t20.5 52.5q-30 18 -53 1q-15 -11 -25.5 -31.5t-16.5 -43.5t-7 -44t2 -32l2 -4t3 -2z" />
    <glyph glyph-name="h_ss01" horiz-adv-x="992" 
d="M6 253q-2 0 -4 2q-3 3 1 7q19 12 51.5 17.5t73.5 7t89 0.5t99 -3q60 -2 119.5 -3.5t109 2t85 14t48.5 32.5q11 65 34 134.5t55 126.5q76 134 163 116q33 -6 38 -37q5 -28 -15.5 -71t-57 -90.5t-86 -94.5t-101.5 -81q-9 -48 -9.5 -89.5t9.5 -67.5l55 74q28 38 43.5 56
t32.5 18h1q10 -3 15 -11q6 -12 4 -34t-9.5 -49.5t-18 -58.5t-20.5 -59q-8 -21 -15 -42t-9 -30q8 3 23 18.5t33.5 39t40 53t43.5 60.5t42.5 62t38.5 58q2 4 7 1q5 -2 1 -6q-8 -12 -25.5 -39t-40 -60t-47.5 -68t-48 -64t-42 -47.5t-28 -18.5h-1q-6 0 -9 4q-9 13 2.5 62.5
t33.5 124.5q9 29 16.5 56.5t8.5 36.5q-12 -2 -26.5 -19.5t-38.5 -49.5q-14 -19 -31.5 -42.5t-40.5 -52.5q0 -2 -3 -2q-2 0 -4 2q-17 18 -20.5 62t4.5 101q-20 -18 -57 -27t-86 -12t-105 -1.5t-113 3.5q-48 2 -95 3t-88 -0.5t-73 -6.5t-50 -17h-3zM929 696q-18 0 -35 -9
t-32 -23t-28.5 -31.5t-23.5 -33.5q-35 -54 -60 -121.5t-39 -131.5q49 34 95.5 78.5t82 90t55 86.5t15.5 67q-5 24 -30 28z" />
    <glyph glyph-name="i_ss01" horiz-adv-x="825" 
d="M6 253q-2 0 -4 2q-3 3 1 7q19 12 51.5 17.5t73.5 7t89 0.5t99 -3q60 -2 119.5 -3.5t109 2t85 14t48.5 32.5l1 1q3 5 10.5 2t12.5 -7q5 -8 4 -22t-6 -32.5t-14 -40.5t-19 -45l-14 -33q8 3 27.5 19.5t45.5 41t56 55.5t60 63q3 3 7 0q3 -4 0 -7q-7 -8 -22.5 -24.5t-35 -37
t-41.5 -42t-42 -39t-35.5 -29t-22.5 -11.5h-1q-1 0 -5 2q0 1 -0.5 1t-0.5 1q-8 10 -0.5 39.5t21.5 74.5q5 15 9.5 30.5t6.5 25.5q-18 -20 -55 -29.5t-86.5 -13t-107.5 -2t-116 3.5q-48 2 -95 3t-88 -0.5t-73 -6.5t-50 -17h-3zM736 430q-6 0 -9 5q-5 7 -2 18q2 8 8 14t13 6
q6 0 9 -5q5 -7 2 -18q-2 -8 -8 -14t-13 -6z" />
    <glyph glyph-name="j_ss01" horiz-adv-x="788" 
d="M6 253q-2 0 -4 2q-3 3 1 7q19 12 51.5 17.5t73.5 7t89 0.5t99 -3q61 -2 120.5 -3.5t109 2t85 14.5t48.5 33q0 2 5 4.5t8 2.5q4 0 10 -4q4 -6 3 -10v-4q-4 -85 -14 -152t-24 -120q35 0 71 -1.5t71 -3.5q6 0 4 -5q0 -5 -5 -5q-39 3 -75 4.5t-69 0.5q-22 -76 -51 -122.5
t-60.5 -72.5t-63 -35t-57.5 -9h-29q-17 0 -31.5 3.5t-26.5 8.5q-32 16 -47 44t-7 58q9 34 40.5 58.5t78 40.5t104.5 24.5t122 10.5q15 42 23.5 83t12.5 76.5t5.5 63.5t1.5 45q-18 -20 -55.5 -29.5t-86.5 -12.5t-106.5 -1.5t-115.5 3.5q-48 2 -95 3t-88 -0.5t-73 -6.5
t-50 -17h-3zM349 -181q19 -9 44 -11t52.5 6t56.5 29t57 58q25 32 43 66.5t31 69.5q-82 -3 -141.5 -14.5t-100 -29t-62.5 -39.5t-28 -45q-7 -26 6 -51t42 -39zM709 430q-7 0 -10 5q-5 7 -2 18q3 8 8.5 14t12.5 6q6 0 9 -5q5 -7 2 -18q-2 -8 -8 -14t-12 -6z" />
    <glyph glyph-name="k_ss01" horiz-adv-x="961" 
d="M6 253q-2 0 -4 2q-3 3 1 7q19 12 51.5 17.5t73.5 7t89 0.5t99 -3q59 -2 116.5 -3.5t106.5 1.5t85 12.5t51 29.5q10 67 33.5 139t55.5 129q69 119 145 116h7l9 -2h1q33 -6 38 -37q5 -28 -15.5 -71t-57 -90.5t-85.5 -94t-101 -80.5q-9 -49 -11.5 -89t3.5 -63
q7 23 19.5 54.5t30.5 60.5t41.5 49.5t53.5 20.5q5 0 5 -5t-5 -5q-16 0 -40 -31.5t-50 -74.5q8 -8 19 -11q17 -5 39 0t45 15t45 23.5t39.5 25t28 20t11.5 8.5l1 1q6 3 6.5 -2t-1.5 -7q-3 -2 -24.5 -19.5t-52.5 -37t-66 -35.5t-63 -16q-9 0 -18 3q-11 3 -21 11
q-12 -22 -23 -43t-20 -41q-1 -2 -2.5 -3.5t-5.5 2.5q-17 18 -21 62.5t4 101.5q-21 -17 -58 -25.5t-85 -11t-103 -1t-111 3.5q-48 2 -95 3t-88 -0.5t-73 -6.5t-50 -17h-3zM821 639q-20 -27 -37 -61.5t-31 -73t-25.5 -79t-19.5 -78.5q49 34 95.5 78.5t81.5 90t54 86t15 66.5
q-5 24 -30 28l-9 2h-5q-45 0 -89 -59z" />
    <glyph glyph-name="l_ss01" horiz-adv-x="888" 
d="M6 253q-2 0 -4 2q-3 3 1 7q19 12 51.5 17.5t73.5 7t89 0.5t99 -3q58 -2 114.5 -3.5t104.5 1t84 11.5t53 28q10 44 24 89.5t31.5 87.5t37.5 79t42 66q57 75 113 63h1q33 -6 38 -37q5 -27 -14.5 -69t-54.5 -88.5t-82.5 -92t-98.5 -80.5q-12 -47 -21 -90.5t-12.5 -80.5
t-2.5 -64.5t9 -40.5q5 -6 8 -8h5q11 0 36.5 28t56.5 69.5t63.5 89.5t57.5 88q4 4 7 1q4 -1 2 -6q-5 -7 -20 -30.5t-36 -54.5t-45.5 -65t-47.5 -62.5t-42.5 -47.5t-30.5 -20h-2q-4 0 -6 1q-7 2 -14 7t-13 16q-7 15 -10 39.5t-1.5 55t6.5 66.5t13 75q-22 -16 -59.5 -24
t-84.5 -10t-101 -0.5t-109 3.5q-48 2 -95 3t-88 -0.5t-73 -6.5t-50 -17h-3zM919 696q-39 9 -84 -53q-18 -24 -35 -57t-32.5 -70.5t-29.5 -79t-25 -82.5q48 34 92.5 78t78 88t51.5 83.5t14 64.5q-3 24 -30 28z" />
    <glyph glyph-name="m_ss01" horiz-adv-x="1046" 
d="M6 253q-2 0 -4 2q-3 3 1 7q19 12 51.5 17.5t73.5 7t89 0.5t99 -3q60 -2 118 -3.5t107 1.5t85 13t50 31q0 3 3 5q6 6 9.5 0.5t6 -15t3 -19t0.5 -12.5q15 29 29.5 55t27.5 47t23 34.5t16 18.5q16 3 25 -6t10.5 -28.5t-1.5 -46t-10 -58t-16 -65.5l-7 -32q62 100 97 144
t53 44q6 0 11 -6q6 -9 2 -33.5t-15 -59.5t-27.5 -80t-35.5 -94q-10 -25 -18.5 -47t-11.5 -33q12 7 37.5 38.5t56 74t62 90.5t56.5 88q2 5 6 1q6 -2 2 -6q-8 -13 -25 -39.5t-38.5 -59t-45.5 -67.5t-46.5 -64t-41 -47.5t-28.5 -19.5h-1q-5 0 -8 4q-5 6 -1.5 25.5t12.5 50
t23 70t31 86.5q7 18 13.5 36.5t12.5 34.5t9.5 28t4.5 18q-13 -4 -34 -29.5t-43 -57.5t-42 -64.5t-31 -50.5h-1v-1h-1v-1h-4l-6 3q-7 8 -3.5 36.5t11.5 78.5q3 20 6.5 42t6 41t2 32.5t-4.5 18.5l-1 1q-4 -3 -14 -18.5t-24 -39.5t-30.5 -54.5t-33.5 -62.5l-7 -26
q-5 -18 -11 -34t-13 -27q-14 -26 -28 -26h-5q0 1 -1 1l-1 1v1q-1 0 -1 1v3q3 11 8.5 27t11.5 34q5 12 10.5 27.5t10.5 30.5t8.5 27.5t4.5 20.5q-17 -21 -54.5 -31t-87 -13t-107.5 -1.5t-117 3.5q-48 2 -95 3t-88 -0.5t-73 -6.5t-50 -17h-3z" />
    <glyph glyph-name="n_ss01" horiz-adv-x="901" 
d="M6 253q-2 0 -4 2q-3 3 1 7q19 12 51.5 17.5t73.5 7t89 0.5t99 -3q61 -2 120.5 -3.5t109 2t85 14.5t48.5 33q1 3 5 3t8 -2.5t7.5 -5.5t4.5 -5q7 -14 -10 -53q17 23 33.5 44.5t30.5 38.5t24.5 28.5t16.5 13.5h1q11 0 16 -8q7 -10 4 -31t-12.5 -51.5t-24 -69t-32.5 -81.5
q-8 -18 -15.5 -36t-13.5 -33.5t-9.5 -27t-3.5 -16.5q12 3 37 33t55 74t61 93.5t55 91.5q2 4 7 2q4 -4 1 -7q-4 -8 -19 -33t-35.5 -58t-44.5 -69t-46.5 -66.5t-41.5 -50.5t-30 -20h-1q-7 0 -10 5q-11 15 7 69.5t50 140.5q8 21 16.5 43.5t15 42t10.5 33.5t3 19
q-6 -3 -24.5 -25t-43.5 -55.5t-54 -74t-57 -81.5l-2 -2h-5v1h-1l-1 1v5l35 76q7 15 14.5 31t13.5 29.5t9 23t2 12.5q-15 -23 -52 -34t-87 -15t-110 -2.5t-121 3.5q-48 2 -95 3t-88 -0.5t-73 -6.5t-50 -17h-3z" />
    <glyph glyph-name="o_ss01" horiz-adv-x="898" 
d="M6 253q-2 0 -4 2q-3 3 1 7q19 12 51.5 17.5t73.5 7t89 0.5t99 -3q60 -2 119 -3.5t108.5 2t85 14t49.5 31.5q8 29 22 51t35 28q0 7 0.5 13.5t2.5 12.5q8 23 30 23q5 0 9.5 -2t7.5 -10q4 -8 4 -27q0 -15 -3.5 -37t-9.5 -46l9.5 -9.5t9.5 -8.5q9 -6 21 -10.5t27 -4.5t33 6.5
t39 22.5q3 3 7 -1q3 -3 -1 -7q-24 -18 -44 -24.5t-36.5 -6t-29.5 5.5t-21 11q-10 7 -17 15q-7 -28 -16.5 -56t-20 -50.5t-21.5 -37.5t-20 -16h-2q-22 0 -27 53q-2 19 0 43.5t7 48.5q-21 -17 -58.5 -25.5t-85.5 -11t-103 -1t-111 3.5q-48 2 -95 3t-88 -0.5t-73 -6.5t-50 -17
h-3zM740 381q-23 -8 -38 -65q-7 -24 -10 -48.5t-3.5 -44.5t1 -33.5t4.5 -16.5q6 0 15 14.5t19 37t20 50.5t17 57q-17 22 -25 49zM747 430q-2 -6 -2.5 -12t1.5 -14v-2q2 -14 7.5 -29t15.5 -29q5 20 7.5 39t2.5 34t-3 23q-4 7 -8 7q-15 0 -21 -17z" />
    <glyph glyph-name="p_ss01" horiz-adv-x="970" 
d="M6 253q-2 0 -4 2q-3 3 1 7q19 12 51.5 17.5t73.5 7t89 0.5t99 -3q58 -2 114.5 -3.5t104.5 1t84 11.5t53 28l1 3q0 13 13 13q5 0 9 -4t4 -10v-4q-2 -35 -4.5 -66.5t-6.5 -60.5q15 17 28 32t24 29q32 38 52 58.5t34 20.5h5q14 -2 21 -9t9 -13q4 -12 1.5 -28.5t-10 -35.5
t-19 -38.5t-24.5 -38.5q19 6 40 16.5t43.5 29t46 46.5t47.5 69q2 4 7 2q4 -4 2 -7q-27 -45 -53 -75t-51 -49.5t-48 -29.5t-43 -15q-11 -15 -23 -28.5t-24 -23.5q-26 -25 -45 -25q-2 0 -9 1t-9 2q-11 6 -4 40q5 23 22.5 28t40.5 8q5 0 15 2q15 21 29.5 44.5t25 45.5
t15.5 39.5t2 26.5q-2 4 -6 5q-1 1 -4 1q-11 0 -31 -21.5t-48 -54.5q-13 -15 -27.5 -32.5t-31.5 -36.5l-2 -2q-5 -36 -11 -68t-14 -60q35 0 70.5 -1.5t70.5 -3.5q5 0 5 -5t-5 -5q-40 3 -76 4.5t-68 0.5q-22 -76 -51.5 -122.5t-61 -72.5t-63 -35t-57.5 -9h-28q-17 0 -31.5 3.5
t-27.5 8.5q-32 16 -46.5 44t-6.5 58q9 34 40 58.5t77.5 40.5t105 24.5t122.5 10.5q14 40 22 79t12.5 73.5t6 62.5t1.5 46q-21 -17 -58.5 -25t-85.5 -10.5t-103 -1t-110 3.5q-48 2 -95 3t-88 -0.5t-73 -6.5t-50 -17h-3zM343 -181q19 -9 43.5 -11t52 6t56.5 29t57 58
q25 32 43 66.5t31 69.5q-82 -3 -141.5 -14.5t-99.5 -29t-62 -39.5t-28 -45q-8 -26 5.5 -51t42.5 -39zM710 98q19 15 46 51q-2 -1 -6 -1q-25 -3 -37.5 -7t-16.5 -21q-2 -21 5 -28z" />
    <glyph glyph-name="q_ss01" horiz-adv-x="935" 
d="M6 253q-2 0 -4 2q-3 3 1 7q19 12 51.5 17.5t73.5 7t89 0.5t99 -3q56 -2 111 -3.5t102.5 1t84 10.5t54.5 25q4 9 8.5 18t12.5 17q7 7 17.5 14t25.5 10.5t34.5 2.5t44.5 -8l9 -3l13 22l2 2h5v-1q1 0 3 -3q3 -6 -4.5 -28t-27.5 -75q-18 -47 -40 -108t-39 -124q19 15 47 46.5
t58 70.5t60 81t54 79q1 3 7 1q4 -4 1 -7q-5 -7 -19 -27.5t-34 -48.5t-44 -60.5t-48 -61.5t-46.5 -52.5t-39.5 -34.5q0 -2 -2 -8q15 -12 23.5 -28t12 -34.5t2 -37.5t-5.5 -37q-5 -16 -12.5 -29.5t-18.5 -13.5h-1q-18 1 -25 46q-24 109 52 312q11 31 22.5 58.5t22.5 50.5
q-11 -15 -24 -30.5t-26 -28t-26 -20.5t-25 -8q-20 0 -29 22q-5 10 -5.5 22.5t1.5 26.5q-23 -15 -60 -22t-83.5 -9t-99.5 -0.5t-106 3.5q-48 2 -95 3t-88 -0.5t-73 -6.5t-50 -17h-3zM696 241q13 0 28.5 11.5t31.5 29t31 38.5t27 39l-8 3q-32 8 -53 -1.5t-34 -23.5
q-11 -12 -17.5 -25.5t-10.5 -26.5t-4 -24t3 -17l3 -3h3zM748 -103q3 11 4.5 27t0 33.5t-8.5 34t-20 28.5q-8 -33 -11.5 -64t-1.5 -57q3 -21 7.5 -29t8.5 -9q4 0 10 9.5t11 26.5z" />
    <glyph glyph-name="r_ss01" horiz-adv-x="863" 
d="M6 253q-2 0 -4 2q-3 3 1 7q19 12 51.5 17.5t73.5 7t89 0.5t99 -3q59 -2 117 -3.5t106.5 1.5t84.5 13t51 30q-20 0 -37 2.5t-23 14.5q-7 16 14 48q13 18 32 37.5t38.5 36t37.5 27.5t29 11h2q8 -2 11 -8q1 -2 1.5 -8.5t-6.5 -23.5t-25.5 -47.5t-54.5 -80.5q17 -1 32 -4.5
t20 -14.5q9 -17 -11 -49q-23 -37 -33.5 -57.5t-14.5 -31.5q-4 -12 -2 -17q4 -3 21.5 8.5t44 35t60 56t69.5 71.5q1 2 3 2t4 -2q3 -4 0 -7q0 -1 -12.5 -14t-31.5 -32t-42 -41.5t-45.5 -41.5t-41.5 -32t-29 -13q-2 0 -2.5 0.5t-1.5 0.5q-1 -1 -4 -1q-8 0 -13 8q-6 11 -0.5 34
t15 48t20.5 48t17 34l-30 2q-14 -24 -50.5 -35.5t-87 -15.5t-111.5 -2.5t-122 3.5q-48 2 -95 3t-88 -0.5t-73 -6.5t-50 -17h-3zM679 335q1 0 1.5 -0.5t1.5 -0.5q34 47 52.5 76.5t26.5 46.5t9 24t0 9q-2 2 -3 2h-2v-1q-14 -11 -35.5 -30.5t-41 -42t-31.5 -44.5t-7 -38
q7 -1 14 -1h15z" />
    <glyph glyph-name="s_ss01" horiz-adv-x="914" 
d="M6 253q-2 0 -4 2q-3 3 1 7q19 12 51.5 17.5t73.5 7t89 0.5t99 -3q53 -2 105.5 -3.5t98.5 0.5t82.5 8.5t57.5 20.5q-10 40 -5 77.5t37 67.5q36 41 53 36q3 -1 6.5 -4.5t4.5 -11.5q2 -12 -3 -32.5t-14 -42t-20.5 -41.5t-23.5 -31q8 -21 18 -42.5t21 -43.5l30 -63
q37 22 78 55.5t88 95.5q4 4 7 1q4 -4 1 -7q-48 -63 -90 -97.5t-80 -56.5q16 -39 18 -72.5t-23 -56.5q-35 -30 -65.5 -46t-54.5 -16q-5 0 -10.5 1t-10.5 3q-22 9 -27 35q-2 19 11.5 46.5t51.5 54.5q15 11 30.5 19.5t32.5 17.5l5 3l-8 15q-16 30 -31 62.5t-25 64.5
q-23 -14 -60 -21t-83.5 -9t-98.5 -0.5t-105 3.5q-48 2 -95 3t-88 -0.5t-73 -6.5t-50 -17h-3zM755 49q11 14 1.5 40t-26.5 61l-4 -3q-17 -9 -32.5 -17.5t-29.5 -18.5q-36 -25 -48.5 -50t-10.5 -42q3 -20 21 -27q22 -8 56.5 7t72.5 50zM700 448q-19 -21 -19 -49t11 -60
q10 11 20.5 29.5t18.5 38t12 38t3 29.5q0 2 -1 4.5t-3 2.5h-1q-3 0 -12 -5t-29 -28z" />
    <glyph glyph-name="t_ss01" horiz-adv-x="905" 
d="M6 253q-2 0 -4 2q-3 3 1 7q19 12 51.5 17.5t73.5 7t89 0.5t99 -3q54 -2 107 -3.5t99.5 0.5t83 9.5t57.5 22.5q12 69 30.5 137.5t38.5 120.5q-35 8 -68 13t-62 5.5t-53 -5.5t-41 -19q-4 -4 -7 1q-4 3 0 7q38 29 99 26.5t136 -19.5q13 33 25 54t21 26q10 3 15 -4l1 -1v-3
q-3 -12 -9 -32.5t-15 -48.5l73 -19q54 -14 107 -27t100.5 -18t86.5 0.5t64 28.5q4 2 7 -1q3 -4 0 -7q-20 -18 -48.5 -25.5t-63.5 -7.5q-55 0 -121.5 15t-134.5 33l-72 19q-11 -36 -25 -82.5t-27.5 -96.5t-24.5 -99.5t-17 -92.5t-5 -75.5t13 -48.5q6 -9 16 -11q3 -1 8 -1
q7 0 21 13t32 34.5t39 50t42.5 59t42 61t37.5 57.5q2 4 7 1q5 -2 1 -6q-5 -7 -20 -30.5t-36 -55t-45.5 -65.5t-48 -63t-42.5 -47.5t-30 -18.5h-1q-43 0 -55 62q-7 35 -4.5 85.5t11.5 107.5q-24 -14 -61 -20.5t-83 -8.5t-98 -0.5t-104 3.5q-48 2 -95 3t-88 -0.5t-73 -6.5
t-50 -17h-3z" />
    <glyph glyph-name="u_ss01" horiz-adv-x="899" 
d="M6 253q-2 0 -4 2q-3 3 1 7q19 12 51.5 17.5t73.5 7t89 0.5t99 -3q59 -2 116.5 -3.5t106.5 1.5t85 12.5t51 29.5q-2 2 -0.5 4.5t4.5 3.5q5 -1 8.5 -2t8.5 -6q6 -8 6 -22t-3.5 -31t-9 -36t-11.5 -37q-4 -12 -7 -23.5t-5 -18.5q6 6 17.5 23t26.5 40.5t31.5 51.5t32.5 57
q0 2 3 4h3q4 0 7 -3q8 -11 -5 -60.5t-39 -129.5q-5 -15 -9.5 -30t-8.5 -28t-6.5 -23.5t-3.5 -15.5q13 6 37 36.5t52.5 73t57.5 90.5t52 88q4 4 7 2q5 -4 2 -7q-4 -8 -18.5 -32.5t-34.5 -57t-43.5 -68.5t-45.5 -66.5t-40.5 -50t-29.5 -19.5q-6 0 -9 5q-3 3 -4.5 11t1 25.5
t9.5 47t22 76.5l26 82q-14 -25 -28 -48t-26 -41.5t-21.5 -30.5t-15.5 -15h-3q-6 0 -11 5q-8 11 -3 40.5t16 71.5q4 13 7.5 27.5t5.5 24.5q-19 -19 -56.5 -28t-86 -12t-105.5 -1.5t-114 3.5q-48 2 -95 3t-88 -0.5t-73 -6.5t-50 -17h-3z" />
    <glyph glyph-name="v_ss01" horiz-adv-x="925" 
d="M6 253q-2 0 -4 2q-3 3 1 7q19 12 51.5 17.5t73.5 7t89 0.5t99 -3q61 -2 120.5 -3.5t109 2t85 14.5t48.5 33q1 4 5.5 3.5t10 -3t10 -5.5t6.5 -5q9 -12 11.5 -31.5t1 -42t-5.5 -44t-7 -36.5q0 -5 -2 -11q9 5 23 23t30 48q11 19 20.5 42t15.5 46q-5 3 -9 5.5t-9 6.5
q-20 14 -29.5 30.5t-5.5 27.5q2 6 8 11t21 5q39 0 39 -48q0 -16 -4 -32q28 -14 63 -14.5t70 24.5q3 3 7 -1t-1 -7q-38 -26 -75 -26t-66 14q-7 -27 -20 -56t-28 -53.5t-29.5 -40.5t-25.5 -17q-5 0 -8 3q-6 7 -5.5 26t2.5 51q1 14 2 29.5t1 29t-1.5 24t-5.5 14.5l-4 2
q-15 -23 -52 -34t-87 -15t-110 -2.5t-121 3.5q-48 2 -95 3t-88 -0.5t-73 -6.5t-50 -17h-3zM800 324q3 15 3 28q0 38 -29 38q-6 0 -11.5 -2t-7.5 -7q-2 -7 5 -20t26 -27q3 -3 6.5 -5.5t7.5 -4.5z" />
    <glyph glyph-name="w_ss01" horiz-adv-x="999" 
d="M6 253q-2 0 -4 2q-3 3 1 7q19 12 51.5 17.5t73.5 7t89 0.5t99 -3q60 -2 119 -3.5t108.5 2t85 14t49.5 31.5q0 4 4.5 4.5t10 -2t10.5 -5.5t7 -4q7 -11 5.5 -30.5t-8.5 -42.5t-17.5 -48t-19.5 -47q-7 -14 -13 -29t-8 -21q10 3 23.5 21.5t28 44t28.5 54.5t25 53v1q2 2 5.5 6
t8.5 3q8 -2 10.5 -25.5t3.5 -80.5q1 -20 2 -43t2.5 -43.5t4.5 -36t8 -19.5q8 2 21.5 29t26.5 67t23 87t12 89q-8 3 -14.5 7t-12.5 9q-20 14 -29.5 30.5t-5.5 27.5q2 6 8 11t21 5q21 0 34 -24q9 -20 9 -56v-4q27 -11 59.5 -10t65.5 24q3 3 7 -1q3 -5 -1 -7q-35 -24 -69 -26
t-63 9q-2 -37 -12 -85t-23.5 -90.5t-29 -72t-28.5 -29.5q-6 0 -11 5q-8 9 -15 32t-11.5 53t-7 64t-1.5 65q-9 -20 -22.5 -46.5t-28 -50.5t-29 -41t-26.5 -17h-1q-8 0 -10 5q-8 11 0 38t25 71q6 17 12.5 35t11 33.5t6 28t-1.5 17.5q-1 0 -3 2q-15 -23 -52 -34t-87 -15
t-110 -2.5t-121 3.5q-48 2 -95 3t-88 -0.5t-73 -6.5t-50 -17h-3zM861 334q7 -6 21 -13q0 32 -8 51q-9 18 -25 18q-6 0 -11.5 -2t-7.5 -7q-3 -7 4.5 -20t26.5 -27z" />
    <glyph glyph-name="x_ss01" horiz-adv-x="960" 
d="M6 253q-2 0 -4 2q-3 3 1 7q19 12 51.5 17.5t73.5 7t89 0.5t99 -3q61 -2 120.5 -3.5t109 2t85 14.5t48.5 33q1 4 6 2q6 0 14 -4q13 -12 18 -45q13 22 26 41.5t25.5 34.5t25.5 24t26 9q5 0 5 -5t-5 -5q-12 0 -24 -9.5t-25 -25.5t-26 -37t-26 -43q2 -19 3 -40t2 -44
q0 -25 1 -50t4 -46t8.5 -34.5t14.5 -14.5q11 0 37.5 30t59 74t66.5 95t61 93q3 5 7 1q5 -2 1 -6q-5 -8 -21 -33t-38 -58t-48 -69t-50 -66.5t-44 -50.5t-31 -20h-1q-20 0 -31.5 18t-17.5 45.5t-7.5 61.5t-2.5 67q-14 -23 -28.5 -43t-29.5 -35.5t-31 -24.5t-34 -9q-5 0 -5 5
t5 5q17 0 33 10.5t31.5 27.5t30 38.5t28.5 44.5q0 13 -1 26.5t-1.5 25t-2 19.5t-3.5 11q-15 -23 -52 -34t-87.5 -14.5t-110 -2t-119.5 3.5q-48 2 -95 3t-88 -0.5t-73 -6.5t-50 -17h-3z" />
    <glyph glyph-name="y_ss01" horiz-adv-x="844" 
d="M6 253q-2 0 -4 2q-3 3 1 7q19 12 51.5 17.5t73.5 7t89 0.5t99 -3q59 -2 117.5 -3.5t107.5 1.5t84.5 13t50.5 30q-2 6 5 7h5q12 -1 18 -17q4 -14 0.5 -37.5t-10.5 -49t-15.5 -47.5t-14.5 -32h2q9 1 21 18.5t25.5 42.5t26.5 54t23 54v6q0 13 13 13q4 0 10 -4q4 -6 3 -10v-4
q-4 -85 -13.5 -152t-24.5 -120q35 0 71 -1.5t71 -3.5q5 0 5 -5q-2 -5 -6 -5q-39 3 -75 4.5t-69 0.5q-22 -76 -51 -122.5t-60.5 -72.5t-63 -35t-57.5 -9h-29q-17 0 -31.5 3.5t-26.5 8.5q-32 16 -46.5 44t-6.5 58q9 34 40 58.5t77.5 40.5t104.5 24.5t122 10.5q13 36 21 71
t12.5 67t6.5 59.5t3 47.5q-9 -20 -20.5 -45.5t-24.5 -48.5t-26 -39.5t-23 -18.5h-4q-6 0 -10 4l-3 2q-5 5 -1.5 26.5t14.5 66.5q4 20 8.5 42t6.5 34q-18 -20 -55.5 -29.5t-86.5 -12.5t-106.5 -1.5t-115.5 3.5q-48 2 -95 3t-88 -0.5t-73 -6.5t-50 -17h-3zM432 -181
q19 -9 44 -11t52.5 6t56.5 29t57 58q25 32 43 66.5t31 69.5q-82 -3 -141.5 -14.5t-100 -29t-62.5 -39.5t-28 -45q-7 -26 6 -51t42 -39z" />
    <glyph glyph-name="z_ss01" horiz-adv-x="796" 
d="M6 253q-2 0 -4 2q-3 3 1 7q19 12 51.5 17.5t73.5 7t89 0.5t99 -3q58 -2 114.5 -3.5t105 1t84.5 11.5t53 28q-20 2 -36.5 6t-21.5 15q-9 16 13 48q13 18 32 38t38.5 36.5t37 27.5t28.5 11h2q6 0 10 -7q1 -3 1.5 -9.5t-6.5 -23.5t-25.5 -48.5t-54.5 -83.5q14 0 32 -2
t26 -17q7 -16 -15 -46q-20 -28 -37 -48.5t-30 -35.5q-19 -22 -29 -35t-8 -21q1 -8 22 -18q11 -5 22 -13.5t15 -23.5q1 -5 1.5 -11t-1.5 -14q39 1 78 0t78 -4q5 0 5 -5t-6 -5q-44 3 -83 4.5t-74 0.5q-13 -46 -84 -142q-41 -54 -83.5 -75.5t-80.5 -21.5q-16 0 -30.5 3.5
t-27.5 8.5q-32 16 -46.5 44t-6.5 58q9 33 37.5 56.5t72 39.5t98.5 25t116 12q1 5 1 9v9q0 21 -12 32q-15 13 -42 13q-8 0 -10 5q-5 9 9 28.5t43 55.5q12 15 25.5 32t25 32.5t19.5 30t11 25.5q-8 2 -18 3t-20 1q-15 -23 -52 -34t-87 -14.5t-109.5 -2t-120.5 3.5q-48 2 -95 3
t-88 -0.5t-73 -6.5t-50 -17h-3zM385 -181q14 -6 30.5 -9.5t35.5 -1.5q20 1 50.5 24t60.5 57t54.5 73.5t33.5 73.5q-77 -4 -133 -16t-94 -29t-59 -38.5t-27 -43.5q-7 -26 6 -51t42 -39zM679 332q31 43 49 72t27 47t11 27t2 12q-15 -12 -36.5 -32t-41 -42.5t-30.5 -44.5
t-5 -37v-1q6 0 12 -0.5t12 -0.5z" />
    <glyph glyph-name="a_ss02" horiz-adv-x="907" 
d="M768 313q-48 0 -102.5 5t-110.5 10q-46 4 -89 7.5t-79 4.5t-61.5 -2.5t-35.5 -13.5q-5 -5 -19.5 -20t-35 -35t-44 -42.5t-46 -41t-41.5 -30.5t-30 -12q-6 0 -9 5q-4 7 -0.5 24.5t12 40.5t20.5 49t24 50q-11 -15 -23.5 -29t-25.5 -25.5t-25 -18.5t-23 -7h-4q-13 3 -17 17
q-4 12 -2 30t9.5 37.5t20.5 38t30 30.5q16 11 39.5 15t54.5 -18l5 8l1 1h1q0 1 1 1h2q10 0 14 -8q5 -8 1.5 -24t-13.5 -38.5t-24.5 -50.5t-32.5 -59l-18 -34t-12 -25q13 4 37.5 23t53 45t58 55t53.5 55q9 9 28.5 13.5t44.5 5.5t53.5 0t56 -3t51.5 -5t40 -4q50 -5 102 -9.5
t98.5 -5t84 4t58.5 18.5q4 2 7 -2q2 -4 -2 -6q-22 -14 -56.5 -19.5t-79.5 -5.5zM24 242q13 0 30.5 13.5t34.5 34t33 43t27 40.5q-23 8 -42.5 -1.5t-33.5 -22.5t-24.5 -29t-17.5 -31t-9.5 -27t-0.5 -18q0 -2 3 -2z" />
    <glyph glyph-name="b_ss02" horiz-adv-x="961" 
d="M822 313q-48 0 -102.5 5t-110.5 10q-46 4 -89.5 8t-79.5 5t-61.5 -2.5t-34.5 -14.5q-33 -41 -74.5 -84.5t-86.5 -80.5q-5 -11 -10 -20.5t-10 -19.5q-27 -45 -60 -68t-68 -23q-8 0 -10 5q-1 3 1.5 7.5t10.5 12.5t22.5 20t37.5 30l32 24q13 22 24.5 46.5t20 48t12.5 44
t3 35.5q-1 13 -4.5 16.5t-6.5 4.5h-3q-7 0 -18.5 -5t-25 -14t-28 -22t-26.5 -28q-47 -57 -38 -105v-2q0 -3 -3 -3.5t-5 0.5l-1 1q-18 21 -20.5 72.5t9 117t34 134.5t53.5 124q37 65 78 94t83 20q33 -6 39 -37q4 -27 -15.5 -69t-54.5 -88.5t-82.5 -92t-98.5 -80.5
q-9 -42 -14 -78t-7 -63q5 15 13.5 30.5t21.5 30.5q25 30 56 51.5t50 21.5h5q32 -5 32 -58q0 -44 -20 -95q41 35 77.5 75t66.5 76q12 15 47 19t76.5 2.5t83 -6.5t67.5 -7q50 -5 102 -9.5t98.5 -5t84 4t58.5 18.5q4 2 7 -2q2 -4 -2 -6q-22 -14 -56.5 -19.5t-79.5 -5.5z
M265 696q-53 9 -104 -70q-17 -26 -32.5 -58.5t-28 -68.5t-23.5 -73t-19 -73q48 34 92.5 78t78.5 88.5t52.5 84t14.5 64.5q-5 24 -31 28zM104 95q-23 -18 -43 -33.5t-25 -23.5q18 4 37.5 20.5t37.5 42.5z" />
    <glyph glyph-name="c_ss02" horiz-adv-x="842" 
d="M703 312q-48 0 -102.5 5t-110.5 10q-46 4 -89 7.5t-79 4.5t-61.5 -2.5t-35.5 -13.5q-2 -2 -22.5 -20t-48.5 -39t-58 -38t-51 -17q-24 0 -34.5 11.5t-13.5 22.5q-5 17 -0.5 39.5t15 44.5t25.5 41t32 28q26 15 48 -1l4 -5h1q8 -8 9 -21.5t-4 -27.5q-10 -25 -31 -27
q-5 0 -5 5q-1 2 0.5 3.5t3.5 1.5q16 2 23 21q4 11 3 21.5t-7 16.5q-1 3 -4 4q-7 6 -19 0q-13 -7 -26 -26t-22.5 -42t-14.5 -46t-1 -38t18 -15q19 0 48.5 17t57 37.5t47.5 38t20 18.5q13 10 39.5 14t62.5 4t79.5 -4t91.5 -8q50 -5 102 -9.5t98.5 -5t84 4t58.5 18.5q4 2 7 -2
q2 -4 -2 -6q-22 -14 -56.5 -19.5t-79.5 -5.5z" />
    <glyph glyph-name="d_ss02" horiz-adv-x="999" 
d="M860 313q-48 0 -102.5 5t-110.5 10q-45 4 -88 7.5t-78.5 4.5t-61 -2.5t-36.5 -12.5q-5 -7 -20.5 -30.5t-36.5 -55t-45.5 -65.5t-47.5 -63t-42.5 -47.5t-30.5 -18.5q-8 0 -17 4.5t-17 19.5q-14 29 -12 89t17 134q-11 -16 -26.5 -36t-32.5 -37.5t-34 -29.5t-32 -12h-2
q-5 0 -11.5 5t-10.5 20t-3 36t7 42.5t17 39.5t28 27q15 9 41 6.5t62 -38.5l3 4q10 45 24 90.5t31 88t37 79.5t42 66q58 75 115 63q33 -6 38 -37q4 -27 -15 -68.5t-53.5 -87.5t-81 -91.5t-97.5 -80.5q-17 -65 -26 -124t-9 -100q0 -30 5 -48q5 -14 13 -14q7 0 21 13t32 34.5
t39 50t42.5 59t42 61t37.5 57.5q12 12 38 16t62 4t80.5 -4t93.5 -8q50 -5 102 -9.5t98.5 -5t84 4t58.5 18.5q4 2 7 -2q2 -4 -2 -6q-22 -14 -56.5 -19.5t-79.5 -5.5zM384 696q-31 0 -60.5 -29.5t-55.5 -77.5t-48.5 -109t-38.5 -124q47 34 91 78t77 87.5t51 82.5t14 64
q-5 24 -30 28zM6 187q13 0 29.5 12t33.5 30t32.5 39t27.5 39q-38 37 -70 17q-15 -9 -27 -26.5t-19.5 -38t-10.5 -39t0 -28.5q1 -1 1.5 -3t2.5 -2z" />
    <glyph glyph-name="e_ss02" horiz-adv-x="844" 
d="M705 313q-48 0 -102.5 5t-110.5 10q-45 4 -88 7.5t-78.5 4.5t-61 -2.5t-36.5 -12.5q-1 -2 -11 -11t-25.5 -22t-34.5 -27.5t-39 -27t-38.5 -20.5t-32.5 -8q-28 0 -43 15q-14 12 -14 35q0 28 18 58q17 29 47 52t65 23q17 0 17 -16q0 -10 -9 -21t-24 -21q-10 -7 -27 -14
t-41 -9q-8 -14 -12.5 -29t-4.5 -31q0 -14 7 -23q5 -8 21 -8q19 0 48.5 17t57 37.5t47.5 38t20 18.5q12 11 37.5 15.5t61.5 4t80.5 -4.5t93.5 -8q50 -5 102 -9.5t98.5 -5t84 4t58.5 18.5q4 2 7 -2q2 -4 -2 -6q-22 -14 -56.5 -19.5t-79.5 -5.5zM120 382q-17 0 -39 -17t-39 -43
q20 3 34 8.5t23 11.5q14 10 21 19.5t7 14.5q0 2 -1 4t-6 2z" />
    <glyph glyph-name="f_ss02" horiz-adv-x="830" 
d="M691 313q-48 0 -102.5 5t-110.5 10q-46 4 -89 7.5t-79 4.5t-61.5 -2.5t-35.5 -13.5l-1 -1q-2 -2 -12 -13t-25.5 -24t-34.5 -25t-38 -15q-11 -2 -19.5 -2t-16.5 2q-2 -30 -8 -63t-15 -63t-20 -54t-24 -35q-14 -15 -22 -15h-4q0 1 -1 1h-1q-2 0 -8 2q-18 9 -14 64
q2 28 9.5 64t19.5 76.5t27 83t33 83.5q12 28 30 64t40 69.5t46.5 59.5t50.5 34q20 7 28 -2q11 -13 -5 -47q-11 -26 -33 -59.5t-48 -66t-51.5 -59.5t-44.5 -39l-2 -4q8 -6 12 -19q4 -11 5.5 -28t0.5 -37q15 -3 34 0q18 3 36.5 15t33.5 25t24.5 23.5l9.5 10.5q14 14 49 18
t76 2.5t82 -6t67 -6.5q50 -5 102 -9.5t98.5 -5t84 4t58.5 18.5q4 2 7 -2q2 -4 -2 -6q-22 -14 -56.5 -19.5t-79.5 -5.5zM208 608q-19 -9 -38.5 -33t-39 -57t-38 -74t-35.5 -84q18 15 41.5 41t47 56t43 60.5t30.5 54.5q9 20 8.5 27.5t-1.5 8.5q-1 2 -6 2q-2 0 -12 -2zM-8 38
q10 9 21 32t20 52.5t15.5 62.5t8.5 63q-11 4 -17.5 9.5t-11.5 11.5l-2 4q-13 -38 -23 -74.5t-17.5 -67t-11 -54.5t-2.5 -37q1 -11 3 -12q8 2 17 10zM58 259q2 36 -6 59q-3 7 -7 11l-15 -43l6 -10q10 -13 22 -17z" />
    <glyph glyph-name="g_ss02" horiz-adv-x="782" 
d="M643 313q-48 0 -102.5 5t-110.5 10q-46 4 -89 7.5t-79 4.5t-61.5 -2.5t-35.5 -13.5l-1 -1q-4 -42 -12.5 -102.5t-25.5 -126.5q-3 -13 -6.5 -24.5t-6.5 -23.5q35 1 71 -0.5t71 -3.5q5 0 5 -5q-2 -5 -6 -5q-39 3 -75.5 4.5t-68.5 0.5q-39 -118 -97.5 -178.5t-134.5 -60.5
h-29q-17 0 -31.5 3.5t-26.5 8.5q-32 16 -46.5 44t-6.5 58q9 34 40 58.5t77 40.5t104.5 24.5t121.5 10.5q16 44 26.5 88.5t17.5 85t10 74t5 56.5q-8 -23 -19.5 -52.5t-26 -56.5t-30.5 -45.5t-32 -18.5h-2q-17 2 -26 28q-5 16 -6 38t2.5 44.5t13 42.5t25.5 32q12 9 34.5 10.5
t56.5 -20.5l12 37l1 1v1h1l1 1h18q3 0 4 -1t1 -4q0 -1 -0.5 -15t-2.5 -36q14 9 40.5 11.5t61 2t76.5 -4t88 -7.5q50 -5 102 -9.5t98.5 -5t84 4t58.5 18.5q4 2 7 -2q2 -4 -2 -6q-22 -14 -56.5 -19.5t-79.5 -5.5zM-205 -181q19 -9 44 -11t52.5 6t56.5 29t57 58q23 30 41 64.5
t32 70.5q-81 -3 -140.5 -14.5t-100 -28.5t-62.5 -39t-28 -45q-7 -26 6 -51t42 -39zM32 187q12 0 25 15t25.5 38t24 50.5t20.5 52.5q-30 18 -53 1q-15 -11 -25.5 -31.5t-16.5 -43.5t-7 -44t2 -32l2 -4t3 -2z" />
    <glyph glyph-name="h_ss02" horiz-adv-x="970" 
d="M831 312q-48 0 -102.5 5t-110.5 10q-46 4 -89 7.5t-79 4.5t-61.5 -2.5t-35.5 -13.5q-9 -13 -26.5 -40.5t-40 -60t-47.5 -67t-47.5 -62.5t-41 -46.5t-27.5 -18.5h-1q-6 0 -9 4q-9 13 2.5 62.5t33.5 124.5q9 29 16.5 56.5t8.5 36.5q-12 -2 -26.5 -19.5t-38.5 -49.5
q-14 -19 -31.5 -42.5t-40.5 -52.5q0 -2 -3 -2q-2 0 -4 2q-19 20 -21.5 71t8.5 115t33.5 132t54.5 124q76 134 163 116q33 -6 38 -37q5 -28 -15.5 -71t-57 -90.5t-86 -94.5t-101.5 -81q-9 -48 -9.5 -89.5t9.5 -67.5l55 74q28 38 43.5 56t32.5 18h1q10 -3 15 -11q6 -12 4 -34
t-9.5 -49.5t-18 -58.5t-20.5 -59q-8 -21 -15 -42t-9 -30q8 3 23 18.5t33.5 39t40 53t43.5 60.5t42.5 62t38.5 58l2 2q13 10 39 13.5t61.5 3t79 -4t91.5 -7.5q50 -5 102 -9.5t98.5 -5t84 4t58.5 18.5q4 2 7 -2q2 -4 -2 -6q-22 -14 -56.5 -19.5t-79.5 -5.5zM267 696
q-18 0 -35 -9t-32 -23t-28.5 -31.5t-23.5 -33.5q-35 -54 -60 -121.5t-39 -131.5q49 34 95.5 78.5t82 90t55 86.5t15.5 67q-5 24 -30 28z" />
    <glyph glyph-name="i_ss02" horiz-adv-x="804" 
d="M665 313q-48 0 -102.5 5t-110.5 10q-46 4 -89 7.5t-79 4.5t-61.5 -2.5t-35.5 -13.5q-7 -8 -22.5 -24.5t-35 -37t-41.5 -42t-42 -39t-35.5 -29t-22.5 -11.5h-1q-1 0 -5 2q0 1 -0.5 1t-0.5 1q-8 10 -0.5 39.5t21.5 74.5q6 19 11.5 38.5t5.5 25.5q-4 3 -3 5.5t5 3.5
q8 2 12.5 -1.5t6.5 -5.5q5 -8 4 -22t-6 -32.5t-14 -40.5t-19 -45l-14 -33q8 3 27.5 19.5t45.5 41t56 55.5t60 63q12 11 37.5 15.5t61.5 4t80.5 -4.5t93.5 -8q50 -5 102 -9.5t98.5 -5t84 4t58.5 18.5q4 2 7 -2q2 -4 -2 -6q-22 -14 -56.5 -19.5t-79.5 -5.5zM74 430q-6 0 -9 5
q-5 7 -2 18q2 8 8 14t13 6q6 0 9 -5q5 -7 2 -18q-2 -8 -8 -14t-13 -6z" />
    <glyph glyph-name="j_ss02" horiz-adv-x="646" 
d="M507 313q-48 0 -102.5 5t-110.5 10q-41 4 -80 7t-72.5 4.5t-59.5 -0.5t-41 -8l2 -4t0 -4v-4q-4 -85 -14 -152t-24 -120q35 0 71 -1.5t71 -3.5q6 0 4 -5q0 -5 -5 -5q-39 3 -75 4.5t-69 0.5q-22 -76 -51 -122.5t-60.5 -72.5t-63 -35t-57.5 -9h-29q-17 0 -31.5 3.5
t-26.5 8.5q-32 16 -47 44t-7 58q9 34 40.5 58.5t78 40.5t104.5 24.5t122 10.5q15 42 23.5 83t12.5 76.5t5.5 63.5t1.5 45v10q2 13 13 13q15 8 41 11t60.5 2t76.5 -4.5t87 -7.5q50 -5 102 -9.5t98.5 -5t84 4t58.5 18.5q4 2 7 -2q2 -4 -2 -6q-22 -14 -56.5 -19.5t-79.5 -5.5z
M-313 -181q19 -9 44 -11t52.5 6t56.5 29t57 58q25 32 43 66.5t31 69.5q-82 -3 -141.5 -14.5t-100 -29t-62.5 -39.5t-28 -45q-7 -26 6 -51t42 -39zM47 430q-7 0 -10 5q-5 7 -2 18q3 8 8.5 14t12.5 6q6 0 9 -5q5 -7 2 -18q-2 -8 -8 -14t-12 -6z" />
    <glyph glyph-name="k_ss02" horiz-adv-x="941" 
d="M802 313q-48 0 -102.5 5t-110.5 10q-46 4 -89 7.5t-79 4.5t-61.5 -2.5t-35.5 -13.5q-3 -3 -25 -20t-53 -37t-66 -36t-63 -16q-9 0 -18 3q-11 3 -21 11q-12 -22 -23 -43t-20 -41q-1 -2 -2.5 -3.5t-5.5 2.5q-19 20 -21 72t9 117t33.5 134.5t53.5 124.5q69 119 145 116h7
l9 -2h1q33 -6 38 -37q5 -28 -15.5 -71t-57 -90.5t-85.5 -94t-101 -80.5q-9 -49 -11.5 -89t3.5 -63q7 23 19.5 54.5t30.5 60.5t41.5 49.5t53.5 20.5q5 0 5 -5t-5 -5q-16 0 -40 -31.5t-50 -74.5q8 -8 19 -11q17 -5 39 0t45 15t45 23.5t39.5 25t28 20t11.5 8.5l1 1q12 10 38 14
t62 4t80 -4t92 -8q50 -5 102 -9.5t98.5 -5t84 4t58.5 18.5q4 2 7 -2q2 -4 -2 -6q-22 -14 -56.5 -19.5t-79.5 -5.5zM159 639q-20 -27 -37 -61.5t-31 -73t-25.5 -79t-19.5 -78.5q49 34 95.5 78.5t81.5 90t54 86t15 66.5q-5 24 -30 28l-9 2h-5q-45 0 -89 -59z" />
    <glyph glyph-name="l_ss02" horiz-adv-x="873" 
d="M734 313q-48 0 -102.5 5t-110.5 10q-46 4 -89 7.5t-79 4.5t-61.5 -2.5t-35.5 -13.5l-1 -1q-5 -9 -21 -32.5t-36.5 -54t-45 -64t-47 -61.5t-41.5 -46.5t-30 -19.5h-2q-4 0 -6 1q-7 2 -14 7t-13 16q-11 22 -12 63t5.5 92.5t21 110t34 115t44.5 107t53 86.5q57 75 113 63h1
q33 -6 38 -37q5 -27 -14.5 -69t-54.5 -88.5t-82.5 -92t-98.5 -80.5q-12 -47 -21 -90.5t-12.5 -80.5t-2.5 -64.5t9 -40.5q5 -6 8 -8h5q11 0 36.5 28t56.5 69.5t63.5 89.5t57.5 88l3 2q12 11 38 15t62 3.5t80 -4.5t92 -8q50 -5 102 -9.5t98.5 -5t84 4t58.5 18.5q4 2 7 -2
q2 -4 -2 -6q-22 -14 -56.5 -19.5t-79.5 -5.5zM257 696q-39 9 -84 -53q-18 -24 -35 -57t-32.5 -70.5t-29.5 -79t-25 -82.5q48 34 92.5 78t78 88t51.5 83.5t14 64.5q-3 24 -30 28z" />
    <glyph glyph-name="m_ss02" horiz-adv-x="1025" 
d="M886 313q-48 0 -102.5 5t-110.5 10q-46 4 -89 7.5t-79 4.5t-61.5 -2.5t-35.5 -13.5l-1 -1q-8 -13 -25 -40t-39 -59.5t-46 -67t-46 -62.5t-40 -46.5t-28 -19.5h-1q-5 0 -8 4q-5 6 -1.5 25.5t12.5 50t23 70t31 86.5q7 18 13.5 36.5t12.5 34.5t9.5 28t4.5 18
q-13 -4 -34 -29.5t-43 -57.5t-42 -64.5t-31 -50.5h-1v-1h-1v-1h-4l-6 3q-7 8 -3.5 36.5t11.5 78.5q3 20 6.5 42t6 41t2 32.5t-4.5 18.5l-1 1q-4 -3 -14 -18.5t-24 -39.5t-30.5 -54.5t-33.5 -62.5l-7 -26q-5 -18 -11 -34t-13 -27q-14 -26 -28 -26h-5q0 1 -1 1l-1 1v1
q-1 0 -1 1v3q3 11 8.5 27t11.5 34q5 14 11.5 32t11.5 34.5t8.5 29t2.5 17.5q-5 0 -5 5t11 3q8 -5 10.5 -17.5t0.5 -28.5q15 29 29.5 55t27.5 47t23 34.5t16 18.5q16 3 25 -6t10.5 -28.5t-1.5 -46t-10 -58t-16 -65.5l-7 -32q62 100 97 144t53 44q6 0 11 -6q6 -9 2 -33.5
t-15 -59.5t-27.5 -80t-35.5 -94q-10 -25 -18.5 -47t-11.5 -33q12 7 37.5 38.5t56 74t62 90.5t56.5 88l2 2q12 11 38 15t62 3.5t80 -4.5t92 -8q50 -5 102 -9.5t98.5 -5t84 4t58.5 18.5q4 2 7 -2q2 -4 -2 -6q-22 -14 -56.5 -19.5t-79.5 -5.5z" />
    <glyph glyph-name="n_ss02" horiz-adv-x="880" 
d="M741 313q-48 0 -102.5 5t-110.5 10q-46 4 -89 7.5t-79 4.5t-61.5 -2.5t-35.5 -13.5l-1 -1q-5 -9 -20 -34.5t-35.5 -58t-44 -68.5t-46 -65.5t-41.5 -49t-29 -19.5h-1q-7 0 -10 5q-11 15 7 69.5t50 140.5q8 21 16.5 43.5t15 42t10.5 33.5t3 19q-6 -3 -24.5 -25t-43.5 -55.5
t-54 -74t-57 -81.5l-2 -2h-5v1h-1l-1 1v5l35 76q7 15 14.5 31t13.5 29.5t9 23t2 12.5q-5 0 -4.5 5t5.5 5q8 -1 12 -4.5t6 -7.5q7 -14 -10 -53q17 23 33.5 44.5t30.5 38.5t24.5 28.5t16.5 13.5h1q11 0 16 -8q7 -10 4 -31t-12.5 -51.5t-24 -69t-32.5 -81.5q-8 -18 -15.5 -36
t-13.5 -33.5t-9.5 -27t-3.5 -16.5q12 3 37 33t55 74t61 93.5t55 91.5l2 2q12 10 38 14t62 4t80 -4t92 -8q50 -5 102 -9.5t98.5 -5t84 4t58.5 18.5q4 2 7 -2q2 -4 -2 -6q-22 -14 -56.5 -19.5t-79.5 -5.5z" />
    <glyph glyph-name="o_ss02" horiz-adv-x="870" 
d="M731 313q-48 0 -102.5 5t-110.5 10q-46 4 -89 7.5t-79 4.5t-61.5 -2.5t-35.5 -13.5l-2 -2q-24 -18 -44 -24.5t-36.5 -6t-29.5 5.5t-21 11q-10 7 -17 15q-7 -28 -16.5 -56t-20 -50.5t-21.5 -37.5t-20 -16h-2q-22 0 -27 53q-2 23 1 53.5t11 59t22 50.5t35 28q0 7 0.5 13.5
t2.5 12.5q8 23 30 23q5 0 9.5 -2t7.5 -10q4 -8 4 -27q0 -15 -3.5 -37t-9.5 -46l9.5 -9.5t9.5 -8.5q9 -6 21 -10.5t27 -4.5t33 6.5t39 22.5l1 1q12 11 37.5 15.5t61.5 4t80.5 -4.5t93.5 -8q50 -5 102 -9.5t98.5 -5t84 4t58.5 18.5q4 2 7 -2q2 -4 -2 -6q-22 -14 -56.5 -19.5
t-79.5 -5.5zM70 381q-23 -8 -38 -65q-7 -24 -10 -48.5t-3.5 -44.5t1 -33.5t4.5 -16.5q6 0 15 14.5t19 37t20 50.5t17 57q-17 22 -25 49zM77 430q-2 -6 -2.5 -12t1.5 -14v-2q2 -14 7.5 -29t15.5 -29q5 20 7.5 39t2.5 34t-3 23q-4 7 -8 7q-15 0 -21 -17z" />
    <glyph glyph-name="p_ss02" horiz-adv-x="949" 
d="M810 313q-48 0 -102.5 5t-110.5 10q-45 4 -88 7.5t-78.5 4.5t-61 -2.5t-36.5 -12.5q-27 -45 -53 -75t-51 -49.5t-48 -29.5t-43 -15q-11 -15 -23 -28.5t-24 -23.5q-26 -25 -45 -25q-2 0 -9 1t-9 2q-11 6 -4 40q5 23 22.5 28t40.5 8q5 0 15 2q15 21 29.5 44.5t25 45.5
t15.5 39.5t2 26.5q-2 4 -6 5q-1 1 -4 1q-11 0 -31 -21.5t-48 -54.5q-13 -15 -27.5 -32.5t-31.5 -36.5l-2 -2q-5 -36 -11 -68t-14 -60q35 0 70.5 -1.5t70.5 -3.5q5 0 5 -5t-5 -5q-40 3 -76 4.5t-68 0.5q-22 -76 -51.5 -122.5t-61 -72.5t-63 -35t-57.5 -9h-28q-17 0 -31.5 3.5
t-27.5 8.5q-32 16 -46.5 44t-6.5 58q9 34 40 58.5t77.5 40.5t105 24.5t122.5 10.5q15 42 23 83t12 76.5t5.5 63.5t1.5 45l1 10q0 13 13 13q5 0 9 -4t4 -10v-4q-2 -35 -4.5 -66.5t-6.5 -60.5q15 17 28 32t24 29q32 38 52 58.5t34 20.5h5q14 -2 21 -9t9 -13q4 -12 1.5 -28.5
t-10 -35.5t-19 -38.5t-24.5 -38.5q19 6 40 16.5t43.5 29t46 46.5t47.5 69l2 2q12 10 38 14t62 4t80 -4t92 -8q50 -5 102 -9.5t98.5 -5t84 4t58.5 18.5q4 2 7 -2q2 -4 -2 -6q-22 -14 -56.5 -19.5t-79.5 -5.5zM-319 -181q19 -9 43.5 -11t52 6t56.5 29t57 58q25 32 43 66.5
t31 69.5q-82 -3 -141.5 -14.5t-99.5 -29t-62 -39.5t-28 -45q-8 -26 5.5 -51t42.5 -39zM48 98q19 15 46 51q-2 -1 -6 -1q-25 -3 -37.5 -7t-16.5 -21q-2 -21 5 -28z" />
    <glyph glyph-name="q_ss02" horiz-adv-x="914" 
d="M775 313q-48 0 -102.5 5t-110.5 10q-46 4 -89 7.5t-79 4.5t-61.5 -2.5t-35.5 -13.5q-5 -7 -19 -27.5t-34 -48.5t-44 -60.5t-48 -61.5t-46.5 -52.5t-39.5 -34.5q0 -2 -2 -8q15 -12 23.5 -28t12 -34.5t2 -37.5t-5.5 -37q-5 -16 -12.5 -29.5t-18.5 -13.5h-1q-18 1 -25 46
q-24 109 52 312q11 31 22.5 58.5t22.5 50.5q-11 -15 -24 -30.5t-26 -28t-26 -20.5t-25 -8q-20 0 -29 22q-8 20 -3.5 48.5t24.5 50.5q7 7 17.5 14t25.5 10.5t34.5 2.5t44.5 -8l9 -3l13 22l2 2h5v-1q1 0 3 -3q3 -6 -4.5 -28t-27.5 -75q-18 -47 -40 -108t-39 -124
q19 15 47 46.5t58 70.5t60 81t54 79h1v1q12 11 37.5 15.5t61.5 4t80.5 -4.5t93.5 -8q50 -5 102 -9.5t98.5 -5t84 4t58.5 18.5q4 2 7 -2q2 -4 -2 -6q-22 -14 -56.5 -19.5t-79.5 -5.5zM34 241q13 0 28.5 11.5t31.5 29t31 38.5t27 39l-8 3q-32 8 -53 -1.5t-34 -23.5
q-11 -12 -17.5 -25.5t-10.5 -26.5t-4 -24t3 -17l3 -3h3zM86 -103q3 11 4.5 27t0 33.5t-8.5 34t-20 28.5q-8 -33 -11.5 -64t-1.5 -57q3 -21 7.5 -29t8.5 -9q4 0 10 9.5t11 26.5z" />
    <glyph glyph-name="r_ss02" horiz-adv-x="842" 
d="M703 313q-48 0 -102.5 5t-110.5 10q-46 4 -89 7.5t-79 4.5t-61.5 -2.5t-35.5 -13.5q0 -1 -12.5 -14t-31.5 -32t-42 -41.5t-45.5 -41.5t-41.5 -32t-29 -13q-2 0 -2.5 0.5t-1.5 0.5q-1 -1 -4 -1q-8 0 -13 8q-6 11 -0.5 34t15 48t20.5 48t17 34q-8 2 -18 2t-20 1
q-21 0 -39 2.5t-24 14.5q-7 16 14 48q13 18 32 37.5t38.5 36t37.5 27.5t29 11h2q8 -2 11 -8q1 -2 1.5 -8.5t-6.5 -23.5t-25.5 -47.5t-54.5 -80.5q17 -1 32 -4.5t20 -14.5q9 -17 -11 -49q-23 -37 -33.5 -57.5t-14.5 -31.5q-4 -12 -2 -17q4 -3 21.5 8.5t44 35t60 56t69.5 71.5
l1 1q12 10 38 14t62 4t80 -4t92 -8q50 -5 102 -9.5t98.5 -5t84 4t58.5 18.5q4 2 7 -2q2 -4 -2 -6q-22 -14 -56.5 -19.5t-79.5 -5.5zM17 335q1 0 1.5 -0.5t1.5 -0.5q34 47 52.5 76.5t26.5 46.5t9 24t0 9q-2 2 -3 2h-2v-1q-14 -11 -35.5 -30.5t-41 -42t-31.5 -44.5t-7 -38
q7 -1 14 -1h15z" />
    <glyph glyph-name="s_ss02" horiz-adv-x="893" 
d="M754 313q-48 0 -102.5 5t-110.5 10q-46 4 -89 7.5t-79 4.5t-61.5 -2.5t-35.5 -13.5q-48 -63 -90 -97.5t-80 -56.5q16 -39 18 -72.5t-23 -56.5q-35 -30 -65.5 -46t-54.5 -16q-5 0 -10.5 1t-10.5 3q-22 9 -27 35q-2 19 11.5 46.5t51.5 54.5q15 11 30.5 19.5t32.5 17.5l5 3
l-8 15q-18 34 -35.5 72t-25.5 75t-1.5 71.5t36.5 62.5q36 41 53 36q3 -1 6.5 -4.5t4.5 -11.5q2 -12 -3 -32.5t-14 -42t-20.5 -41.5t-23.5 -31q8 -21 18 -42.5t21 -43.5l30 -63q37 22 78 55.5t88 95.5l1 1q12 11 37.5 15.5t61.5 4t80.5 -4.5t93.5 -8q50 -5 102 -9.5t98.5 -5
t84 4t58.5 18.5q4 2 7 -2q2 -4 -2 -6q-22 -14 -56.5 -19.5t-79.5 -5.5zM93 49q11 14 1.5 40t-26.5 61l-4 -3q-17 -9 -32.5 -17.5t-29.5 -18.5q-36 -25 -48.5 -50t-10.5 -42q3 -20 21 -27q22 -8 56.5 7t72.5 50zM38 448q-19 -21 -19 -49t11 -60q10 11 20.5 29.5t18.5 38
t12 38t3 29.5q0 2 -1 4.5t-3 2.5h-1q-3 0 -12 -5t-29 -28z" />
    <glyph glyph-name="t_ss02" horiz-adv-x="887" 
d="M748 313q-48 0 -102.5 5t-110.5 10q-46 4 -89 7.5t-79 4.5t-61.5 -2.5t-35.5 -13.5l-1 -1q-6 -9 -21.5 -32.5t-36.5 -54.5t-45 -64.5t-47 -62t-42 -46.5t-29 -18h-1q-43 0 -55 62q-8 39 -4 98.5t16 125t30 129t36 111.5q-35 8 -68 13t-62 5.5t-53 -5.5t-41 -19
q-4 -4 -7 1q-4 3 0 7q38 29 99 26.5t136 -19.5q13 33 25 54t21 26q10 3 15 -4l1 -1v-3q-3 -12 -9 -32.5t-15 -48.5l73 -19q54 -14 107 -27t100.5 -18t86.5 0.5t64 28.5q4 2 7 -1q3 -4 0 -7q-20 -18 -48.5 -25.5t-63.5 -7.5q-55 0 -121.5 15t-134.5 33l-72 19
q-11 -36 -25 -82.5t-27.5 -96.5t-24.5 -99.5t-17 -92.5t-5 -75.5t13 -48.5q6 -9 16 -11q3 -1 8 -1q7 0 21 13t32 34.5t39 50t42.5 59t42 61t37.5 57.5l2 1q12 11 38 15t62 4t80 -4t92 -8q50 -5 102 -9.5t98.5 -5t84 4t58.5 18.5q4 2 7 -2q2 -4 -2 -6q-22 -14 -56.5 -19.5
t-79.5 -5.5z" />
    <glyph glyph-name="u_ss02" horiz-adv-x="877" 
d="M738 313q-48 0 -102.5 5t-110.5 10q-45 4 -88 7.5t-78.5 4.5t-61 -2.5t-36.5 -12.5q-4 -8 -18.5 -32.5t-34.5 -57t-43.5 -68.5t-45.5 -66.5t-40.5 -50t-29.5 -19.5q-6 0 -9 5q-3 3 -4.5 11t1 25.5t9.5 47t22 76.5l26 82q-14 -25 -28 -48t-26 -41.5t-21.5 -30.5t-15.5 -15
h-3q-6 0 -11 5q-8 11 -3 40.5t16 71.5q5 17 10 37t3 26q-1 0 -2 1q-2 2 -0.5 4.5t4.5 3.5q13 0 17 -8q6 -8 6 -22t-3.5 -31t-9 -36t-11.5 -37q-4 -12 -7 -23.5t-5 -18.5q6 6 17.5 23t26.5 40.5t31.5 51.5t32.5 57q0 2 3 4h3q4 0 7 -3q8 -11 -5 -60.5t-39 -129.5
q-5 -15 -9.5 -30t-8.5 -28t-6.5 -23.5t-3.5 -15.5q13 6 37 36.5t52.5 73t57.5 90.5t52 88l1 1q12 11 37.5 15.5t61.5 4t80.5 -4.5t93.5 -8q50 -5 102 -9.5t98.5 -5t84 4t58.5 18.5q4 2 7 -2q2 -4 -2 -6q-22 -14 -56.5 -19.5t-79.5 -5.5z" />
    <glyph glyph-name="v_ss02" horiz-adv-x="905" 
d="M766 313q-48 0 -102.5 5t-110.5 10q-46 4 -89 7.5t-79 4.5t-61.5 -2.5t-35.5 -13.5h-1q0 -1 -1 -2q-38 -26 -75 -26t-66 14q-7 -27 -20 -56t-28 -53.5t-29.5 -40.5t-25.5 -17q-5 0 -8 3q-6 7 -5.5 26t2.5 51q1 14 2 29.5t1 29t-1.5 24t-5.5 14.5q-2 2 -5 2q-5 2 -4.5 6
t8.5 4q13 0 23 -12q9 -12 11.5 -31.5t1 -42t-5.5 -44t-7 -36.5q0 -5 -2 -11q9 5 23 23t30 48q11 19 20.5 42t15.5 46q-5 3 -9 5.5t-9 6.5q-20 14 -29.5 30.5t-5.5 27.5q2 6 8 11t21 5q39 0 39 -48q0 -16 -4 -32q28 -14 63 -14.5t70 24.5l1 1q12 11 37.5 15.5t61.5 4
t80.5 -4.5t93.5 -8q50 -5 102 -9.5t98.5 -5t84 4t58.5 18.5q4 2 7 -2q2 -4 -2 -6q-22 -14 -56.5 -19.5t-79.5 -5.5zM138 324q3 15 3 28q0 38 -29 38q-6 0 -11.5 -2t-7.5 -7q-2 -7 5 -20t26 -27q3 -3 6.5 -5.5t7.5 -4.5z" />
    <glyph glyph-name="w_ss02" horiz-adv-x="980" 
d="M841 313q-48 0 -102.5 5t-110.5 10q-46 4 -89 7.5t-79 4.5t-61.5 -2.5t-35.5 -13.5l-1 -1q0 -1 -1 -1q-35 -24 -69 -26t-63 9q-2 -37 -12 -85t-23.5 -90.5t-29 -72t-28.5 -29.5q-6 0 -11 5q-8 9 -15 32t-11.5 53t-7 64t-1.5 65q-9 -20 -22.5 -46.5t-28 -50.5t-29 -41
t-26.5 -17h-1q-8 0 -10 5q-8 11 0 38t25 71q6 17 12.5 35t11 33.5t6 28t-1.5 17.5q-2 2 -5 2h-1q-3 0 -4 5t5 5q19 0 27 -11q7 -11 5.5 -30.5t-8.5 -42.5t-17.5 -48t-19.5 -47q-7 -14 -13 -29t-8 -21q10 3 23.5 21.5t28 44t28.5 54.5t25 53v1q2 2 5.5 6t8.5 3
q8 -2 10.5 -25.5t3.5 -80.5q1 -20 2 -43t2.5 -43.5t4.5 -36t8 -19.5q8 2 21.5 29t26.5 67t23 87t12 89q-8 3 -14.5 7t-12.5 9q-20 14 -29.5 30.5t-5.5 27.5q2 6 8 11t21 5q21 0 34 -24q9 -20 9 -56v-4q27 -11 59.5 -10t65.5 24l1 1q12 11 37.5 15.5t61.5 4t80.5 -4.5
t93.5 -8q50 -5 102 -9.5t98.5 -5t84 4t58.5 18.5q4 2 7 -2q2 -4 -2 -6q-22 -14 -56.5 -19.5t-79.5 -5.5zM199 334q7 -6 21 -13q0 32 -8 51q-9 18 -25 18q-6 0 -11.5 -2t-7.5 -7q-3 -7 4.5 -20t26.5 -27z" />
    <glyph glyph-name="x_ss02" horiz-adv-x="939" 
d="M800 313q-48 0 -102.5 5t-110.5 10q-46 4 -89 7.5t-79 4.5t-61.5 -2.5t-35.5 -13.5l-1 -1q-5 -9 -21.5 -34.5t-39 -58t-48 -68.5t-49 -65.5t-43.5 -49t-30 -19.5h-1q-20 0 -31.5 18t-17.5 45.5t-7.5 61.5t-2.5 67q-14 -23 -28.5 -43t-29.5 -35.5t-31 -24.5t-34 -9
q-5 0 -5 5t5 5q17 0 33 10.5t31.5 27.5t30 38.5t28.5 44.5q0 13 -1 27.5t-2 26.5t-2.5 20t-3.5 9q-2 2 -3.5 5t3.5 5q9 1 16 -4q13 -12 18 -45q13 22 26 41.5t25.5 34.5t25.5 24t26 9q5 0 5 -5t-5 -5q-12 0 -24 -9.5t-25 -25.5t-26 -37t-26 -43q2 -19 3 -40t2 -44
q0 -25 1 -50t4 -46t8.5 -34.5t14.5 -14.5q11 0 37.5 30t59 74t66.5 95t61 93l2 1q12 11 38 15t62 4t80 -4t92 -8q50 -5 102 -9.5t98.5 -5t84 4t58.5 18.5q4 2 7 -2q2 -4 -2 -6q-22 -14 -56.5 -19.5t-79.5 -5.5z" />
    <glyph glyph-name="y_ss02" horiz-adv-x="728" 
d="M589 313q-48 0 -102.5 5t-110.5 10q-41 3 -79.5 6.5t-72 5t-60 0t-41.5 -7.5q4 -6 3 -9v-4q-4 -85 -13.5 -152t-24.5 -120q35 0 71 -1.5t71 -3.5q5 0 5 -5q-2 -5 -6 -5q-39 3 -75 4.5t-69 0.5q-22 -76 -51 -122.5t-60.5 -72.5t-63 -35t-57.5 -9h-29q-17 0 -31.5 3.5
t-26.5 8.5q-32 16 -46.5 44t-6.5 58q9 34 40 58.5t77.5 40.5t104.5 24.5t122 10.5q13 36 21 71t12.5 67t6.5 59.5t3 47.5q-9 -20 -20.5 -45.5t-24.5 -48.5t-26 -39.5t-23 -18.5h-4q-6 0 -10 4l-3 2q-5 5 -1.5 26.5t14.5 66.5q3 12 6 25.5t5 25.5t3.5 21.5t0.5 12.5
q-3 0 -3 4.5t6 4.5q16 0 22 -17q4 -14 0.5 -37.5t-10.5 -49t-15.5 -47.5t-14.5 -32h2q9 1 21 18.5t25.5 42.5t26.5 54t23 54v6q0 11 12 13q15 8 41 11t60.5 2t76.5 -4.5t87 -7.5q50 -5 102 -9.5t98.5 -5t84 4t58.5 18.5q4 2 7 -2q2 -4 -2 -6q-22 -14 -56.5 -19.5t-79.5 -5.5
zM-230 -181q19 -9 44 -11t52.5 6t56.5 29t57 58q25 32 43 66.5t31 69.5q-82 -3 -141.5 -14.5t-100 -29t-62.5 -39.5t-28 -45q-7 -26 6 -51t42 -39z" />
    <glyph glyph-name="z_ss02" horiz-adv-x="653" 
d="M514 313q-48 0 -102.5 5t-110.5 10q-41 4 -80.5 7t-73.5 4.5t-60 -0.5t-41 -8q12 -1 24 -4.5t17 -14.5q7 -16 -15 -46q-20 -28 -37 -48.5t-30 -35.5q-19 -22 -29 -35t-8 -21q1 -8 22 -18q11 -5 22 -13.5t15 -23.5q1 -5 1.5 -11t-1.5 -14q39 1 78 0t78 -4q5 0 5 -5t-6 -5
q-44 3 -83 4.5t-74 0.5q-13 -46 -84 -142q-41 -54 -83.5 -75.5t-80.5 -21.5q-16 0 -30.5 3.5t-27.5 8.5q-32 16 -46.5 44t-6.5 58q9 33 37.5 56.5t72 39.5t98.5 25t116 12q1 5 1 9v9q0 21 -12 32q-15 13 -42 13q-8 0 -10 5q-5 9 9 28.5t43 55.5q12 15 25.5 32t25 32.5
t19.5 30t11 25.5q-8 2 -18.5 3t-20.5 1q-23 2 -42.5 5t-25.5 16q-9 16 13 48q13 18 32 38t38.5 36.5t37 27.5t28.5 11h2q6 0 10 -7q1 -3 1.5 -9.5t-6.5 -23.5t-25.5 -48.5t-54.5 -83.5q12 11 37.5 15.5t61.5 4t80.5 -4.5t93.5 -8q50 -5 102 -9.5t98.5 -5t84 4t58.5 18.5
q4 2 7 -2q2 -4 -2 -6q-22 -14 -56.5 -19.5t-79.5 -5.5zM-277 -181q14 -6 30.5 -9.5t35.5 -1.5q20 1 50.5 24t60.5 57t54.5 73.5t33.5 73.5q-77 -4 -133 -16t-94 -29t-59 -38.5t-27 -43.5q-7 -26 6 -51t42 -39zM17 332q31 43 49 72t27 47t11 27t2 12q-15 -12 -36.5 -32
t-41 -42.5t-30.5 -44.5t-5 -37v-1q6 0 12 -0.5t12 -0.5z" />
    <glyph glyph-name="b_ss03" horiz-adv-x="320" 
d="M343 331q5 -2 1 -6q-29 -45 -72 -87t-88 -79q-8 -19 -21 -40q-27 -45 -60 -68t-68 -23q-8 0 -10 5q-1 3 1.5 8t10.5 12.5t23 19.5t38 30q8 5 15.5 11.5t15.5 12.5q14 22 25.5 47t19.5 48t12.5 43.5t3.5 35.5q-2 13 -5.5 16.5t-6.5 4.5h-2q-15 0 -44 -19t-55 -50
q-23 -28 -33 -55t-5 -50v-3l-1 -1v-1h-1q-1 0 -1 -1h-3l-1 1h-1v1q-14 15 -18.5 48t-1.5 77t13.5 95t26.5 101q-32 -8 -65.5 -9.5t-68.5 1t-70.5 7.5t-70.5 11q-46 8 -90.5 14.5t-85.5 6.5t-78.5 -9t-68.5 -32q-5 -3 -7 1q-4 4 1 7q33 24 71 33.5t80 9.5t87.5 -6.5
t92.5 -14.5q36 -6 71.5 -11.5t71 -8t69 -0.5t65.5 11q25 77 61 136q35 57 74 81t77 13h1q22 -6 24 -32q1 -18 -9.5 -42t-35 -50t-62.5 -52t-91 -50q-13 -39 -23.5 -79t-18.5 -77t-12.5 -69.5t-5.5 -56.5q11 31 35 61q26 31 56.5 52t50.5 21h5q31 -5 31 -57q0 -45 -20 -96
q42 35 80 73.5t64 77.5q4 4 7 1zM265 697q-53 8 -104 -71q-18 -27 -33.5 -61t-29.5 -72q52 24 88 50t57.5 50.5t30.5 45t8 34.5q-1 7 -4 14t-13 10zM104 95q-23 -17 -42.5 -33t-25.5 -24q19 4 38 20.5t38 42.5z" />
    <glyph glyph-name="d_ss03" horiz-adv-x="355" 
d="M381 331q4 -1 2 -6q-5 -7 -20 -30.5t-36 -55t-46 -65.5t-48 -63t-42.5 -47.5t-30.5 -18.5q-8 0 -17 4.5t-17 19.5q-7 15 -10 38t-2 52t5 63t12 70q-11 -16 -26 -36t-32 -37.5t-34.5 -29.5t-32.5 -12h-1q-5 0 -12 5t-11 20t-3 36t7 42.5t17.5 39.5t27.5 27t41.5 6.5
t62.5 -38.5q0 2 2 4q8 37 19 75t25 74q-33 -10 -68 -12.5t-71 0t-73 8t-74 11.5q-47 8 -91.5 14.5t-85.5 6.5t-78.5 -9t-68.5 -32q-1 -1 -3 -1t-4 2q-3 3 1 7q33 24 71.5 33.5t80.5 9.5t87 -6.5t92 -14.5q37 -6 75 -12t75 -8t72.5 1t67.5 14q18 48 39.5 90t46.5 73
q57 75 114 63h1q21 -6 23 -32q1 -18 -9 -41t-33 -48.5t-59.5 -51t-86.5 -49.5q-18 -48 -33 -99.5t-25.5 -100t-16 -92t-5.5 -75.5t6 -48q5 -14 12 -14t21 13t32.5 34.5t39.5 50t42.5 59t42 61t37.5 57.5q2 5 6 1zM384 696q-22 0 -43 -15.5t-41 -42.5t-38.5 -63t-34.5 -77
q49 24 82.5 49.5t54 48.5t29 43t7.5 34q0 7 -3.5 13.5t-12.5 9.5zM6 187q13 0 29.5 12t33.5 30t32.5 39t27.5 39q-38 36 -70 17q-15 -9 -27 -26.5t-19.5 -38t-10 -39t0.5 -28.5q0 -5 3 -5z" />
    <glyph glyph-name="f_ss03" horiz-adv-x="187" 
d="M241 706q27 10 37 -15q6 -15 -0.5 -40t-27 -54.5t-56 -59.5t-87.5 -55q-16 -35 -30 -71.5t-27 -73.5q7 -7 11 -18t5.5 -27t0.5 -36q13 -3 34 0q19 3 37.5 15t33 25t24 23.5l9.5 10.5q2 6 7 1q3 -4 0 -7q-1 -1 -10.5 -12t-25 -24.5t-34.5 -25.5t-39 -16q-22 -3 -37 0
q-2 -29 -8 -62t-15 -63t-20 -54t-24 -36q-5 -6 -13.5 -10.5t-19.5 -0.5q-17 6 -12 61q3 45 19.5 110t41.5 137l2 5q25 69 53 135q-33 -11 -68.5 -14t-72.5 -1t-75 8t-75 12q-46 8 -90.5 14.5t-86 6.5t-78.5 -9t-69 -32q0 -1 -1 -1h-1q-1 0 -5 2q-2 4 2 7q33 24 71 33.5
t80 9.5t87.5 -6.5t92.5 -14.5q38 -6 77 -12t76.5 -8t73 1.5t68.5 15.5q19 43 40 81.5t42.5 68.5t42 50t40.5 26zM113 497q47 24 79 51.5t50.5 54t24.5 49t1 35.5q-3 9 -10 10.5t-13 -0.5q-15 -8 -31.5 -26t-33 -44.5t-34 -59.5t-33.5 -70zM-8 38q10 9 21 32t20 52.5
t15.5 62.5t8.5 63q-20 7 -30 22q-25 -78 -39.5 -141t-12.5 -92q0 -10 6 -7t11 8zM51 316q-1 4 -5 10l-15 -43q1 -2 2 -3.5t2 -3.5q4 -5 9 -9.5t13 -7.5q2 36 -6 57z" />
    <glyph glyph-name="g_ss03" horiz-adv-x="230" 
d="M699 48q3 -3 -1 -7q-37 -27 -79.5 -38t-89.5 -12.5t-97.5 4t-102.5 12.5q-57 8 -113.5 13.5t-110.5 1.5q-39 -111 -96 -167.5t-131 -56.5q-27 0 -45 15t-20 39q-2 23 10.5 48.5t42 49t76 43.5t112.5 33l17 3q16 44 28 89.5t20 87.5t12.5 78t7.5 61q-8 -23 -20 -52
t-26 -55t-29.5 -43.5t-31.5 -17.5h-2q-17 2 -26 29q-5 15 -6 37t2.5 44.5t13 42.5t25.5 32q13 9 35 11t56 -20q4 10 7 19t5 17l1 1q0 1 4 2t8.5 1t8.5 -1.5t4 -4.5l-1 -25.5t-5.5 -67t-13 -94t-22.5 -106.5q-4 -17 -8.5 -32t-9.5 -30q54 4 110 -1.5t113 -13.5
q51 -7 101 -12.5t96 -4t87.5 12t76.5 36.5q4 4 7 -1zM-122 -192q34 7 62 26.5t51.5 47.5t42 63t33.5 73q-8 -2 -11 -2q-63 -12 -108 -31.5t-73.5 -42t-41 -45.5t-10.5 -44q2 -20 17 -32.5t38 -12.5zM32 187q12 0 25 15t26 38t24 50.5t20 52.5q-30 18 -53 1
q-15 -11 -25.5 -31.5t-16.5 -43.5t-7 -44t2 -32l2 -4t3 -2z" />
    <glyph glyph-name="h_ss03" horiz-adv-x="330" 
d="M-223 475q-46 8 -90.5 14.5t-86 6.5t-79 -9t-68.5 -32q-1 -1 -3 -1t-4 2q-2 4 1 7q33 24 71.5 33.5t80.5 9.5t87 -6.5t92 -14.5q72 -12 142.5 -19t133.5 10q11 31 23.5 59.5t27.5 54.5q38 66 79.5 95.5t83.5 20.5h1q22 -6 24 -32q1 -18 -10 -42t-35.5 -50t-63 -52.5
t-91.5 -50.5q-2 -1 -3 -1t-2 -1q-17 -43 -28.5 -87t-17.5 -84t-5 -74t9 -57l55 74q28 38 43.5 56t32.5 18h1q10 -3 15 -11q6 -12 4 -34t-9.5 -49.5t-18 -58.5t-20.5 -59q-8 -21 -15 -42t-9 -30q8 3 23 18.5t33.5 39t40 53t43.5 60.5t42.5 62t38.5 58q2 4 7 1q5 -2 1 -6
q-8 -12 -25.5 -39t-40 -60t-47.5 -68t-48 -64t-42 -47.5t-28 -18.5h-1q-5 0 -9 4q-9 13 2.5 62.5t34.5 124.5q8 29 15.5 56.5t8.5 36.5q-12 -2 -26.5 -19.5t-38.5 -49.5q-14 -19 -31 -42.5t-40 -52.5q-2 -2 -4 -2t-4 2q-14 15 -18.5 48t-1.5 76t13 92.5t27 99.5
q-31 -8 -64.5 -9.5t-68 1.5t-70 8t-70.5 11zM266 696q-18 0 -34.5 -9t-31.5 -23t-28.5 -31.5t-23.5 -33.5q-16 -25 -29.5 -52.5t-25.5 -56.5q54 25 90.5 51t59 51t32 46t8.5 35q-1 7 -4 13.5t-13 9.5z" />
    <glyph glyph-name="j_ss03" horiz-adv-x="126" 
d="M582 49q3 3 7 -1q2 -4 -2 -7q-36 -27 -78.5 -38t-89.5 -12.5t-97.5 4t-102.5 12.5q-57 8 -112.5 13.5t-109.5 1.5q-35 -111 -93 -167.5t-136 -56.5h-1q-26 0 -44.5 15t-20.5 39q-2 23 10.5 48.5t42 49t76 43.5t112.5 33l21 3q18 52 28.5 104t15.5 94t6.5 69t1.5 28
q2 13 14 13q5 0 9 -4t4 -10l-0.5 -23t-4 -59.5t-10.5 -83.5t-20 -95q-2 -8 -4 -15t-4 -15q54 4 109.5 -1.5t110.5 -13.5q52 -7 101.5 -12.5t95.5 -4t87.5 12t77.5 36.5zM-233 -192q36 8 66 28t53.5 48t41.5 62.5t32 71.5q-5 0 -15 -2q-63 -12 -108 -31.5t-73.5 -42
t-41 -45.5t-10.5 -44q2 -20 17 -32.5t38 -12.5zM45 430q-4 0 -9 5q-5 7 -2 18q3 8 8.5 14t12.5 6q6 0 9 -4q5 -6 2 -19q-2 -8 -8 -14t-13 -6z" />
    <glyph glyph-name="k_ss03" horiz-adv-x="299" 
d="M317 331q5 3 7 -1.5t-1 -6.5t-24.5 -19.5t-52.5 -37t-66 -35.5t-63 -16q-9 0 -18 3q-11 3 -21 11q-12 -22 -23 -43t-20 -41q-1 -2 -3.5 -2.5t-4.5 1.5q-14 15 -18.5 48.5t-1.5 77.5t13.5 94.5t27.5 100.5q-32 -8 -65.5 -10t-68.5 0.5t-71 8t-71 11.5q-46 8 -90.5 14.5
t-85.5 6.5t-78.5 -9t-68.5 -32q-1 -1 -3 -1t-4 2q-4 4 1 7q33 24 71 33.5t80 9.5t87.5 -6.5t92.5 -14.5q36 -6 72 -11.5t71 -8t69 -0.5t66 11q21 62 50 116q69 119 145 116h7l9 -2h1q22 -6 24 -32q1 -18 -9.5 -42t-35 -50t-63 -52.5t-92.5 -50.5l-7 -3q-15 -44 -25.5 -88
t-17 -84t-7.5 -72t4 -51q7 23 19.5 54.5t30.5 60.5t41.5 49.5t53.5 20.5q5 0 5 -5t-5 -5q-16 0 -40 -31.5t-50 -74.5q8 -8 19 -11q17 -5 39 0t45 15t45 23.5t39.5 25t28.5 20zM159 639q-21 -29 -40 -68t-34 -82q55 24 92.5 50.5t60 51.5t32 46.5t8.5 35.5q-1 7 -4 14t-13 10
q-2 0 -5 0.5t-5 0.5q-45 3 -92 -59z" />
    <glyph glyph-name="l_ss03" horiz-adv-x="226" 
d="M287 672q1 -18 -9.5 -42t-34.5 -49.5t-61 -51.5t-89 -50q-23 -61 -41 -127t-28.5 -124t-12 -102.5t8.5 -62.5q5 -7 8 -8h5q10 0 35.5 28t57 69.5t64 89.5t57.5 88q4 4 7 1q4 -2 2 -6q-4 -7 -19.5 -30.5t-36.5 -54.5t-45.5 -65t-47.5 -62.5t-42.5 -47.5t-30.5 -20h-2
q-4 0 -6 1q-7 2 -14 7t-13 16q-16 32 -11.5 104t27.5 164q8 34 18.5 66t21.5 63q-64 -17 -135.5 -10t-143.5 19q-46 8 -90.5 14.5t-85.5 6.5t-78.5 -9t-68.5 -32q-1 -1 -2 -1h-1q-3 0 -5 2q-2 4 2 7q33 24 71 33.5t80 9.5t87.5 -6.5t92.5 -14.5q36 -6 73 -11.5t72.5 -8
t69.5 0t66 12.5q20 51 42 93t45 72q60 75 115 63h1q23 -6 25 -34zM259 697q-38 7 -84 -55q-20 -28 -40 -66t-37 -83q55 25 90.5 52t55.5 51t27 44t6 32q-1 19 -18 25z" />
    <glyph glyph-name="p_ss03" horiz-adv-x="308" 
d="M576 49q3 3 7 -1q2 -4 -1 -7q-37 -27 -79.5 -38t-89.5 -12.5t-97.5 4t-102.5 12.5q-56 8 -112 13.5t-110 1.5q-35 -111 -93 -167.5t-136 -56.5q-27 0 -45 15t-20 39q-2 23 10.5 48.5t42 49t76 43.5t111.5 33l21 3q18 52 29 104t16 94t6.5 69t1.5 28q0 13 13 13q5 0 9 -4
t4 -10q0 -1 -1 -37.5t-9 -92.5l51 60q32 38 52 58.5t34 20.5h5q14 -2 21 -8.5t9 -13.5q4 -12 1.5 -28.5t-10 -35.5t-18.5 -38.5t-24 -38.5q19 6 39.5 16.5t43 29t46 46.5t47.5 69q2 4 7 1q4 -2 2 -6q-27 -45 -53 -75t-50.5 -49t-47.5 -29.5t-43 -15.5q-12 -15 -24 -28.5
t-23 -23.5q-28 -25 -46 -25q-6 0 -9 1h-3q-2 0 -6 2q-11 6 -4 40q5 22 22.5 27.5t41.5 8.5l14 2q15 21 29.5 44.5t25 45.5t15.5 39.5t2 26.5q-2 4 -6 6h-4q-11 0 -30.5 -21.5t-47.5 -54.5q-14 -15 -28.5 -32.5t-31.5 -36.5q0 -1 -1 -1q-4 -27 -9.5 -56t-13.5 -58
q-2 -8 -4 -15t-4 -15q54 4 109.5 -1.5t111.5 -13.5q51 -7 100.5 -12.5t95.5 -4t87.5 12t77.5 36.5zM-239 -192q37 8 66.5 28t53 48t41.5 62.5t32 71.5q-5 0 -15 -2q-63 -12 -108 -31.5t-73.5 -42t-41 -45.5t-10.5 -44q2 -20 17 -32.5t38 -12.5zM39 92q2 1 4.5 2.5t5.5 3.5
q9 8 20.5 21t24.5 30q-2 -1 -6 -1q-25 -3 -37.5 -7t-16.5 -21q-2 -21 5 -28z" />
    <glyph glyph-name="q_ss03" horiz-adv-x="273" 
d="M108 26q68 -15 105.5 -36.5t55.5 -43t21 -40.5t2 -28q-4 -33 -30.5 -56.5t-61.5 -23.5q-68 0 -102 49q-38 58 -26 174q-55 6 -117.5 0t-125.5 -14q-55 -7 -108 -12.5t-99.5 -4t-84.5 12.5t-65 38q-3 3 0 8q5 2 7 0q25 -26 62.5 -36.5t83 -12t97 4t105.5 12.5q64 8 127 14
t119 0q6 61 27 139q13 51 27.5 95t25.5 74q-11 -17 -25.5 -35.5t-30.5 -34.5t-31.5 -27t-29.5 -11q-1 0 -2 -1q-2 0 -3 0.5t-2 0.5q-14 4 -22 21q-8 20 -4 49t24 51q7 7 18 14t26 10.5t35 2.5t45 -9q2 0 4.5 -1t4.5 -2l12 19q2 5 6 7.5t9 2.5q6 0 9 -4t1 -10q0 -1 -13 -34
t-28.5 -84.5t-30.5 -114t-19 -123.5h2zM282 -121q1 9 -2 26t-20 37t-53 40t-101 34h-1q-3 -43 1.5 -81t19.5 -67q24 -48 75 -60q31 0 54.5 21t26.5 50zM35 241q13 0 28.5 11.5t32 29.5t32 38.5t27.5 38.5l-10 3q-32 8 -53.5 -1.5t-33.5 -23.5q-11 -12 -17.5 -25.5
t-10.5 -26.5t-4.5 -24t2.5 -17q2 -1 2 -2t1 -1h4z" />
    <glyph glyph-name="y_ss03" horiz-adv-x="182" 
d="M675 48q4 -4 -1 -7q-36 -27 -78.5 -38t-89.5 -12.5t-97.5 4t-102.5 12.5q-57 8 -113 13.5t-109 1.5q-35 -111 -93.5 -167.5t-136.5 -56.5q-27 0 -45 15t-20 39q-2 23 10.5 48.5t42 48.5t76 43t112.5 33q5 2 10.5 2.5t10.5 1.5q13 39 22.5 78.5t15 74.5t8.5 64.5t5 48.5
q-8 -20 -20 -45.5t-25.5 -49.5t-26.5 -41.5t-24 -19.5h-3q-7 0 -11 4l-3 2q-4 5 -0.5 26.5t13.5 66.5q3 12 6 25.5t5.5 25.5t3.5 21.5t0 12.5q-2 2 -1.5 5.5t4.5 3.5q17 2 22 -17q4 -14 0.5 -37.5t-10.5 -49t-15.5 -47.5t-14.5 -32h2q9 2 22 20.5t27 45t27.5 57t23.5 55.5
q3 10 12 10q4 0 10 -4q4 -6 3 -10l-0.5 -23t-3.5 -59.5t-10 -83.5t-20 -95l-8 -29q54 3 109 -3t111 -14q51 -7 101 -12.5t96 -4t87.5 12.5t76.5 37q5 3 7 -1zM-146 -192q36 8 65.5 28t53.5 48t42 62.5t32 71.5q-5 0 -15 -2q-63 -12 -108 -31.5t-73.5 -42t-41 -45.5
t-10.5 -44q2 -20 17 -32.5t38 -12.5z" />
    <glyph glyph-name="z_ss03" horiz-adv-x="134" 
d="M590 48q3 -3 -1 -7q-36 -27 -78.5 -38t-89.5 -12.5t-97.5 4t-102.5 12.5q-53 7 -105.5 12.5t-103.5 3.5q-9 -34 -30 -73.5t-51 -73t-66.5 -56t-76.5 -22.5q-29 0 -49.5 17t-22.5 44q-2 21 8.5 44.5t37 46.5t71.5 42.5t112 32.5q19 4 41 6q3 9 4 17t1 15q0 45 -54 45
q-8 0 -10 5q-5 9 8.5 28t42.5 54q13 16 27 33t25.5 33.5t19 31t9.5 25.5q-17 3 -38 3q-23 2 -42.5 5t-25.5 16q-9 16 13 48q13 18 32.5 38.5t39.5 37.5t38 27.5t28 9.5q6 0 10 -7q1 -2 1.5 -8.5t-6.5 -24t-25.5 -49t-54.5 -83.5q20 -1 36.5 -4.5t21.5 -14.5q7 -16 -15 -46
q-18 -25 -34 -44.5t-29 -35.5q-21 -26 -33 -42.5t-10 -24.5q4 -7 23 -10q34 -8 29 -58l-3 -18q51 2 103 -3.5t104 -13.5q51 -7 101 -12.5t96 -4t87.5 12.5t76.5 37q5 3 7 -1zM-274 -140q2 -23 19 -37.5t43 -14.5q20 0 54.5 26t69.5 70q53 63 71 117l-18 -2t-18 -3
q-44 -9 -85 -23.5t-72 -34.5t-49 -45t-15 -53zM17 332q31 43 49 72t27 47t11 27t2 12q-15 -12 -36.5 -32t-40.5 -42.5t-30.5 -44.5t-4.5 -37q5 -1 11 -1.5t12 -0.5z" />
    <glyph glyph-name="b_salt" horiz-adv-x="320" 
d="M343 332q4 -4 2 -7q-29 -44 -72.5 -86.5t-88.5 -79.5q-8 -19 -21 -40q-27 -45 -60 -68t-68 -23q-8 0 -10 5q-1 3 1.5 8t10.5 12.5t23 19.5t38 30l31 24q14 22 25.5 47t20 48t12.5 43.5t3 35.5q-1 13 -5 16.5t-6 4.5h-3q-15 0 -44 -19t-55 -50q-46 -57 -37 -105v-1
q-1 -1 0 -1h-1v-2h-1v-1h-2l-1 -1h-1l-1 1h-2v1h-1q-14 16 -18 51.5t-0.5 81.5t15 99t29.5 104l2 6l1 3q3 8 8 23.5t11 27.5q5 12 19 8q5 -2 9 -7.5t2 -13.5q-3 -16 -8 -30.5t-6 -15.5v-1q-13 -39 -23.5 -78.5t-18 -76.5t-12 -69.5t-5.5 -56.5q9 29 34 60q26 31 56.5 52
t50.5 21h5q31 -5 31 -57q0 -44 -19 -96q41 35 79 73.5t64 77.5q4 4 7 2zM37 38q18 4 37.5 20.5t37.5 42.5l-8 -6q-23 -17 -42.5 -33t-24.5 -24z" />
    <glyph glyph-name="d_salt" horiz-adv-x="355" 
d="M381 332q4 -4 1 -7q-5 -7 -20 -30.5t-36 -55t-45.5 -65.5t-48 -63t-42.5 -47.5t-30 -18.5q-8 0 -17 4.5t-17 20.5q-14 29 -12.5 89t16.5 133q-11 -16 -26 -36t-32 -37.5t-34.5 -29.5t-32.5 -12h-1q-5 0 -12 5t-11 20t-2.5 36t7.5 42.5t17 39.5t27 27q8 4 18.5 6.5t23 0
t28.5 -11t34 -26.5l2 3q4 20 15 55l22 70t21 63t13 34q5 11 18 7q5 -2 9 -7t2 -13t-16 -42t-30.5 -89t-31 -126.5t-17.5 -153.5q0 -32 6 -47q4 -15 13 -15q7 0 21 13t32 34.5t39 50t42.5 59t42 61t37.5 57.5q2 4 7 2zM5 187q13 0 29.5 12.5t33.5 30.5t32.5 39t27.5 38
q-38 36 -70 17q-15 -9 -27 -26.5t-19 -38t-10 -39t0 -28.5q0 -1 0.5 -3t2.5 -2z" />
    <glyph glyph-name="f_salt" horiz-adv-x="187" 
d="M205 330q3 5 7 1q5 -3 1 -7q-1 -1 -11 -12t-25.5 -24.5t-34.5 -25.5t-39 -16q-22 -3 -37 0q-2 -29 -7.5 -62t-14.5 -63t-20 -54t-24 -36q-8 -8 -13.5 -11t-19.5 0q-17 9 -13 61q4 45 20 110t41 137q2 4 2 5q13 37 27.5 73.5t30.5 71.5q0 1 4.5 12t11 24t13 23t11.5 9
q6 -2 5.5 -12.5t-3.5 -22.5q-4 -14 -11 -31q-1 -1 -1 -2q-15 -34 -28.5 -70t-26.5 -71q7 -7 11 -18t5.5 -27t0.5 -36q13 -3 34 0q19 3 37.5 15t33 25t24 23.5zM-7 38q10 9 21 32t20 52.5t15 62.5t8 63q-11 4 -17.5 10t-11.5 12h-1q-25 -78 -39.5 -141t-12.5 -92q1 -4 1 -8
q6 1 17 9zM58 259q0 17 -1 31.5t-5 25.5q-4 8 -6 10l-15 -43q1 -3 5 -7q3 -5 8.5 -9.5t13.5 -7.5z" />
    <glyph glyph-name="g_salt" horiz-adv-x="230" 
d="M164 394q5 0 5 -6l-1.5 -20t-5 -52.5t-9.5 -75t-15.5 -89.5t-23.5 -95.5t-32 -91.5q-6 -14 -17 -24t-19 -11h-1q-5 0 -8 3q-2 3 -1.5 10t9.5 24q26 48 43 103.5t28 108t16.5 98t7.5 74.5q-8 -23 -19.5 -52.5t-25.5 -56t-30 -45t-32 -18.5q-2 0 -2 1q-17 2 -26 28
q-5 16 -6 38t2.5 44.5t13 42t24.5 31.5q13 10 35.5 11.5t56.5 -20.5l12 36q2 3 4 4h17zM33 188q12 0 25 15t25.5 38t24 50.5t20.5 52.5q-28 19 -54 2q-15 -11 -25 -31.5t-16 -43.5t-7.5 -44t2.5 -32q1 -2 2 -4.5t3 -2.5z" />
    <glyph glyph-name="h_salt" horiz-adv-x="330" 
d="M353 332q4 -4 1 -7q-8 -13 -25 -39.5t-39.5 -59t-47.5 -67t-47.5 -63.5t-41.5 -48t-29 -20h-3q-5 0 -7 4q-10 13 2 62.5t34 124.5q4 14 8.5 29t8 27.5t5.5 22.5t2 14q-12 -2 -26.5 -19t-38.5 -50q-14 -19 -31 -42t-40 -52q-1 -1 -4 -3l-4 2q-14 16 -18.5 50.5t-1 80
t15.5 98t30 103.5q0 1 2.5 8.5t6 17t7 19.5t6.5 16q5 10 17 7q5 -2 8.5 -5t1.5 -11q-2 -6 -5 -15.5t-5 -17.5q-4 -10 -6 -20q-17 -43 -29 -87.5t-18 -85t-5 -74.5t9 -57q17 22 30.5 40.5t24.5 33.5q28 38 43.5 56t32.5 18h1q11 -3 15 -11q7 -12 5 -34t-9.5 -49.5t-18.5 -58
t-21 -58.5q-8 -22 -15 -43t-8 -30q8 3 22.5 18.5t33 39t40 53t43.5 60.5t42.5 62t38.5 58q4 4 7 2z" />
    <glyph glyph-name="j_salt" horiz-adv-x="126" 
d="M30 336q6 0 10 -4q3 -3 3 -9q0 -1 -1.5 -36t-8.5 -88.5t-20.5 -117.5t-38.5 -121q-12 -28 -25 -29h-1q-7 0 -10 5q-8 12 0 28q28 57 44 119.5t23.5 115.5t9.5 88t2 36q0 13 13 13zM56 473q6 0 9 -5q5 -7 2 -18q-5 -20 -21 -20q-6 0 -9 4q-5 8 -2 19q2 8 8 14t13 6z" />
    <glyph glyph-name="k_salt" horiz-adv-x="299" 
d="M317 331q4 2 7.5 -0.5t-1.5 -7.5q-3 -2 -24.5 -19t-52.5 -36.5t-66 -35.5t-63 -16h-9t-9 2q-12 3 -20 11q-13 -22 -23.5 -42.5t-20.5 -40.5h1h-1v-1q0 -1 -0.5 -1t-0.5 -1h-1q-1 0 -1 -0.5t-1 -0.5t-2 1h-1v1h-1q-14 16 -18.5 51t-0.5 81.5t15.5 99.5t29.5 104l2 7.5
t5 17.5t6.5 20t6.5 16q5 9 13 7q5 -2 9 -7t2 -13t-4.5 -16.5t-4.5 -15.5q-3 -9 -6 -16q-15 -44 -26 -89t-17.5 -85.5t-7.5 -73t4 -51.5q7 23 19.5 54.5t30.5 60.5t41.5 49.5t53.5 20.5q5 0 5 -5t-5 -5q-16 0 -40 -31.5t-49 -74.5q8 -8 19 -11q17 -5 38.5 0t44.5 15t45 23.5
t39.5 25t28.5 20z" />
    <glyph glyph-name="l_salt" horiz-adv-x="226" 
d="M255 332q3 -3 1 -7q-4 -7 -19.5 -30.5t-36.5 -54.5t-45.5 -65t-47.5 -62.5t-42.5 -47.5t-30.5 -20h-2q-4 0 -6 1q-7 2 -14 7t-12 16q-8 16 -11 43t-1 61.5t8.5 76t18.5 87.5q5 19 15 51t20.5 64t19.5 57.5t12 31.5q5 10 18 7q13 -4 8 -19q-1 -3 -10 -29t-21.5 -66
t-26 -90t-23 -101t-12.5 -98t6 -82q1 -4 3 -5.5t4 -1.5q2 -1 5 -1q7 0 21 13t32.5 34.5t39.5 50t42.5 59t42 61t37.5 57.5q2 4 7 2z" />
    <glyph glyph-name="p_salt" horiz-adv-x="308" 
d="M332 332q4 -2 1 -7q-26 -45 -52 -75t-51 -49t-48 -29t-43 -15q-23 -32 -47 -53q-28 -25 -45 -25q-3 0 -9 2h-3q-4 0 -6 1q-11 7 -4 40q5 23 22.5 28.5t40.5 8.5q4 0 7.5 0.5t7.5 0.5q15 21 29.5 45t25 45.5t15.5 39.5t2 27q-2 4 -6 5q-1 0 -2 0.5t-3 0.5
q-11 0 -30.5 -21.5t-47.5 -54.5l-64 -71q-8 -51 -21 -107.5t-36 -107.5q-12 -28 -25 -29h-1q-5 0 -10 5q-8 11 1 28q19 38 32 79t21.5 80.5t13.5 75.5t7.5 63.5t3 43.5t0.5 17q2 13 13 13q7 0 10 -4q5 -3 3 -9q0 -1 -1.5 -39.5t-9.5 -95.5q16 17 30 33.5t26 30.5
q32 39 51.5 59.5t33.5 20.5h1q4 0 5 -1q14 -2 21 -8.5t9 -13.5q4 -12 1.5 -28t-10 -35t-19 -38.5t-24.5 -38.5q19 5 40 15.5t43.5 29t46 46.5t47.5 69q2 5 7 2zM49 98q19 16 46 51h-6q-25 -3 -37.5 -7.5t-16.5 -21.5q-1 -20 5 -28z" />
    <glyph glyph-name="q_salt" horiz-adv-x="273" 
d="M187 397q6 0 9 -4t1 -11q0 -1 -7 -19.5t-17.5 -50.5t-22.5 -73.5t-22 -87.5t-17 -93t-7 -89q0 -6 -4 -8q-3 -3 -8 -3q-7 0 -15 7.5t-8 21.5q0 45 8.5 94.5t21 96.5t27 88t25.5 70q-12 -16 -26 -34.5t-29.5 -34t-31 -26t-29.5 -10.5h-2q-2 0 -2.5 0.5t-2.5 0.5
q-14 3 -22 21q-8 20 -3.5 49t24.5 50q7 8 18 15t26 10.5t34.5 2.5t44.5 -9l10 -3l11 18q5 11 16 11zM35 241q13 0 28.5 12t32 29.5t31.5 38t27 38.5l-10 3q-32 8 -53 -1.5t-34 -23.5q-11 -11 -17.5 -25t-10.5 -27t-4 -23.5t3 -16.5q1 -3 3 -3q1 -1 4 -1z" />
    <glyph glyph-name="r_salt" horiz-adv-x="201" 
d="M225 331q3 -4 0 -7q0 -1 -12.5 -14t-31.5 -32t-42 -41.5t-45.5 -41.5t-41.5 -32t-29 -13q-2 0 -2.5 0.5t-1.5 0.5q-1 -1 -4 -1q-8 0 -13 8q-6 11 -0.5 34t15 48t20.5 48t17 34q-8 2 -18 2t-20 1q-21 0 -39 2.5t-24 14.5q-7 16 14 48q13 18 32 37.5t38.5 36t37.5 27.5
t29 11h2q8 -2 11 -8q1 -2 1.5 -8.5t-6.5 -23.5t-25.5 -47.5t-54.5 -80.5q17 -1 32 -4.5t20 -14.5q9 -17 -11 -49q-23 -37 -33.5 -57.5t-14.5 -31.5q-4 -12 -2 -17q4 -3 21.5 8.5t44 35t60 56t69.5 71.5q2 5 7 0zM17 335q1 0 1.5 -0.5t1.5 -0.5q34 47 52.5 76.5t26.5 46.5
t9 24t0 9q-2 2 -3 2h-2v-1q-14 -11 -35.5 -30.5t-41 -42t-31.5 -44.5t-7 -38q7 -1 14 -1h15z" />
    <glyph glyph-name="s_salt" horiz-adv-x="252" 
d="M276 324q-48 -63 -90 -97.5t-80 -56.5q16 -39 18 -72.5t-23 -56.5q-35 -30 -65.5 -46t-54.5 -16q-5 0 -10.5 1t-10.5 3q-22 9 -27 35q-2 19 11.5 46.5t51.5 54.5q15 11 30.5 19.5t32.5 17.5l5 3l-8 15q-18 34 -35.5 72t-25.5 75t-1.5 71.5t36.5 62.5q36 41 53 36
q3 -1 6.5 -4.5t4.5 -11.5q2 -12 -3 -32.5t-14 -42t-20.5 -41.5t-23.5 -31q8 -21 18 -42.5t21 -43.5l30 -63q37 22 78 55.5t88 95.5q4 4 7 1q4 -4 1 -7zM93 49q11 14 1.5 40t-26.5 61l-4 -3q-17 -9 -32.5 -17.5t-29.5 -18.5q-36 -25 -48.5 -50t-10.5 -42q3 -20 21 -27
q22 -8 56.5 7t72.5 50zM38 448q-19 -21 -19 -49t11 -60q10 11 20.5 29.5t18.5 38t12 38t3 29.5q0 2 -1 4.5t-3 2.5h-1q-3 0 -12 -5t-29 -28z" />
    <glyph glyph-name="t_salt" horiz-adv-x="243" 
d="M631 560q2 -4 -1 -7q-36 -31 -87 -43.5t-113 -12.5q-73 0 -156 13.5t-170 31.5q-11 -37 -24.5 -82.5t-26 -93.5t-23 -95t-15.5 -87.5t-3 -71t13 -45.5q6 -10 16 -11q2 -1 7 -1q7 0 21 13t32 34.5t39 50t42.5 59t42 61t37.5 57.5q4 4 7 1q5 -2 1 -6q-5 -7 -20 -30.5
t-36 -55t-45.5 -65.5t-47.5 -63t-42.5 -47.5t-30.5 -18.5q-42 0 -56 62q-8 37 -4.5 93t14.5 117.5t27.5 123t33.5 110.5l-25 6q-81 18 -162 33.5t-153.5 21.5t-132.5 -2t-100 -38q-6 -2 -7 1q-4 5 1 7q41 31 101 40t132.5 3.5t154.5 -22t168 -34.5l27 -6q15 41 29 67.5
t25 31.5q9 3 15 -4v-2l1 -1q0 -1 -1 -1q-2 -12 -8.5 -33.5t-15.5 -49.5l-5 -17q79 -17 155 -30t143.5 -15t123.5 9.5t94 44.5q4 3 8 -1z" />
    <glyph glyph-name="y_salt" horiz-adv-x="182" 
d="M122 333q4 -3 4 -9q0 -1 -1.5 -36t-8.5 -88.5t-20.5 -117.5t-38.5 -121q-12 -27 -25 -29h-1q-7 0 -10 5q-8 12 0 28q22 44 36.5 92.5t23 93.5t12.5 83t6 61q-8 -20 -20 -45.5t-25.5 -49.5t-26.5 -41t-24 -19q-1 -1 -3 -1q-6 0 -11 5q-1 0 -3 2q-4 5 -0.5 26t13.5 67
q3 12 6 25.5t5 25.5l3.5 21t0.5 12v1l-1 1q-7 8 4 8q18 0 22 -17q4 -14 0.5 -37.5t-10.5 -49t-15.5 -47.5t-14.5 -32q1 -1 2 0q9 1 22 19.5t27 45t27 56.5t23 56q3 10 13 10q6 0 9 -4z" />
    <glyph glyph-name="z_salt" horiz-adv-x="134" 
d="M30 331q20 -2 36 -5t21 -15q7 -16 -14 -46q-19 -25 -34.5 -44.5t-29.5 -35.5q-21 -26 -33 -42.5t-10 -23.5q3 -7 23 -11q34 -6 29 -57q-3 -33 -22.5 -76.5t-51 -82.5t-72 -66.5t-84.5 -27.5q-5 0 -5 5t5 5q15 0 35.5 13t43.5 34t45 47.5t40 55t29 56t11 49.5q0 20 -12 32
q-14 12 -42 12q-9 0 -11 6q-4 8 9 27t42 55q13 16 27 33t25.5 33.5t19 30.5t9.5 25q-8 2 -18 2.5t-20 1.5q-23 2 -42 4.5t-26 16.5q-8 18 14 47q13 19 32 39.5t39 37.5t38 27.5t28 9.5q9 -2 10 -7q1 -3 2 -9.5t-6 -24t-25.5 -48.5t-54.5 -83zM18 331q31 43 48.5 72t26.5 47
t11 27t2 12q-15 -12 -36.5 -32t-40.5 -42.5t-30 -44.5t-5 -37z" />
    <glyph glyph-name="e" unicode="e" horiz-adv-x="203" 
d="M220 331q4 2 7 -1q3 -4 0 -7q-2 -2 -22.5 -20t-48.5 -39t-58 -38t-51 -17q-28 0 -43 15q-14 12 -14 35q0 28 18 58q17 29 47 52t65 23q17 0 17 -16q0 -10 -9 -21t-24 -21q-10 -7 -27 -14t-41 -9q-8 -14 -12.5 -29t-4.5 -31q0 -14 7 -23q5 -8 21 -8q19 0 48.5 17t57 37.5
t47.5 38t20 18.5zM120 382q-17 0 -39 -17t-39 -43q20 3 34 8.5t23 11.5q14 10 21 19.5t7 14.5q0 2 -1 4t-6 2z" />
    <glyph glyph-name="f" unicode="f" horiz-adv-x="187" 
d="M102 246q-11 -2 -19.5 -2t-16.5 2q-2 -30 -8 -63t-15 -63t-20 -54t-24 -35q-14 -15 -22 -15h-4q0 1 -1 1h-1q-2 0 -8 2q-18 9 -14 64q2 28 9.5 64t19.5 76.5t27 83t33 83.5q12 28 30 64t40 69.5t46.5 59.5t50.5 34q20 7 28 -2q11 -13 -5 -47q-11 -26 -33 -59.5t-48 -66
t-51.5 -59.5t-44.5 -39l-2 -4q8 -6 12 -19q4 -11 5.5 -28t0.5 -37q15 -3 34 0q18 3 36.5 15t33.5 25t24.5 23.5l9.5 10.5q2 4 7 1q3 -4 0 -7q-1 -1 -10.5 -12t-25 -24.5t-35 -25.5t-39.5 -16zM208 608q-19 -9 -38.5 -33t-39 -57t-38 -74t-35.5 -84q18 15 41.5 41t47 56
t43 60.5t30.5 54.5q9 20 8.5 27.5t-1.5 8.5q-1 2 -6 2q-2 0 -12 -2zM-8 38q10 9 21 32t20 52.5t15.5 62.5t8.5 63q-11 4 -17.5 9.5t-11.5 11.5l-2 4q-13 -38 -23 -74.5t-17.5 -67t-11 -54.5t-2.5 -37q1 -11 3 -12q8 2 17 10zM58 259q2 36 -6 59q-3 7 -7 11l-15 -43l6 -10
q10 -13 22 -17z" />
    <glyph glyph-name="g" unicode="g" horiz-adv-x="230" 
d="M255 42q5 0 5 -5q-2 -5 -6 -5q-39 3 -75.5 4.5t-68.5 0.5q-39 -118 -97.5 -178.5t-134.5 -60.5h-29q-17 0 -31.5 3.5t-26.5 8.5q-32 16 -46.5 44t-6.5 58q9 34 40 58.5t77 40.5t104.5 24.5t121.5 10.5q16 44 26.5 88.5t17.5 85t10 74t5 56.5q-8 -23 -19.5 -52.5
t-26 -56.5t-30.5 -45.5t-32 -18.5h-2q-17 2 -26 28q-5 16 -6 38t2.5 44.5t13 42.5t25.5 32q12 9 34.5 10.5t56.5 -20.5l12 37l1 1v1h1l1 1h18q3 0 4 -1t1 -4l-1 -25.5t-5.5 -67t-13 -94t-22.5 -106.5q-3 -13 -6.5 -24.5t-6.5 -23.5q35 1 71 -0.5t71 -3.5zM-205 -181
q19 -9 44 -11t52.5 6t56.5 29t57 58q23 30 41 64.5t32 70.5q-81 -3 -140.5 -14.5t-100 -28.5t-62.5 -39t-28 -45q-7 -26 6 -51t42 -39zM32 187q12 0 25 15t25.5 38t24 50.5t20.5 52.5q-30 18 -53 1q-15 -11 -25.5 -31.5t-16.5 -43.5t-7 -44t2 -32l2 -4t3 -2z" />
  </font>
</defs>
</svg>
